<svg xmlns="http://www.w3.org/2000/svg" xmlns:xlink="http://www.w3.org/1999/xlink" viewBox="0 0 988.26 299.29"><defs><style>.cls-1{fill:none;}.cls-2{isolation:isolate;}.cls-3{clip-path:url(#clip-path);}.cls-4,.cls-5{fill:#fff;mix-blend-mode:overlay;}.cls-4{opacity:0.8;}.cls-10,.cls-100,.cls-101,.cls-102,.cls-103,.cls-104,.cls-105,.cls-106,.cls-107,.cls-108,.cls-109,.cls-11,.cls-110,.cls-111,.cls-112,.cls-113,.cls-114,.cls-115,.cls-116,.cls-117,.cls-118,.cls-119,.cls-12,.cls-120,.cls-121,.cls-122,.cls-123,.cls-124,.cls-125,.cls-126,.cls-127,.cls-128,.cls-129,.cls-13,.cls-130,.cls-131,.cls-132,.cls-133,.cls-134,.cls-135,.cls-136,.cls-137,.cls-138,.cls-139,.cls-14,.cls-140,.cls-141,.cls-142,.cls-143,.cls-144,.cls-145,.cls-146,.cls-147,.cls-148,.cls-149,.cls-15,.cls-150,.cls-151,.cls-152,.cls-153,.cls-154,.cls-155,.cls-156,.cls-157,.cls-158,.cls-159,.cls-16,.cls-160,.cls-161,.cls-162,.cls-163,.cls-164,.cls-165,.cls-166,.cls-167,.cls-168,.cls-169,.cls-17,.cls-170,.cls-18,.cls-19,.cls-20,.cls-21,.cls-22,.cls-23,.cls-24,.cls-25,.cls-26,.cls-27,.cls-28,.cls-29,.cls-30,.cls-31,.cls-32,.cls-33,.cls-34,.cls-35,.cls-36,.cls-37,.cls-38,.cls-39,.cls-40,.cls-41,.cls-42,.cls-43,.cls-44,.cls-45,.cls-46,.cls-47,.cls-48,.cls-49,.cls-50,.cls-51,.cls-52,.cls-53,.cls-54,.cls-55,.cls-56,.cls-57,.cls-58,.cls-59,.cls-6,.cls-60,.cls-61,.cls-62,.cls-63,.cls-64,.cls-65,.cls-66,.cls-67,.cls-68,.cls-69,.cls-7,.cls-70,.cls-71,.cls-72,.cls-73,.cls-74,.cls-75,.cls-76,.cls-77,.cls-78,.cls-79,.cls-8,.cls-80,.cls-81,.cls-82,.cls-83,.cls-84,.cls-85,.cls-86,.cls-87,.cls-88,.cls-89,.cls-9,.cls-90,.cls-91,.cls-92,.cls-93,.cls-94,.cls-95,.cls-96,.cls-97,.cls-98,.cls-99{mix-blend-mode:screen;}.cls-6{fill:url(#radial-gradient);}.cls-7{fill:url(#radial-gradient-2);}.cls-8{fill:url(#radial-gradient-3);}.cls-9{fill:url(#radial-gradient-4);}.cls-10{fill:url(#radial-gradient-5);}.cls-11{fill:url(#radial-gradient-6);}.cls-12{fill:url(#radial-gradient-7);}.cls-13{fill:url(#radial-gradient-8);}.cls-14{fill:url(#radial-gradient-9);}.cls-15{fill:url(#radial-gradient-10);}.cls-16{fill:url(#radial-gradient-11);}.cls-17{fill:url(#radial-gradient-12);}.cls-18{fill:url(#radial-gradient-13);}.cls-19{fill:url(#radial-gradient-14);}.cls-20{fill:url(#radial-gradient-15);}.cls-21{fill:url(#radial-gradient-16);}.cls-22{fill:url(#radial-gradient-17);}.cls-23{fill:url(#radial-gradient-18);}.cls-24{fill:url(#radial-gradient-19);}.cls-25{fill:url(#radial-gradient-20);}.cls-26{fill:url(#radial-gradient-21);}.cls-27{fill:url(#radial-gradient-22);}.cls-28{fill:url(#radial-gradient-23);}.cls-29{fill:url(#radial-gradient-24);}.cls-30{fill:url(#radial-gradient-25);}.cls-31{fill:url(#radial-gradient-26);}.cls-32{fill:url(#radial-gradient-27);}.cls-33{fill:url(#radial-gradient-28);}.cls-34{fill:url(#radial-gradient-29);}.cls-35{fill:url(#radial-gradient-30);}.cls-36{fill:url(#radial-gradient-31);}.cls-37{fill:url(#radial-gradient-32);}.cls-38{fill:url(#radial-gradient-33);}.cls-39{fill:url(#radial-gradient-34);}.cls-40{fill:url(#radial-gradient-35);}.cls-41{fill:url(#radial-gradient-36);}.cls-42{fill:url(#radial-gradient-37);}.cls-43{fill:url(#radial-gradient-38);}.cls-44{fill:url(#radial-gradient-39);}.cls-45{fill:url(#radial-gradient-40);}.cls-46{fill:url(#radial-gradient-41);}.cls-47{fill:url(#radial-gradient-42);}.cls-48{fill:url(#radial-gradient-43);}.cls-49{fill:url(#radial-gradient-44);}.cls-50{fill:url(#radial-gradient-45);}.cls-51{fill:url(#radial-gradient-46);}.cls-52{fill:url(#radial-gradient-47);}.cls-53{fill:url(#radial-gradient-48);}.cls-54{fill:url(#radial-gradient-49);}.cls-55{fill:url(#radial-gradient-50);}.cls-56{fill:url(#radial-gradient-51);}.cls-57{fill:url(#radial-gradient-52);}.cls-58{fill:url(#radial-gradient-53);}.cls-59{fill:url(#radial-gradient-54);}.cls-60{fill:url(#radial-gradient-55);}.cls-61{fill:url(#radial-gradient-56);}.cls-62{fill:url(#radial-gradient-57);}.cls-63{fill:url(#radial-gradient-58);}.cls-64{fill:url(#radial-gradient-59);}.cls-65{fill:url(#radial-gradient-60);}.cls-66{fill:url(#radial-gradient-61);}.cls-67{fill:url(#radial-gradient-62);}.cls-68{fill:url(#radial-gradient-63);}.cls-69{fill:url(#radial-gradient-64);}.cls-70{fill:url(#radial-gradient-65);}.cls-71{fill:url(#radial-gradient-66);}.cls-72{fill:url(#radial-gradient-67);}.cls-73{fill:url(#radial-gradient-68);}.cls-74{fill:url(#radial-gradient-69);}.cls-75{fill:url(#radial-gradient-70);}.cls-76{fill:url(#radial-gradient-71);}.cls-77{fill:url(#radial-gradient-72);}.cls-78{fill:url(#radial-gradient-73);}.cls-79{fill:url(#radial-gradient-74);}.cls-80{fill:url(#radial-gradient-75);}.cls-81{fill:url(#radial-gradient-76);}.cls-82{fill:url(#radial-gradient-77);}.cls-83{fill:url(#radial-gradient-78);}.cls-84{fill:url(#radial-gradient-79);}.cls-85{fill:url(#radial-gradient-80);}.cls-86{fill:url(#radial-gradient-81);}.cls-87{fill:url(#radial-gradient-82);}.cls-88{fill:url(#radial-gradient-83);}.cls-89{fill:url(#radial-gradient-84);}.cls-90{fill:url(#radial-gradient-85);}.cls-91{fill:url(#radial-gradient-86);}.cls-92{fill:url(#radial-gradient-87);}.cls-93{fill:url(#radial-gradient-88);}.cls-94{fill:url(#radial-gradient-89);}.cls-95{fill:url(#radial-gradient-90);}.cls-96{fill:url(#radial-gradient-91);}.cls-97{fill:url(#radial-gradient-92);}.cls-98{fill:url(#radial-gradient-93);}.cls-99{fill:url(#radial-gradient-94);}.cls-100{fill:url(#radial-gradient-95);}.cls-101{fill:url(#radial-gradient-96);}.cls-102{fill:url(#radial-gradient-97);}.cls-103{fill:url(#radial-gradient-98);}.cls-104{fill:url(#radial-gradient-99);}.cls-105{fill:url(#radial-gradient-100);}.cls-106{fill:url(#radial-gradient-101);}.cls-107{fill:url(#radial-gradient-102);}.cls-108{fill:url(#radial-gradient-103);}.cls-109{fill:url(#radial-gradient-104);}.cls-110{fill:url(#radial-gradient-105);}.cls-111{fill:url(#radial-gradient-106);}.cls-112{fill:url(#radial-gradient-107);}.cls-113{fill:url(#radial-gradient-108);}.cls-114{fill:url(#radial-gradient-109);}.cls-115{fill:url(#radial-gradient-110);}.cls-116{fill:url(#radial-gradient-111);}.cls-117{fill:url(#radial-gradient-112);}.cls-118{fill:url(#radial-gradient-113);}.cls-119{fill:url(#radial-gradient-114);}.cls-120{fill:url(#radial-gradient-115);}.cls-121{fill:url(#radial-gradient-116);}.cls-122{fill:url(#radial-gradient-117);}.cls-123{fill:url(#radial-gradient-118);}.cls-124{fill:url(#radial-gradient-119);}.cls-125{fill:url(#radial-gradient-120);}.cls-126{fill:url(#radial-gradient-121);}.cls-127{fill:url(#radial-gradient-122);}.cls-128{fill:url(#radial-gradient-123);}.cls-129{fill:url(#radial-gradient-124);}.cls-130{fill:url(#radial-gradient-125);}.cls-131{fill:url(#radial-gradient-126);}.cls-132{fill:url(#radial-gradient-127);}.cls-133{fill:url(#radial-gradient-128);}.cls-134{fill:url(#radial-gradient-129);}.cls-135{fill:url(#radial-gradient-130);}.cls-136{fill:url(#radial-gradient-131);}.cls-137{fill:url(#radial-gradient-132);}.cls-138{fill:url(#radial-gradient-133);}.cls-139{fill:url(#radial-gradient-134);}.cls-140{fill:url(#radial-gradient-135);}.cls-141{fill:url(#radial-gradient-136);}.cls-142{fill:url(#radial-gradient-137);}.cls-143{fill:url(#radial-gradient-138);}.cls-144{fill:url(#radial-gradient-139);}.cls-145{fill:url(#radial-gradient-140);}.cls-146{fill:url(#radial-gradient-141);}.cls-147{fill:url(#radial-gradient-142);}.cls-148{fill:url(#radial-gradient-143);}.cls-149{fill:url(#radial-gradient-144);}.cls-150{fill:url(#radial-gradient-145);}.cls-151{fill:url(#radial-gradient-146);}.cls-152{fill:url(#radial-gradient-147);}.cls-153{fill:url(#radial-gradient-148);}.cls-154{fill:url(#radial-gradient-149);}.cls-155{fill:url(#radial-gradient-150);}.cls-156{fill:url(#radial-gradient-151);}.cls-157{fill:url(#radial-gradient-152);}.cls-158{fill:url(#radial-gradient-153);}.cls-159{fill:url(#radial-gradient-154);}.cls-160{fill:url(#radial-gradient-155);}.cls-161{fill:url(#radial-gradient-156);}.cls-162{fill:url(#radial-gradient-157);}.cls-163{fill:url(#radial-gradient-158);}.cls-164{fill:url(#radial-gradient-159);}.cls-165{fill:url(#radial-gradient-160);}.cls-166{fill:url(#radial-gradient-161);}.cls-167{fill:url(#radial-gradient-162);}.cls-168{fill:url(#radial-gradient-163);}.cls-169{fill:url(#radial-gradient-164);}.cls-170{fill:url(#radial-gradient-165);}</style><clipPath id="clip-path"><rect class="cls-1" x="158.14" y="46.53" width="576" height="288"/></clipPath><radialGradient id="radial-gradient" cx="-2105.3" cy="-1936.22" r="2.4" gradientTransform="matrix(0, -1, 1, 0, 2792.12, -1944.45)" gradientUnits="userSpaceOnUse"><stop offset="0.18" stop-color="#68f2ff"/><stop offset="0.19" stop-color="#62eaf7"/><stop offset="0.19" stop-color="#51d5e3"/><stop offset="0.19" stop-color="#35b2c1"/><stop offset="0.2" stop-color="#108192"/><stop offset="0.2" stop-color="#0d7e8f"/><stop offset="0.25" stop-color="#0d7e8f"/><stop offset="0.3" stop-color="#0b6876"/><stop offset="0.4" stop-color="#074852"/><stop offset="0.5" stop-color="#052e34"/><stop offset="0.6" stop-color="#031a1d"/><stop offset="0.71" stop-color="#010b0d"/><stop offset="0.84" stop-color="#000303"/><stop offset="1"/></radialGradient><radialGradient id="radial-gradient-2" cx="-2121.86" cy="-1868.5" r="4.34" gradientTransform="translate(-750.86 -2205.3) rotate(-166.79)" xlink:href="#radial-gradient"/><radialGradient id="radial-gradient-3" cx="-2132.94" cy="-2019.11" r="3.74" gradientTransform="translate(-750.86 -2205.3) rotate(-166.79)" xlink:href="#radial-gradient"/><radialGradient id="radial-gradient-4" cx="-2090.34" cy="-1863.72" r="4.2" gradientTransform="translate(-750.86 -2205.3) rotate(-166.79)" xlink:href="#radial-gradient"/><radialGradient id="radial-gradient-5" cx="-2126.77" cy="-1986.27" r="1.93" gradientTransform="translate(2851.58 -1912.33) rotate(-90)" xlink:href="#radial-gradient"/><radialGradient id="radial-gradient-6" cx="-2081.52" cy="-1867.34" r="2.42" gradientTransform="translate(2716.58 -1992.49) rotate(-89.98)" xlink:href="#radial-gradient"/><radialGradient id="radial-gradient-7" cx="-2094.28" cy="-1912.25" r="2.21" gradientTransform="matrix(0, -1, 1, 0, 2763.87, -1958.4)" xlink:href="#radial-gradient"/><radialGradient id="radial-gradient-8" cx="-2011.08" cy="-1926.98" r="3.01" gradientTransform="translate(-750.86 -2205.3) rotate(-166.79)" xlink:href="#radial-gradient"/><radialGradient id="radial-gradient-9" cx="-2025.89" cy="-1995.83" r="2.91" gradientTransform="translate(2761.14 -1824.84) rotate(-89.99)" xlink:href="#radial-gradient"/><radialGradient id="radial-gradient-10" cx="-2050.77" cy="-1842.64" r="2.66" gradientTransform="translate(2666.85 -1993.48) rotate(-90)" xlink:href="#radial-gradient"/><radialGradient id="radial-gradient-11" cx="-1988.8" cy="-2001.6" r="1.45" gradientTransform="matrix(0, -1, 1, 0, 2728.52, -1791.58)" xlink:href="#radial-gradient"/><radialGradient id="radial-gradient-12" cx="-1998.9" cy="-2043.6" r="1.97" gradientTransform="translate(2770.85 -1758.38) rotate(-90.02)" xlink:href="#radial-gradient"/><radialGradient id="radial-gradient-13" cx="-2077.21" cy="-1947.89" r="2.27" gradientTransform="translate(2772.17 -1912.94) rotate(-90.05)" xlink:href="#radial-gradient"/><radialGradient id="radial-gradient-14" cx="-2052.75" cy="-1793.52" r="6.82" gradientTransform="translate(-750.86 -2205.3) rotate(-166.79)" xlink:href="#radial-gradient"/><radialGradient id="radial-gradient-15" cx="-1988.58" cy="-1939.94" r="1.96" gradientTransform="translate(2682.17 -1850.03) rotate(-89.98)" xlink:href="#radial-gradient"/><radialGradient id="radial-gradient-16" cx="-1998.35" cy="-1970.41" r="1.37" gradientTransform="translate(2713.74 -1829.3) rotate(-90.02)" xlink:href="#radial-gradient"/><radialGradient id="radial-gradient-17" cx="-2020.13" cy="-1801.33" r="4.42" gradientTransform="translate(2604.66 -2010.52) rotate(-90.02)" xlink:href="#radial-gradient"/><radialGradient id="radial-gradient-18" cx="-1997.22" cy="-1916.32" r="1.66" gradientTransform="matrix(0, -1, 1, 0, 2672.74, -1879.31)" xlink:href="#radial-gradient"/><radialGradient id="radial-gradient-19" cx="-1841.73" cy="-1996.38" r="4.46" gradientTransform="matrix(0, -1, 1, 0, 2582.14, -1682.38)" xlink:href="#radial-gradient"/><radialGradient id="radial-gradient-20" cx="-2042.96" cy="-1788.03" r="2.38" gradientTransform="translate(2617.75 -2040.08) rotate(-89.99)" xlink:href="#radial-gradient"/><radialGradient id="radial-gradient-21" cx="-1973.78" cy="-1938.13" r="1.66" gradientTransform="matrix(0, -1, 1, 0, 2665.61, -1841.09)" xlink:href="#radial-gradient"/><radialGradient id="radial-gradient-22" cx="-1966.04" cy="-2003.98" r="2.24" gradientTransform="translate(2709.44 -1770.46) rotate(-89.98)" xlink:href="#radial-gradient"/><radialGradient id="radial-gradient-23" cx="-1959.71" cy="-2058.58" r="1.82" gradientTransform="matrix(0, -1, 1, 0, 2744.05, -1713.8)" xlink:href="#radial-gradient"/><radialGradient id="radial-gradient-24" cx="-1590.02" cy="-2297.67" r="1.93" gradientTransform="translate(-858.77 -2052.85) rotate(179.99)" xlink:href="#radial-gradient"/><radialGradient id="radial-gradient-25" cx="-1625.6" cy="-2292.55" r="2.04" gradientTransform="matrix(-1, 0, 0, -1, -859.78, -2056.72)" xlink:href="#radial-gradient"/><radialGradient id="radial-gradient-26" cx="-1981.02" cy="-2079.02" r="1.45" gradientTransform="translate(2781.23 -1709.65) rotate(-90)" xlink:href="#radial-gradient"/><radialGradient id="radial-gradient-27" cx="-1567.07" cy="-2320.67" r="2.24" gradientTransform="matrix(-1, 0, 0, -1, -854.54, -2051.4)" xlink:href="#radial-gradient"/><radialGradient id="radial-gradient-28" cx="-1558.09" cy="-2339.25" r="2.14" gradientTransform="translate(-853.67 -2049.62) rotate(179.99)" xlink:href="#radial-gradient"/><radialGradient id="radial-gradient-29" cx="-1909.77" cy="-2065.12" r="1.89" gradientTransform="matrix(0, -1, 1, 0, 2700.62, -1668.79)" xlink:href="#radial-gradient"/><radialGradient id="radial-gradient-30" cx="-1447.44" cy="-2074.11" r="1.84" gradientTransform="translate(2258.28 -1302.48) rotate(-89.99)" xlink:href="#radial-gradient"/><radialGradient id="radial-gradient-31" cx="-1558.83" cy="-2308.13" r="2.03" gradientTransform="matrix(-1, 0, 0, -1, -856.57, -2049.94)" xlink:href="#radial-gradient"/><radialGradient id="radial-gradient-32" cx="-1904.65" cy="-2044.75" r="1.47" gradientTransform="matrix(0, -1, 1, 0, 2680.51, -1684.04)" xlink:href="#radial-gradient"/><radialGradient id="radial-gradient-33" cx="-1919.56" cy="-2043.88" r="1.41" gradientTransform="translate(2694.52 -1696.21) rotate(-90)" xlink:href="#radial-gradient"/><radialGradient id="radial-gradient-34" cx="-1965.47" cy="-2023.32" r="1.94" gradientTransform="translate(2723.82 -1751.17) rotate(-89.98)" xlink:href="#radial-gradient"/><radialGradient id="radial-gradient-35" cx="-1876.71" cy="-2008.6" r="1.61" gradientTransform="matrix(0, -1, 1, 0, 2625.92, -1697.14)" xlink:href="#radial-gradient"/><radialGradient id="radial-gradient-36" cx="-1505.6" cy="-2313.73" r="1.99" gradientTransform="translate(-855.36 -2044.06) rotate(-179.99)" xlink:href="#radial-gradient"/><radialGradient id="radial-gradient-37" cx="-1767.52" cy="-2097.31" r="1.46" gradientTransform="translate(2586.6 -1528.24) rotate(-90.03)" xlink:href="#radial-gradient"/><radialGradient id="radial-gradient-38" cx="-1625.04" cy="-2068.17" r="2.09" gradientTransform="translate(2426.95 -1444.83) rotate(-89.98)" xlink:href="#radial-gradient"/><radialGradient id="radial-gradient-39" cx="-1591.1" cy="-2151.79" r="2.16" gradientTransform="matrix(0, -1, 1, 0, 2457.96, -1337.82)" xlink:href="#radial-gradient"/><radialGradient id="radial-gradient-40" cx="-1615.81" cy="-2173.52" r="1.87" gradientTransform="translate(2497.94 -1336.85) rotate(-90.03)" xlink:href="#radial-gradient"/><radialGradient id="radial-gradient-41" cx="-2057.59" cy="-1869.73" r="1.56" gradientTransform="translate(2694.69 -1972.1) rotate(-89.99)" xlink:href="#radial-gradient"/><radialGradient id="radial-gradient-42" cx="1311.09" cy="-3089.61" r="1.75" gradientTransform="matrix(-1, 0, 0, -1, 1469.37, -2815.03)" xlink:href="#radial-gradient"/><radialGradient id="radial-gradient-43" cx="1253.06" cy="-3058.42" r="2.1" gradientTransform="translate(1422.1 -2848.25) rotate(-180)" xlink:href="#radial-gradient"/><radialGradient id="radial-gradient-44" cx="1222.31" cy="-3047.65" r="1.6" gradientTransform="translate(1401.05 -2868.55) rotate(-179.99)" xlink:href="#radial-gradient"/><radialGradient id="radial-gradient-45" cx="1278.41" cy="-3011.1" r="1.7" gradientTransform="translate(1394.05 -2808.11) rotate(-180)" xlink:href="#radial-gradient"/><radialGradient id="radial-gradient-46" cx="1268.44" cy="-2992.71" r="1.54" gradientTransform="matrix(-1, 0, 0, -1, 1373.4, -2809.23)" xlink:href="#radial-gradient"/><radialGradient id="radial-gradient-47" cx="1257.78" cy="-2993.93" r="1.72" gradientTransform="translate(1371.51 -2817.73) rotate(180)" xlink:href="#radial-gradient"/><radialGradient id="radial-gradient-48" cx="-2070.25" cy="-1883.33" r="2.48" gradientTransform="translate(2717.26 -1968.86) rotate(-90)" xlink:href="#radial-gradient"/><radialGradient id="radial-gradient-49" cx="-2035.45" cy="-1986.6" r="3.69" gradientTransform="translate(2763.18 -1841.35) rotate(-90)" xlink:href="#radial-gradient"/><radialGradient id="radial-gradient-50" cx="-2026.45" cy="-1948.73" r="6.18" gradientTransform="matrix(0, -1, 1, 0, 2725.03, -1871.43)" xlink:href="#radial-gradient"/><radialGradient id="radial-gradient-51" cx="-2072.96" cy="-1910.41" r="9.78" gradientTransform="translate(2740.91 -1944.47) rotate(-90)" xlink:href="#radial-gradient"/><radialGradient id="radial-gradient-52" cx="-2110.35" cy="-1966.38" r="2.72" gradientTransform="translate(-750.86 -2205.3) rotate(-166.79)" xlink:href="#radial-gradient"/><radialGradient id="radial-gradient-53" cx="-2074.63" cy="-1854.27" r="4.83" gradientTransform="translate(-750.86 -2205.3) rotate(-166.79)" xlink:href="#radial-gradient"/><radialGradient id="radial-gradient-54" cx="-1964.04" cy="-2005.53" r="1.93" gradientTransform="translate(2708.04 -1768.06) rotate(-90)" xlink:href="#radial-gradient"/><radialGradient id="radial-gradient-55" cx="-1589.04" cy="-2293.12" r="1.78" gradientTransform="matrix(-1, 0, 0, -1, -857.75, -2053.77)" xlink:href="#radial-gradient"/><radialGradient id="radial-gradient-56" cx="-1982.13" cy="-1952.78" r="1.84" gradientTransform="translate(2685.68 -1832.65) rotate(-89.98)" xlink:href="#radial-gradient"/><radialGradient id="radial-gradient-57" cx="-1948.86" cy="-2060.97" r="1.59" gradientTransform="translate(2736.59 -1701.79) rotate(-89.99)" xlink:href="#radial-gradient"/><radialGradient id="radial-gradient-58" cx="-1990.38" cy="-1983.12" r="2.33" gradientTransform="translate(2717.03 -1809.56) rotate(-89.99)" xlink:href="#radial-gradient"/><radialGradient id="radial-gradient-59" cx="-1990.38" cy="-2012.31" r="1.61" gradientTransform="matrix(0, -1, 1, 0, 2738.84, -1781.83)" xlink:href="#radial-gradient"/><radialGradient id="radial-gradient-60" cx="-1975.17" cy="-2067.62" r="2.44" gradientTransform="matrix(0, -1, 1, 0, 2766.79, -1716.18)" xlink:href="#radial-gradient"/><radialGradient id="radial-gradient-61" cx="-1719.43" cy="-2094.44" r="1.72" gradientTransform="translate(2538.49 -1492.85) rotate(-90)" xlink:href="#radial-gradient"/><radialGradient id="radial-gradient-62" cx="1246.03" cy="-3055.42" r="5.24" gradientTransform="translate(1415.91 -2853.05) rotate(179.99)" xlink:href="#radial-gradient"/><radialGradient id="radial-gradient-63" cx="-1559.48" cy="-2147.96" r="1.83" gradientTransform="translate(2423.98 -1317.5) rotate(-90.01)" xlink:href="#radial-gradient"/><radialGradient id="radial-gradient-64" cx="-1710.13" cy="-2119.78" r="2.26" gradientTransform="translate(2548.08 -1462.12) rotate(-90.03)" xlink:href="#radial-gradient"/><radialGradient id="radial-gradient-65" cx="-1820.25" cy="-2071.04" r="2.99" gradientTransform="translate(2618.38 -1593.62) rotate(-90.01)" xlink:href="#radial-gradient"/><radialGradient id="radial-gradient-66" cx="-1914.22" cy="-2050.52" r="2.27" gradientTransform="matrix(0, -1, 1, 0, 2694.15, -1685.93)" xlink:href="#radial-gradient"/><radialGradient id="radial-gradient-67" cx="1202.26" cy="-3043.37" r="8.89" gradientTransform="translate(1388.05 -2883.51) rotate(179.99)" xlink:href="#radial-gradient"/><radialGradient id="radial-gradient-68" cx="-2022.85" cy="-1891.09" r="1.96" gradientTransform="translate(2676.82 -1925.01) rotate(-90.01)" xlink:href="#radial-gradient"/><radialGradient id="radial-gradient-69" cx="1266.27" cy="-3097.75" r="1.93" gradientTransform="translate(1457.86 -2854.54) rotate(179.97)" xlink:href="#radial-gradient"/><radialGradient id="radial-gradient-70" cx="-1505.14" cy="-2146.02" r="3.96" gradientTransform="matrix(0, -1, 1, 0, 2369.39, -1277.76)" xlink:href="#radial-gradient"/><radialGradient id="radial-gradient-71" cx="-1569.06" cy="-2307.86" r="2.48" gradientTransform="translate(-1109.13 -1857.57) rotate(173.47)" xlink:href="#radial-gradient"/><radialGradient id="radial-gradient-72" cx="-1618.13" cy="-2301.51" r="2.14" gradientTransform="translate(-858.63 -2056) rotate(179.98)" xlink:href="#radial-gradient"/><radialGradient id="radial-gradient-73" cx="-1634.37" cy="-2326.32" r="2.48" gradientTransform="translate(-854.92 -2058.7) rotate(-179.99)" xlink:href="#radial-gradient"/><radialGradient id="radial-gradient-74" cx="-2209.97" cy="-954.72" r="2.07" gradientTransform="translate(1790.84 -1986.37) rotate(-90.04)" gradientUnits="userSpaceOnUse"><stop offset="0.74" stop-color="#000001"/><stop offset="0.79" stop-color="#000507"/><stop offset="0.85" stop-color="#001318"/><stop offset="0.89" stop-color="#002027"/><stop offset="0.9" stop-color="#00262e"/><stop offset="0.95" stop-color="#01515d"/><stop offset="1"/></radialGradient><radialGradient id="radial-gradient-75" cx="-2166.04" cy="-897.88" r="2.73" gradientTransform="translate(1742.77 -2013.36) rotate(-90)" xlink:href="#radial-gradient-74"/><radialGradient id="radial-gradient-76" cx="-2130.78" cy="-1007.84" r="16.01" gradientTransform="translate(1751.23 -1923.06) rotate(-90)" xlink:href="#radial-gradient-74"/><radialGradient id="radial-gradient-77" cx="-1939.31" cy="-1482.94" r="2.8" gradientTransform="translate(2225.99 -1675.09) rotate(-90.02)" xlink:href="#radial-gradient-74"/><radialGradient id="radial-gradient-78" cx="-2151.27" cy="-960.72" r="4.15" gradientTransform="translate(1751.72 -1963.31) rotate(-90)" xlink:href="#radial-gradient-74"/><radialGradient id="radial-gradient-79" cx="-2123.52" cy="-877.92" r="6.07" gradientTransform="translate(1705.63 -2014.77) rotate(-90.01)" xlink:href="#radial-gradient-74"/><radialGradient id="radial-gradient-80" cx="-2136.72" cy="-1073.23" r="3.56" gradientTransform="translate(1775.85 -1877.58) rotate(-90)" xlink:href="#radial-gradient-74"/><radialGradient id="radial-gradient-81" cx="-1917" cy="-1505.18" r="5.09" gradientTransform="translate(-424.39 -1878.75) rotate(-156)" xlink:href="#radial-gradient-74"/><radialGradient id="radial-gradient-82" cx="-2097.65" cy="-999.94" r="5.15" gradientTransform="translate(1725.1 -1918.43) rotate(-90)" xlink:href="#radial-gradient-74"/><radialGradient id="radial-gradient-83" cx="-2060.62" cy="-926.06" r="4.01" gradientTransform="translate(-98.55 -1993.73) rotate(-136.25)" xlink:href="#radial-gradient-74"/><radialGradient id="radial-gradient-84" cx="-1795.07" cy="-1403.06" r="8.51" gradientTransform="translate(1630.64 -1534.1) rotate(-90.01)" xlink:href="#radial-gradient-74"/><radialGradient id="radial-gradient-85" cx="-2066.38" cy="-890.12" r="7.49" gradientTransform="translate(-98.55 -1993.73) rotate(-136.25)" xlink:href="#radial-gradient-74"/><radialGradient id="radial-gradient-86" cx="-2146.9" cy="-962.87" r="7.23" gradientTransform="translate(1749.02 -1960.5) rotate(-90)" xlink:href="#radial-gradient-74"/><radialGradient id="radial-gradient-87" cx="-2065.72" cy="-1047.19" r="9.11" gradientTransform="translate(-98.55 -1993.73) rotate(-136.25)" xlink:href="#radial-gradient-74"/><radialGradient id="radial-gradient-88" cx="-2057.9" cy="-991.19" r="8.44" gradientTransform="translate(-98.55 -1993.73) rotate(-136.25)" xlink:href="#radial-gradient-74"/><radialGradient id="radial-gradient-89" cx="-2005.83" cy="-1154.29" r="3.96" gradientTransform="translate(1706.39 -1778.61) rotate(-90)" xlink:href="#radial-gradient-74"/><radialGradient id="radial-gradient-90" cx="124.93" cy="-3536.22" r="2.57" gradientTransform="matrix(-1, 0, 0, -1, 295.06, -3363.08)" xlink:href="#radial-gradient-74"/><radialGradient id="radial-gradient-91" cx="-1703.81" cy="-1354.62" r="2.56" gradientTransform="matrix(0, -1, 1, 0, 1550.02, -1540.75)" xlink:href="#radial-gradient-74"/><radialGradient id="radial-gradient-92" cx="-2102.38" cy="-1082.45" r="9.8" gradientTransform="translate(1753.57 -1860.5) rotate(-90.01)" xlink:href="#radial-gradient-74"/><radialGradient id="radial-gradient-93" cx="-2108.52" cy="-1023.66" r="8.33" gradientTransform="translate(1740.08 -1904.75) rotate(-90)" xlink:href="#radial-gradient-74"/><radialGradient id="radial-gradient-94" cx="-1682.44" cy="-1334.18" r="6.02" gradientTransform="translate(1528.47 -1548.77) rotate(-89.99)" xlink:href="#radial-gradient-74"/><radialGradient id="radial-gradient-95" cx="-1872.56" cy="-1379.34" r="1.85" gradientTransform="translate(1679.62 -1574.88) rotate(-89.99)" xlink:href="#radial-gradient-74"/><radialGradient id="radial-gradient-96" cx="-1799.86" cy="-1344.6" r="4.43" gradientTransform="translate(1616.22 -1577.68) rotate(-90)" xlink:href="#radial-gradient-74"/><radialGradient id="radial-gradient-97" cx="-1907.35" cy="-1042.29" r="3.18" gradientTransform="matrix(0, -1, 1, 0, 1600.2, -1829.42)" xlink:href="#radial-gradient-74"/><radialGradient id="radial-gradient-98" cx="-1859.21" cy="-1125.31" r="3.41" gradientTransform="translate(1591.86 -1754.14) rotate(-89.99)" xlink:href="#radial-gradient-74"/><radialGradient id="radial-gradient-99" cx="117.58" cy="-3511.08" r="5.15" gradientTransform="translate(286.71 -3363.84) rotate(-180)" xlink:href="#radial-gradient-74"/><radialGradient id="radial-gradient-100" cx="154.24" cy="-3564.37" r="9.78" gradientTransform="translate(310.86 -3353.61) rotate(180)" xlink:href="#radial-gradient-74"/><radialGradient id="radial-gradient-101" cx="160.35" cy="-3535.05" r="2.75" gradientTransform="translate(299.74 -3348.68) rotate(180)" xlink:href="#radial-gradient-74"/><radialGradient id="radial-gradient-102" cx="140.29" cy="-3528.01" r="8.76" gradientTransform="translate(294.69 -3356.17) rotate(179.99)" xlink:href="#radial-gradient-74"/><radialGradient id="radial-gradient-103" cx="166.15" cy="-3556.73" r="1.62" gradientTransform="translate(308.66 -3348.19) rotate(179.99)" xlink:href="#radial-gradient-74"/><radialGradient id="radial-gradient-104" cx="-1768.78" cy="-1292.15" r="13.53" gradientTransform="translate(1577.54 -1606.02) rotate(-90)" xlink:href="#radial-gradient-74"/><radialGradient id="radial-gradient-105" cx="-2033.05" cy="-1986.95" r="4.91" gradientTransform="matrix(0, -1, 1, 0, 2760.92, -1839.33)" gradientUnits="userSpaceOnUse"><stop offset="0.35" stop-color="#000001"/><stop offset="0.42" stop-color="#000507"/><stop offset="0.5" stop-color="#001318"/><stop offset="0.56" stop-color="#002027"/><stop offset="0.64" stop-color="#01515d"/><stop offset="0.66" stop-color="#014650"/><stop offset="0.72" stop-color="#012d33"/><stop offset="0.77" stop-color="#00191d"/><stop offset="0.83" stop-color="#000b0c"/><stop offset="0.9" stop-color="#000303"/><stop offset="0.99"/></radialGradient><radialGradient id="radial-gradient-106" cx="-2032.42" cy="-1915.42" r="3.7" gradientTransform="translate(2704.65 -1908.94) rotate(-90.02)" xlink:href="#radial-gradient-105"/><radialGradient id="radial-gradient-107" cx="-2049.54" cy="-1838.31" r="7.94" gradientTransform="translate(-750.86 -2205.3) rotate(-166.79)" xlink:href="#radial-gradient-105"/><radialGradient id="radial-gradient-108" cx="-1999.35" cy="-1967.05" r="4.79" gradientTransform="translate(2712.5 -1832.98) rotate(-90.01)" xlink:href="#radial-gradient-105"/><radialGradient id="radial-gradient-109" cx="-1990.35" cy="-2000.26" r="4.67" gradientTransform="matrix(0, -1, 1, 0, 2729.77, -1793.29)" xlink:href="#radial-gradient-105"/><radialGradient id="radial-gradient-110" cx="-2005.75" cy="-1915.27" r="1.29" gradientTransform="translate(2677.86 -1889.2) rotate(-90.04)" xlink:href="#radial-gradient-105"/><radialGradient id="radial-gradient-111" cx="-1970.8" cy="-2043.24" r="11.71" gradientTransform="translate(-750.86 -2205.3) rotate(-166.79)" xlink:href="#radial-gradient-105"/><radialGradient id="radial-gradient-112" cx="-2023.03" cy="-2035.68" r="1.53" gradientTransform="translate(2789.05 -1783.88) rotate(-89.99)" xlink:href="#radial-gradient-105"/><radialGradient id="radial-gradient-113" cx="-1990.4" cy="-1928.99" r="1.77" gradientTransform="translate(2674.56 -1863) rotate(-90.01)" xlink:href="#radial-gradient-105"/><radialGradient id="radial-gradient-114" cx="-1951.87" cy="-1922.31" r="1.34" gradientTransform="translate(2630.76 -1840.9) rotate(-90.04)" xlink:href="#radial-gradient-105"/><radialGradient id="radial-gradient-115" cx="-1956.76" cy="-1988.95" r="2.89" gradientTransform="matrix(0, -1, 1, 0, 2688.85, -1777.88)" xlink:href="#radial-gradient-105"/><radialGradient id="radial-gradient-116" cx="-1952.67" cy="-2047.41" r="1.79" gradientTransform="matrix(0, -1, 1, 0, 2728.6, -1719.23)" xlink:href="#radial-gradient-105"/><radialGradient id="radial-gradient-117" cx="-1881.84" cy="-2045.57" r="3.17" gradientTransform="translate(2658.87 -1665.72) rotate(-90)" xlink:href="#radial-gradient-105"/><radialGradient id="radial-gradient-118" cx="-1982.97" cy="-2028.59" r="3.48" gradientTransform="translate(2744.24 -1760.22) rotate(-90)" xlink:href="#radial-gradient-105"/><radialGradient id="radial-gradient-119" cx="-1993.82" cy="-2061.29" r="2" gradientTransform="matrix(0, -1, 1, 0, 2779.71, -1737.09)" xlink:href="#radial-gradient-105"/><radialGradient id="radial-gradient-120" cx="-1999.3" cy="-2029.52" r="3.2" gradientTransform="translate(2760.98 -1771.79) rotate(-90)" xlink:href="#radial-gradient-105"/><radialGradient id="radial-gradient-121" cx="-1933.6" cy="-1963.78" r="2.14" gradientTransform="translate(2645.69 -1785.72) rotate(-90.02)" xlink:href="#radial-gradient-105"/><radialGradient id="radial-gradient-122" cx="-1915.12" cy="-2044.76" r="5.06" gradientTransform="translate(2690.77 -1692.03) rotate(-90)" xlink:href="#radial-gradient-105"/><radialGradient id="radial-gradient-123" cx="-1692.38" cy="-2143.93" r="4.05" gradientTransform="translate(2550.33 -1423.8) rotate(-90)" xlink:href="#radial-gradient-105"/><radialGradient id="radial-gradient-124" cx="-1506.32" cy="-2120.91" r="2.14" gradientTransform="matrix(0, -1, 1, 0, 2351.26, -1302.98)" xlink:href="#radial-gradient-105"/><radialGradient id="radial-gradient-125" cx="1227.24" cy="-3052.94" r="1.91" gradientTransform="translate(1404.42 -2867.93) rotate(179.96)" xlink:href="#radial-gradient-105"/><radialGradient id="radial-gradient-126" cx="-1483.1" cy="-2099.78" r="4.68" gradientTransform="matrix(0, -1, 1, 0, 2312.13, -1305.96)" xlink:href="#radial-gradient-105"/><radialGradient id="radial-gradient-127" cx="-1954.72" cy="-2073.02" r="1.82" gradientTransform="translate(2749.85 -1696.41) rotate(-90.04)" xlink:href="#radial-gradient-105"/><radialGradient id="radial-gradient-128" cx="-1935.66" cy="-2075.2" r="1.52" gradientTransform="translate(2734.99 -1677.45) rotate(-89.98)" xlink:href="#radial-gradient-105"/><radialGradient id="radial-gradient-129" cx="-1559.16" cy="-2127.63" r="2.92" gradientTransform="translate(2407.95 -1337.09) rotate(-90.01)" xlink:href="#radial-gradient-105"/><radialGradient id="radial-gradient-130" cx="1294.91" cy="-3091.29" r="1.64" gradientTransform="translate(1464.97 -2828.45) rotate(179.98)" xlink:href="#radial-gradient-105"/><radialGradient id="radial-gradient-131" cx="1251.98" cy="-2999.17" r="2.71" gradientTransform="translate(1373.75 -2824.44) rotate(-179.99)" xlink:href="#radial-gradient-105"/><radialGradient id="radial-gradient-132" cx="1287.37" cy="-3078.59" r="2.11" gradientTransform="translate(1452.98 -2828.68) rotate(-179.99)" xlink:href="#radial-gradient-105"/><radialGradient id="radial-gradient-133" cx="-1621.51" cy="-2457.77" r="3.32" gradientTransform="translate(2625.84 -1460.55) rotate(-89.99)" xlink:href="#radial-gradient-105"/><radialGradient id="radial-gradient-134" cx="-933.32" cy="291.41" r="2.9" gradientTransform="matrix(1, 0, 0, 1, 1123.44, -155.99)" xlink:href="#radial-gradient-105"/><radialGradient id="radial-gradient-135" cx="-987.12" cy="753.37" r="1.65" gradientTransform="translate(1628.59 -504.9)" xlink:href="#radial-gradient-105"/><radialGradient id="radial-gradient-136" cx="-942.9" cy="732.43" r="3.84" gradientTransform="translate(1569 -530.86) rotate(-0.02)" xlink:href="#radial-gradient-105"/><radialGradient id="radial-gradient-137" cx="-961.89" cy="559.1" r="5.11" gradientTransform="translate(1413.95 -360.57)" xlink:href="#radial-gradient-105"/><radialGradient id="radial-gradient-138" cx="-987.6" cy="771.12" r="1.67" gradientTransform="translate(1646.78 -519.67) rotate(0.02)" xlink:href="#radial-gradient-105"/><radialGradient id="radial-gradient-139" cx="-1195.11" cy="346.17" r="4.48" gradientTransform="translate(330.41 -922.46) rotate(-89.99)" xlink:href="#radial-gradient-105"/><radialGradient id="radial-gradient-140" cx="-1625.57" cy="-2490.09" r="1.45" gradientTransform="translate(2644.93 -1435.52) rotate(-90.01)" xlink:href="#radial-gradient-105"/><radialGradient id="radial-gradient-141" cx="-951.31" cy="769.03" r="1.71" gradientTransform="translate(1612.37 -554.73) rotate(-0.04)" xlink:href="#radial-gradient-105"/><radialGradient id="radial-gradient-142" cx="-861.3" cy="757.96" r="1.78" gradientTransform="matrix(1, 0, 0, 1, 1523.55, -633.6)" xlink:href="#radial-gradient-105"/><radialGradient id="radial-gradient-143" cx="-899.09" cy="322.16" r="2.97" gradientTransform="matrix(1, 0, 0, 1, 1124.18, -216.44)" xlink:href="#radial-gradient-105"/><radialGradient id="radial-gradient-144" cx="-896.82" cy="278.84" r="2.03" gradientTransform="translate(1079.34 -180.65) rotate(0.02)" xlink:href="#radial-gradient-105"/><radialGradient id="radial-gradient-145" cx="-1580.86" cy="-2459.24" r="3.05" gradientTransform="translate(2590.6 -1440.08) rotate(-90.01)" xlink:href="#radial-gradient-105"/><radialGradient id="radial-gradient-146" cx="-959.97" cy="409.11" r="3.56" gradientTransform="translate(1263.62 -231.52) rotate(0.02)" xlink:href="#radial-gradient-105"/><radialGradient id="radial-gradient-147" cx="-1017.67" cy="362.71" r="1.97" gradientTransform="translate(21.08 -827.26) rotate(-82.62)" xlink:href="#radial-gradient-105"/><radialGradient id="radial-gradient-148" cx="-1019.98" cy="438.37" r="4.34" gradientTransform="translate(1344.92 -197.54) rotate(0.02)" xlink:href="#radial-gradient-105"/><radialGradient id="radial-gradient-149" cx="-855.69" cy="338.14" r="2.72" gradientTransform="matrix(1, 0, 0, 1, 1102.22, -273.36)" xlink:href="#radial-gradient-105"/><radialGradient id="radial-gradient-150" cx="-1578.4" cy="-2421.13" r="4.87" gradientTransform="translate(2569.6 -1471.51) rotate(-90.01)" xlink:href="#radial-gradient-105"/><radialGradient id="radial-gradient-151" cx="-1592.5" cy="-2486.86" r="3.4" gradientTransform="matrix(0, -1, 1, 0, 2614.13, -1422.58)" xlink:href="#radial-gradient-105"/><radialGradient id="radial-gradient-152" cx="-1591.13" cy="-2471.9" r="2.37" gradientTransform="translate(2607.24 -1432.07) rotate(-89.96)" xlink:href="#radial-gradient-105"/><radialGradient id="radial-gradient-153" cx="-1609.31" cy="-2476.11" r="1.52" gradientTransform="matrix(0, -1, 1, 0, 2625.54, -1436.87)" xlink:href="#radial-gradient-105"/><radialGradient id="radial-gradient-154" cx="-834.58" cy="820.84" r="4.8" gradientTransform="translate(1562.39 -715.15) rotate(-0.01)" xlink:href="#radial-gradient-105"/><radialGradient id="radial-gradient-155" cx="-1616.59" cy="-2452.09" r="1.89" gradientTransform="translate(2617.1 -1465.48) rotate(-90.05)" xlink:href="#radial-gradient-105"/><radialGradient id="radial-gradient-156" cx="-1606.71" cy="-2457.51" r="1.48" gradientTransform="translate(2612.51 -1453.93) rotate(-90)" xlink:href="#radial-gradient-105"/><radialGradient id="radial-gradient-157" cx="-1611.33" cy="-2484.11" r="3.42" gradientTransform="translate(2629.48 -1433.75) rotate(-90.01)" xlink:href="#radial-gradient-105"/><radialGradient id="radial-gradient-158" cx="-1587.19" cy="-2488.12" r="2.41" gradientTransform="matrix(0, -1, 1, 0, 2609.91, -1419.22)" xlink:href="#radial-gradient-105"/><radialGradient id="radial-gradient-159" cx="-1506.91" cy="-2464.76" r="2.57" gradientTransform="translate(2529.87 -1397.34) rotate(-89.99)" xlink:href="#radial-gradient-105"/><radialGradient id="radial-gradient-160" cx="-1562.58" cy="-2428.61" r="1.24" gradientTransform="matrix(0, -1, 1, 0, 2559.14, -1457.88)" xlink:href="#radial-gradient-105"/><radialGradient id="radial-gradient-161" cx="-1594.79" cy="-2476.9" r="2.27" gradientTransform="translate(2612.3 -1430.52) rotate(-89.99)" xlink:href="#radial-gradient-105"/><radialGradient id="radial-gradient-162" cx="-1562.14" cy="-2471.88" r="2.09" gradientTransform="translate(2580.96 -1419.35) rotate(-90.01)" xlink:href="#radial-gradient-105"/><radialGradient id="radial-gradient-163" cx="-1584.92" cy="-2491.81" r="4.18" gradientTransform="translate(2610.95 -1413.06) rotate(-90)" xlink:href="#radial-gradient-105"/><radialGradient id="radial-gradient-164" cx="-1607.29" cy="-2498.38" r="6.85" gradientTransform="matrix(0, -1, 1, 0, 2633.33, -1419.05)" xlink:href="#radial-gradient-105"/><radialGradient id="radial-gradient-165" cx="-1541.87" cy="-2498.3" r="5.62" gradientTransform="translate(2576.81 -1386.02) rotate(-90)" xlink:href="#radial-gradient-105"/></defs><title>graph</title><g class="cls-2"><g id="Layer_2" data-name="Layer 2"><g id="Layer_1-2" data-name="Layer 1"><g class="cls-3"><path class="cls-4" d="M986.76,228.47l-10-105.15a1.52,1.52,0,1,0-1.68-.87l-40.23,23.14a1.5,1.5,0,0,0-2.72.74l-126.43,1.25a1.51,1.51,0,0,0-2.92-.33L663.48,113.63a1.51,1.51,0,1,0-3-.24l-92.65,7.22a1.51,1.51,0,1,0-3,.58l-41.36,13.17a1.51,1.51,0,0,0-2.87.32L418,126a1.51,1.51,0,0,0-3,0,1.48,1.48,0,0,0,0,.17L332.67,144.4a1.51,1.51,0,0,0-2.91.17L303.43,142a1.51,1.51,0,0,0-3-.12l-71.49,1.54a1.51,1.51,0,1,0-2.74,1.05l-81.52,70.35a1.51,1.51,0,1,0,.46,1.27l32.85.29a1.51,1.51,0,0,0,3,.07l29.13,1.16a1.51,1.51,0,0,0,3,.23L313.9,229.65v0a1.51,1.51,0,0,0,2.92.55L494.56,279a1.51,1.51,0,0,0,3,.58l96,11.64v0a1.51,1.51,0,1,0,3,0,1.5,1.5,0,0,0-.09-.5l98.63-46.52a1.51,1.51,0,0,0,2.66-.16L809,281.38a1.51,1.51,0,1,0,3,.52l121.57,2.61a1.51,1.51,0,1,0,2.65-1.1l49.61-52.22a1.51,1.51,0,1,0,.93-2.71ZM144.87,215l81.52-70.35.07.06-46.3,70.13a1.49,1.49,0,0,0-2.19,1.17l-32.85-.29A1.5,1.5,0,0,0,144.87,215Zm351.18,62.7a1.51,1.51,0,0,0-.33,0l-19-56.63-4.29-12.83a1.46,1.46,0,0,0,.86-1.6L549.11,187a1.51,1.51,0,0,0,.52.68l-52.95,90.2A1.5,1.5,0,0,0,496.05,277.74Zm374.68-95.17-34.82,10a1.51,1.51,0,0,0-1.4-.94,1.5,1.5,0,0,0-.7.18l-28.6-42.94a1.51,1.51,0,0,0,.3-.34l65.29,33.19a1.41,1.41,0,0,0-.08.8Zm-59.3,97.94,60.13-96.84a1.49,1.49,0,0,0,1.89-.48l21.84,12.35,28.15,15.92a1.48,1.48,0,0,0,0,1.25L811.7,280.79A1.52,1.52,0,0,0,811.43,280.51Zm121-133.14a1.51,1.51,0,0,0,.86.57l-8.44,62.61h0a1.51,1.51,0,0,0-1.23.64l-50-28.28a1.49,1.49,0,0,0,0-1.22l43.71-25.49ZM833,193.16s0,0,0,0a1.5,1.5,0,0,0,0,.36L697.76,242.8a1.51,1.51,0,0,0-1.17-.83l.83-45.8.34-19.07a1.51,1.51,0,0,0,1.34-1.15l88.36,11.36Zm-516.16,36L428.2,174.8a1.51,1.51,0,0,0,2.37.25l40,31.11a1.5,1.5,0,0,0-.23.8s0,0,0,.06L316.88,229.29Zm232.82-43.92a1.45,1.45,0,0,0-.63,1.46l-75.77,19.72a1.51,1.51,0,0,0-.42-.61L485,188.36l36.37-52.08a1.48,1.48,0,0,0,1.31.08l.38.7ZM520.8,135.69a1.51,1.51,0,0,0,.33.41l-48.56,69.53a1.49,1.49,0,0,0-1.82.27l-40-31.11a1.44,1.44,0,0,0,.16-1.23l18.69-7.87ZM331.13,146.38h.12a1.51,1.51,0,0,0,1.4-.93L428,173.72a1.41,1.41,0,0,0,.07.79L322.94,225.82l-6.24,3a1.51,1.51,0,0,0-.85-.64L325,179ZM552,186.2a1.51,1.51,0,0,0-1-1.15l15.13-62.68.2,0a1.51,1.51,0,0,0,1.32-.79l128.52,53.56a1.49,1.49,0,0,0-.06.38l-2,.15Zm282.26,8.48.24,0a1.5,1.5,0,0,0,1.49-1.78l5.52-1.59,29.3-8.45a1.51,1.51,0,0,0,.47.62l-60.13,96.84-.11,0,21.7-80Zm92,17.65a1.49,1.49,0,0,0-1.13-1.73l6.43-47.69,2-14.92h0a1.5,1.5,0,0,0,.67-.16l34.95,55,16.52,26a1.51,1.51,0,0,0-.46.61l-27.27-7.89Zm6-65.24-39.93,23.28-18.93,11a1.51,1.51,0,0,0-2.48.07l-65.29-33.19a1.5,1.5,0,0,0,.09-.39l126.43-1.25A1.5,1.5,0,0,0,932.29,147.1Zm-129.46,1.19a1.49,1.49,0,0,0,2.11.8L833.54,192a1.51,1.51,0,0,0-.51.81l-108.74-14-25.15-3.23s0,0,0,0a1.5,1.5,0,0,0,0-.22L746.39,163ZM662,114.95a1.5,1.5,0,0,0,.61-.13l16.47,28.73,17.68,30.83a1.52,1.52,0,0,0-.44.5L567.79,121.31a1.5,1.5,0,0,0,.06-.39l92.65-7.22A1.51,1.51,0,0,0,662,114.95ZM520.68,135.39,430.8,173.26a1.51,1.51,0,0,0-1.32-.79l-.24,0L417,127.41a1.51,1.51,0,0,0,.94-1.12L520.61,135A1.5,1.5,0,0,0,520.68,135.39ZM330.81,146.32l-15.28,81.84h-.19l-13-84.7a1.51,1.51,0,0,0,1.1-1.15l26.33,2.59A1.51,1.51,0,0,0,330.81,146.32Zm-30.15-3.48L233,199.44l-20.31,17a1.51,1.51,0,0,0-.58-.35l15.2-71,.16,0a1.51,1.51,0,0,0,1.5-1.39l71.49-1.54A1.5,1.5,0,0,0,300.66,142.84ZM180.43,215.06l46.3-70.13.22.09-8.75,40.85L211.76,216l-.16,0a1.51,1.51,0,0,0-1.49,1.3L181,216.13A1.5,1.5,0,0,0,180.43,215.06ZM552,186.87a1.5,1.5,0,0,0,.05-.35l58.5-4.33,85.62-6.33a1.51,1.51,0,0,0,1.3,1.23L696.28,242a1.5,1.5,0,0,0-1.21.81L557.38,189Zm259.89,94.19,25.65-15.62L923.63,213a1.51,1.51,0,0,0,1.2.6h.05l9.82,69.34a1.51,1.51,0,0,0-1.13,1.27L812,281.58A1.5,1.5,0,0,0,811.87,281.06Zm123.2,1.81H935l-9.82-69.34a1.51,1.51,0,0,0,1-.89l59,17.08a1.45,1.45,0,0,0,.34,1.24L936,283.18A1.5,1.5,0,0,0,935.07,282.86Zm40.21-160.14a1.51,1.51,0,0,0,1.2.63l10,105.15a1.49,1.49,0,0,0-.37.13l-51.47-81a1.49,1.49,0,0,0,.44-1.79ZM802.75,147.56a1.05,1.05,0,0,0,0,.42l-53.53,14L699,175.06a1.5,1.5,0,0,0-2-.85l-34.15-59.55a1.51,1.51,0,0,0,.54-.72ZM565,121.49a1.51,1.51,0,0,0,.88.81L550.72,185l-.2,0a1.51,1.51,0,0,0-.59.12L523,136.2a1.51,1.51,0,0,0,.65-1.24,1.53,1.53,0,0,0,0-.3Zm-150,5a1.51,1.51,0,0,0,1.43,1l.24,0,11.77,43.35.47,1.75a1.52,1.52,0,0,0-.85.83l-95.35-28.26a1.51,1.51,0,0,0,0-.27,1.49,1.49,0,0,0,0-.17Zm-201.9,91v0a1.51,1.51,0,0,0-.26-.84l88-73.58a1.51,1.51,0,0,0,1.05.43H302l3.1,20.16L315,228.21a1.51,1.51,0,0,0-1.09,1.13Zm103.8,12.39a1.51,1.51,0,0,0,0-.24s0,0,0-.06l153.46-22.29a1.5,1.5,0,0,0,1.79,1.1l23.25,69.46a1.51,1.51,0,0,0-.78.82Zm180.66,49.37v0a1.51,1.51,0,0,0-.62-1.21l2.48-4.23,50.47-86a1.43,1.43,0,0,0,1.06.06l43.37,102a1.51,1.51,0,0,0-.74,1Zm98.79,11.2a1.47,1.47,0,0,0-1.73-.66l-43.37-102a1.51,1.51,0,0,0,.61-.62l21.06,8.23,122,47.67a1.39,1.39,0,0,0,0,.89Zm101.53-46.69a1.4,1.4,0,0,0,0-.69l135.28-49.24a1.51,1.51,0,0,0,.81.74l-23.22,85.61-.24,0a1.51,1.51,0,0,0-1.37.88Z"/><path class="cls-4" d="M937,220.55,926,103.9a1.68,1.68,0,1,0-1.87-1L879.5,128.6a1.67,1.67,0,0,0-3,.82l-140.26,1.39a1.67,1.67,0,0,0-3.24-.37L578.4,93.14a1.65,1.65,0,0,0,0-.22,1.68,1.68,0,0,0-3.35,0l-102.78,8a1.68,1.68,0,1,0-3.29.64l-45.88,14.61a1.68,1.68,0,0,0-3.18.36L306,106.83a1.68,1.68,0,1,0-3.34.22L211.4,127.28a1.67,1.67,0,0,0-3.23.19L179,124.6a1.67,1.67,0,0,0-3.34-.13l-79.31,1.7a1.68,1.68,0,1,0-3,1.17l-90.44,78a1.68,1.68,0,1,0,.51,1.41l36.45.33a1.67,1.67,0,0,0,3.32.08l32.31,1.29a1.67,1.67,0,0,0,3.3.26l111.86,13.1v0a1.68,1.68,0,0,0,3.24.61L391,276.62a1.68,1.68,0,0,0,3.29.65l106.53,12.92v0a1.68,1.68,0,0,0,3.36,0,1.66,1.66,0,0,0-.1-.55L613.5,238a1.67,1.67,0,0,0,3-.17l123.41,41.37a1.67,1.67,0,1,0,3.3.57L878,282.71a1.67,1.67,0,1,0,2.94-1.22l55-57.93a1.68,1.68,0,1,0,1-3Zm-934-14.9,90.44-78,.08.07-51.37,77.8a1.66,1.66,0,0,0-2.43,1.29l-36.45-.33A1.67,1.67,0,0,0,3.06,205.65ZM470.42,102.85l.22,0a1.67,1.67,0,0,0,1.47-.88l122.61,51.1,20,8.32a1.66,1.66,0,0,0-.07.42l-7.53.56L454.73,173.66a1.67,1.67,0,0,0-1.09-1.28l.89-3.69Zm337.89,66.79-38.63,11.14a1.68,1.68,0,0,0-1.55-1,1.66,1.66,0,0,0-.77.2l-31.73-47.64a1.68,1.68,0,0,0,.34-.37l72.43,36.82a1.56,1.56,0,0,0-.09.89Zm-73.76-36.95a1.66,1.66,0,0,0,.77-.2l31.73,47.64a1.67,1.67,0,0,0-.56.9L618,161.92s0,0,0,0a1.66,1.66,0,0,0,0-.25L733,131.6A1.68,1.68,0,0,0,734.56,132.69Zm143.18-1.47-1.35,10-8,59.46h0a1.67,1.67,0,0,0-1.36.7L811.5,170a1.66,1.66,0,0,0,0-1.36l65.3-38.08A1.67,1.67,0,0,0,877.74,131.21ZM870,202.64a1.65,1.65,0,0,0-1.25-1.92l.83-6.17,8.54-63.29h0a1.66,1.66,0,0,0,.74-.18L936,220.92a1.68,1.68,0,0,0-.51.67l-14.24-4.12ZM392.65,275.21a1.68,1.68,0,0,0-.36,0l-25.8-77.06a1.61,1.61,0,0,0,1-1.77l84.06-21.88a1.68,1.68,0,0,0,.57.76L393.34,275.36A1.67,1.67,0,0,0,392.65,275.21Zm-28.53-78.48L193.88,221.46l0-.16L317.38,161a1.67,1.67,0,0,0,2.63.27l44.37,34.51a1.66,1.66,0,0,0-.26.88S364.12,196.71,364.12,196.74Zm-154.3-67.25a1.68,1.68,0,0,0,1.55-1l105.78,31.35a1.56,1.56,0,0,0,.08.88L285.3,176.26,193.68,221a1.67,1.67,0,0,0-.94-.71l6.63-35.52,10.32-55.28Zm210.66-11.42L366.6,195.21a1.65,1.65,0,0,0-2,.3L320.22,161a1.6,1.6,0,0,0,.18-1.37l99.71-42A1.68,1.68,0,0,0,420.48,118.07ZM451.4,174a1.66,1.66,0,0,0,0,.25l-84.06,21.88a1.67,1.67,0,0,0-.47-.67l53.88-77.14a1.65,1.65,0,0,0,1.46.08l29.89,54.22A1.68,1.68,0,0,0,451.4,174Zm163.73,61.56,1.3-72a1.67,1.67,0,0,0,1.48-1.28l148.54,19.1s0,0,0,0a1.67,1.67,0,0,0,.05.4L616.43,236.44A1.67,1.67,0,0,0,615.13,235.52Zm127.69,43.07a1.68,1.68,0,0,0-.3-.3l66.71-107.44a1.66,1.66,0,0,0,2.09-.53l55.46,31.37a1.65,1.65,0,0,0,0,1.38l-61.55,37.49ZM876.61,130.27l-65.3,38.08a1.67,1.67,0,0,0-2.76.08l-66.2-33.65-6.24-3.17a1.67,1.67,0,0,0,.1-.44l140.26-1.39A1.67,1.67,0,0,0,876.61,130.27ZM576.74,94.61a1.67,1.67,0,0,0,.68-.14l37.88,66.07a1.68,1.68,0,0,0-.48.55L472.24,101.67a1.66,1.66,0,0,0,.07-.43l102.78-8A1.68,1.68,0,0,0,576.74,94.61ZM420,117.29l-99.71,42a1.67,1.67,0,0,0-1.46-.87l-.27,0-13.59-50a1.68,1.68,0,0,0,1-1.25l113.92,9.66A1.66,1.66,0,0,0,420,117.29ZM209.34,129.41l-17,90.79h-.21l-5.68-36.87-8.79-57.1a1.68,1.68,0,0,0,1.22-1.28l29.22,2.87A1.67,1.67,0,0,0,209.34,129.41Zm-33.45-3.86L82.17,203.91l-3.92,3.28a1.67,1.67,0,0,0-.65-.38l6.21-29,10.66-49.76.18,0a1.67,1.67,0,0,0,1.67-1.54l79.31-1.7A1.67,1.67,0,0,0,175.89,125.55ZM42.51,205.68l51.37-77.8.25.1L77.26,206.72l-.18,0a1.67,1.67,0,0,0-1.65,1.44l-32.31-1.29A1.67,1.67,0,0,0,42.51,205.68ZM454.69,174.4a1.67,1.67,0,0,0,.06-.39l159.88-11.82a1.67,1.67,0,0,0,1.44,1.36l-.28,15.72-1,56.25a1.67,1.67,0,0,0-1.34.9L501.73,192.77Zm313.17,8.67.26,0a1.66,1.66,0,0,0,1.65-2L808.41,170a1.68,1.68,0,0,0,.53.69L742.23,278.1l-.12-.05,14.16-52.22ZM743,278.89l29.19-17.78L867,203.37a1.67,1.67,0,0,0,1.33.66h.06l10.9,76.92a1.67,1.67,0,0,0-1.25,1.41l-134.87-2.9A1.66,1.66,0,0,0,743,278.89Zm136.68,2h-.06l-7.93-56-3-20.91a1.68,1.68,0,0,0,1.14-1l65.49,19a1.61,1.61,0,0,0,.38,1.38l-55,57.93A1.66,1.66,0,0,0,879.69,280.89ZM924.3,103.24a1.67,1.67,0,0,0,1.34.69l11,116.65a1.66,1.66,0,0,0-.41.15l-57.09-89.84a1.66,1.66,0,0,0,.49-2ZM732.9,130.79a1.17,1.17,0,0,0,0,.47l-115.05,30a1.67,1.67,0,0,0-2.24-.94L577.73,94.28a1.68,1.68,0,0,0,.59-.79ZM469.1,101.86a1.68,1.68,0,0,0,1,.9L453.3,172.3l-.22,0a1.67,1.67,0,0,0-.65.13L432.69,136.6l-10.15-18.41a1.68,1.68,0,0,0,.69-1.71ZM302.75,107.4a1.67,1.67,0,0,0,1.59,1.15l.27,0,13.59,50a1.68,1.68,0,0,0-.94.92L211.47,128.12a1.67,1.67,0,0,0,0-.3,1.65,1.65,0,0,0,0-.19Zm-224,101v0a1.67,1.67,0,0,0-.28-.94l97.64-81.63a1.67,1.67,0,0,0,1.17.47h.08l14.47,94a1.68,1.68,0,0,0-1.21,1.25Zm115.15,13.74a1.67,1.67,0,0,0,0-.27s0,0,0-.06l170.24-24.72a1.66,1.66,0,0,0,2,1.22L392,275.37a1.68,1.68,0,0,0-.86.91Zm200.42,54.77v0a1.67,1.67,0,0,0-.68-1.35l58.74-100.06a1.59,1.59,0,0,0,1.18.07l48.12,113.19a1.67,1.67,0,0,0-.82,1.08Zm109.6,12.42a1.63,1.63,0,0,0-1.92-.73L453.89,175.42a1.68,1.68,0,0,0,.67-.69l84.11,32.86,74.64,29.16a1.54,1.54,0,0,0,0,1Zm112.64-51.8a1.56,1.56,0,0,0,0-.77l60.54-22,89.54-32.59a1.68,1.68,0,0,0,.9.83l-14,51.53L741.76,278l-.26,0a1.68,1.68,0,0,0-1.52,1Z"/><path class="cls-5" d="M745.74,192.12a1.09,1.09,0,0,0-1.07,1l-23.85-.21a1.08,1.08,0,0,0-2.14-.05L697.52,192a1.08,1.08,0,0,0-2.13-.17l-73.16-8.57h0a1.09,1.09,0,0,0-2.12-.4l-128.94-35.4a1,1,0,0,0,0-.17,1.1,1.1,0,0,0-1.1-1.1,1.08,1.08,0,0,0-1,.85l-69.67-8.45v0a1.1,1.1,0,1,0-2.2,0,1.08,1.08,0,0,0,.07.36l-71.56,33.75a1.08,1.08,0,0,0-.92-.54,1.09,1.09,0,0,0-1,.64l-80.71-27.05a1,1,0,0,0,0-.23,1.1,1.1,0,0,0-1.1-1.1,1.09,1.09,0,0,0-1.07,1l-88.2-1.89a1.09,1.09,0,1,0-1.91.79l-36,37.89a1.07,1.07,0,0,0-.66-.24,1.1,1.1,0,0,0,0,2.19l7.23,76.29a1.08,1.08,0,0,0-.88,1.05,1.1,1.1,0,1,0,2.1-.44l29.19-16.79a1.07,1.07,0,0,0,1.95-.53l91.72-.91a1.08,1.08,0,0,0,2.1.24L368.69,267.4a1,1,0,0,0,0,.14,1.1,1.1,0,0,0,2.19,0l67.22-5.24a1.08,1.08,0,0,0,1.06.9,1.1,1.1,0,0,0,1.1-1.1,1,1,0,0,0,0-.21l30-9.56a1.1,1.1,0,0,0,1,.66,1.08,1.08,0,0,0,1.06-.89l74.5,6.32a1.1,1.1,0,0,0,2.19,0,1,1,0,0,0,0-.12l59.69-13.23a1.07,1.07,0,0,0,2.08-.13l19.12,1.88a1.09,1.09,0,0,0,2.18.08l51.88-1.11a1.09,1.09,0,0,0,1.07,1,1.1,1.1,0,0,0,1.1-1.1,1.07,1.07,0,0,0-.21-.61L745,194a1.1,1.1,0,1,0,.75-1.89ZM547.46,257.41a1.08,1.08,0,0,0-.66.81l-74.5-6.32a1.07,1.07,0,0,0-.06-.29l65.22-27.48a1.08,1.08,0,0,0,.95.57,1,1,0,0,0,.17,0l4.67,17.19Zm62.19-13.77a1.1,1.1,0,0,0-1,.68l-69.18-20.5a1,1,0,0,0,0-.19,1.08,1.08,0,0,0-.07-.37l80.79-39.44a1.07,1.07,0,0,0,.6.46l-9,48.08-2.11,11.3Zm10.46-60L606.93,190l-67.61,33a1.07,1.07,0,0,0-1.7-.19l-.06,0-29-22.53a1.07,1.07,0,0,0,.18-.57s0,0,0,0L620.09,183.5S620.1,183.57,620.11,183.61ZM489.67,148.26a1.08,1.08,0,0,0,.45.1,1,1,0,0,0,.23,0l16.87,50.4a1.09,1.09,0,0,0-.64,1,1,1,0,0,0,0,.16l-14.12,3.67-40.86,10.64a1.08,1.08,0,0,0-.38-.48l10.22-17.41Zm-39.42,67.33-11,45.48-.14,0a1.09,1.09,0,0,0-.95.58l-93.24-38.86a1.07,1.07,0,0,0,.05-.27l104.56-7.73A1.08,1.08,0,0,0,450.24,215.59Zm-107.41,7-75.24,19.65a1.09,1.09,0,0,0-1-.71,1.07,1.07,0,0,0-.5.14l-4.93-7.4-15.82-23.76a1.07,1.07,0,0,0,.35-.58l97.14,12.49v0A1,1,0,0,0,342.84,222.61Zm-81.46-76.27L217.75,216.6a1,1,0,0,0-1.35.35l-36.28-20.52a1,1,0,0,0,0-.9L201,182.79l60.15-36.64A1.06,1.06,0,0,0,261.37,146.34ZM173,242.53l6.13-45.44h0a1.08,1.08,0,0,0,.88-.47l36.28,20.52a1.07,1.07,0,0,0,0,.88l-32.85,19.15-9.86,5.75A1.07,1.07,0,0,0,173,242.53Zm72.71-33.09,98.14-35.72a1.08,1.08,0,0,0,.84.59l-.85,47.08a1.07,1.07,0,0,0-1,.83l-67.75-8.71-29.38-3.78v0A1.05,1.05,0,0,0,245.67,209.43Zm203.85,5.1L345,222.26a1.07,1.07,0,0,0-.92-.88l.85-47.08a1.08,1.08,0,0,0,.87-.58l103.81,40.55A1.07,1.07,0,0,0,449.52,214.53ZM218.33,217.4l25.28-7.29a1.1,1.1,0,0,0,1,.68,1.07,1.07,0,0,0,.5-.14l20.75,31.16a1.07,1.07,0,0,0-.21.24L218.29,218a1.08,1.08,0,0,0,.08-.39A1,1,0,0,0,218.33,217.4Zm-40.28-21.58a1,1,0,0,0,0,.19,1.08,1.08,0,0,0,.84,1l-6.13,45.44h0a1.07,1.07,0,0,0-.48.12l-37.34-58.75a1.08,1.08,0,0,0,.34-.43l8.29,2.4Zm273.17,19.63a1.08,1.08,0,0,0,.48-.88,1,1,0,0,0,0-.16l55-14.31a1.08,1.08,0,0,0,.31.43L471.73,251a1.07,1.07,0,0,0-.52-.15,1.09,1.09,0,0,0-.43.09l-11.62-21.07Zm20.93,36a1.08,1.08,0,0,0-.23-.29l24.3-34.8,10.93-15.65a1.07,1.07,0,0,0,.52.15,1.09,1.09,0,0,0,.79-.34l29,22.58a.91.91,0,0,0-.12.88L504,238ZM244.79,208.63a1,1,0,0,0-.17,0,1.1,1.1,0,0,0-1.1,1.1,1,1,0,0,0,0,.19l-25.28,7.29a1.08,1.08,0,0,0-.35-.44l43.63-70.26.08,0L251.26,184.8ZM261.05,146,180,195.34a1.08,1.08,0,0,0-.86-.44h0L172,144.6a1.07,1.07,0,0,0,.81-.91l88.2,1.89A1.09,1.09,0,0,0,261.05,146Zm-89.36-1.31h0L178.85,195a1.08,1.08,0,0,0-.75.63l-42.84-12.4a1,1,0,0,0,0-.19,1.08,1.08,0,0,0-.27-.7l36-37.89A1.07,1.07,0,0,0,171.69,144.65Zm2,98.48,42.71-24.9a1.05,1.05,0,0,0,1.77-.05l47.38,24.09a1.11,1.11,0,0,0-.06.28l-91.72.91A1.09,1.09,0,0,0,173.7,243.12Zm196.06,23.32a1.09,1.09,0,0,0-.44.1l-24.78-43.21a1.08,1.08,0,0,0,.32-.35l93.24,38.86a1.07,1.07,0,0,0-.06.28l-67.22,5.24A1.08,1.08,0,0,0,369.76,266.44ZM610,243.7l11.09-59.38.08,0h.05l9.46,61.46a1.07,1.07,0,0,0-.78.82l-19.12-1.88A1.08,1.08,0,0,0,610,243.7ZM719,193.82,685.45,244.7l-.16-.07,10.52-49.11.51-2.39.11,0a1.08,1.08,0,0,0,1.07-.94l21.15.84A1.08,1.08,0,0,0,719,193.82Zm-87.22,52.41,63.85-53.38a1.09,1.09,0,0,0,.42.24l-11,51.5-.11,0a1.09,1.09,0,0,0-1.08,1L632,246.68A1.06,1.06,0,0,0,631.82,246.22Zm53.82-1.4,33.59-50.88a1.07,1.07,0,0,0,.5.13,1.09,1.09,0,0,0,1.07-1l23.85.21a1.07,1.07,0,0,0,.19.51l-59.15,51Zm9.7-52.79h0a1.07,1.07,0,0,0,.2.6L631.69,246a1.09,1.09,0,0,0-.76-.31h-.05l-9.46-61.46a1.07,1.07,0,0,0,.77-.8Zm-75.27-9a1,1,0,0,0,0,.17s0,0,0,0L508.72,199.44a1.08,1.08,0,0,0-1-.83,1,1,0,0,0-.23,0l-16.87-50.4a1.09,1.09,0,0,0,.56-.59ZM489,147.25v0a1.08,1.08,0,0,0,.46.87l-38.41,65.44a1.08,1.08,0,0,0-.45-.1,1.07,1.07,0,0,0-.31.06l-31.47-74a1.07,1.07,0,0,0,.52-.7Zm-71.64-8.13a1.08,1.08,0,0,0,.92.54,1.07,1.07,0,0,0,.31-.06l31.47,74a1.08,1.08,0,0,0-.44.44L345.83,173.51a1.06,1.06,0,0,0,.06-.28,1.08,1.08,0,0,0-.07-.36ZM343.74,173a.63.63,0,0,0,0,.49L245.6,209.21a1.09,1.09,0,0,0-.58-.54l10.64-39.23,6.21-22.89a1,1,0,0,0,.17,0,1.09,1.09,0,0,0,1-.64ZM142.51,260.81a1.08,1.08,0,0,0-.86-.46l-7.23-76.29a1.08,1.08,0,0,0,.27-.08L172,242.73a1.06,1.06,0,0,0-.33,1.29Zm125.14-18a.38.38,0,0,0,0-.3l75.24-19.65a1.08,1.08,0,0,0,1.46.62l24.78,43.21a1.07,1.07,0,0,0-.39.51ZM440.13,261.7a1.09,1.09,0,0,0-.64-.58l11-45.48a1,1,0,0,0,.14,0,1.09,1.09,0,0,0,.43-.09L470.59,251a1.08,1.08,0,0,0-.48.88,1,1,0,0,0,0,.21Zm108.76-3.62a1.09,1.09,0,0,0-1-.75,1,1,0,0,0-.17,0l-2-7.21-6.93-25.52a1.1,1.1,0,0,0,.62-.6l69.18,20.5a1,1,0,0,0,0,.19,1,1,0,0,0,0,.12Z"/><path class="cls-5" d="M745.74,192.12a1.09,1.09,0,0,0-1.07,1l-23.85-.21a1.08,1.08,0,0,0-2.14-.05L697.52,192a1.08,1.08,0,0,0-2.13-.17l-73.16-8.57h0a1.09,1.09,0,0,0-2.12-.4l-128.94-35.4a1,1,0,0,0,0-.17,1.1,1.1,0,0,0-1.1-1.1,1.08,1.08,0,0,0-1,.85l-69.67-8.45v0a1.1,1.1,0,1,0-2.2,0,1.08,1.08,0,0,0,.07.36l-71.56,33.75a1.08,1.08,0,0,0-.92-.54,1.09,1.09,0,0,0-1,.64l-80.71-27.05a1,1,0,0,0,0-.23,1.1,1.1,0,0,0-1.1-1.1,1.09,1.09,0,0,0-1.07,1l-88.2-1.89a1.09,1.09,0,1,0-1.91.79l-36,37.89a1.07,1.07,0,0,0-.66-.24,1.1,1.1,0,0,0,0,2.19l7.23,76.29a1.08,1.08,0,0,0-.88,1.05,1.1,1.1,0,1,0,2.1-.44l29.19-16.79a1.07,1.07,0,0,0,1.95-.53l91.72-.91a1.08,1.08,0,0,0,2.1.24L368.69,267.4a1,1,0,0,0,0,.14,1.1,1.1,0,0,0,2.19,0l67.22-5.24a1.08,1.08,0,0,0,1.06.9,1.1,1.1,0,0,0,1.1-1.1,1,1,0,0,0,0-.21l30-9.56a1.1,1.1,0,0,0,1,.66,1.08,1.08,0,0,0,1.06-.89l74.5,6.32a1.1,1.1,0,0,0,2.19,0,1,1,0,0,0,0-.12l59.69-13.23a1.07,1.07,0,0,0,2.08-.13l19.12,1.88a1.09,1.09,0,0,0,2.18.08l51.88-1.11a1.09,1.09,0,0,0,1.07,1,1.1,1.1,0,0,0,1.1-1.1,1.07,1.07,0,0,0-.21-.61L745,194a1.1,1.1,0,1,0,.75-1.89ZM547.46,257.41a1.08,1.08,0,0,0-.66.81l-74.5-6.32a1.07,1.07,0,0,0-.06-.29l65.22-27.48a1.08,1.08,0,0,0,.95.57,1,1,0,0,0,.17,0l4.67,17.19Zm62.19-13.77a1.1,1.1,0,0,0-1,.68l-69.18-20.5a1,1,0,0,0,0-.19,1.08,1.08,0,0,0-.07-.37l80.79-39.44a1.07,1.07,0,0,0,.6.46l-9,48.08-2.11,11.3Zm10.46-60L606.93,190l-67.61,33a1.07,1.07,0,0,0-1.7-.19l-.06,0-29-22.53a1.07,1.07,0,0,0,.18-.57s0,0,0,0L620.09,183.5S620.1,183.57,620.11,183.61ZM489.67,148.26a1.08,1.08,0,0,0,.45.1,1,1,0,0,0,.23,0l16.87,50.4a1.09,1.09,0,0,0-.64,1,1,1,0,0,0,0,.16l-14.12,3.67-40.86,10.64a1.08,1.08,0,0,0-.38-.48l10.22-17.41Zm-39.42,67.33-11,45.48-.14,0a1.09,1.09,0,0,0-.95.58l-93.24-38.86a1.07,1.07,0,0,0,.05-.27l104.56-7.73A1.08,1.08,0,0,0,450.24,215.59Zm-107.41,7-75.24,19.65a1.09,1.09,0,0,0-1-.71,1.07,1.07,0,0,0-.5.14l-4.93-7.4-15.82-23.76a1.07,1.07,0,0,0,.35-.58l97.14,12.49v0A1,1,0,0,0,342.84,222.61Zm-81.46-76.27L217.75,216.6a1,1,0,0,0-1.35.35l-36.28-20.52a1,1,0,0,0,0-.9L201,182.79l60.15-36.64A1.06,1.06,0,0,0,261.37,146.34ZM173,242.53l6.13-45.44h0a1.08,1.08,0,0,0,.88-.47l36.28,20.52a1.07,1.07,0,0,0,0,.88l-32.85,19.15-9.86,5.75A1.07,1.07,0,0,0,173,242.53Zm72.71-33.09,98.14-35.72a1.08,1.08,0,0,0,.84.59l-.85,47.08a1.07,1.07,0,0,0-1,.83l-67.75-8.71-29.38-3.78v0A1.05,1.05,0,0,0,245.67,209.43Zm203.85,5.1L345,222.26a1.07,1.07,0,0,0-.92-.88l.85-47.08a1.08,1.08,0,0,0,.87-.58l103.81,40.55A1.07,1.07,0,0,0,449.52,214.53ZM218.33,217.4l25.28-7.29a1.1,1.1,0,0,0,1,.68,1.07,1.07,0,0,0,.5-.14l20.75,31.16a1.07,1.07,0,0,0-.21.24L218.29,218a1.08,1.08,0,0,0,.08-.39A1,1,0,0,0,218.33,217.4Zm-40.28-21.58a1,1,0,0,0,0,.19,1.08,1.08,0,0,0,.84,1l-6.13,45.44h0a1.07,1.07,0,0,0-.48.12l-37.34-58.75a1.08,1.08,0,0,0,.34-.43l8.29,2.4Zm273.17,19.63a1.08,1.08,0,0,0,.48-.88,1,1,0,0,0,0-.16l55-14.31a1.08,1.08,0,0,0,.31.43L471.73,251a1.07,1.07,0,0,0-.52-.15,1.09,1.09,0,0,0-.43.09l-11.62-21.07Zm20.93,36a1.08,1.08,0,0,0-.23-.29l24.3-34.8,10.93-15.65a1.07,1.07,0,0,0,.52.15,1.09,1.09,0,0,0,.79-.34l29,22.58a.91.91,0,0,0-.12.88L504,238ZM244.79,208.63a1,1,0,0,0-.17,0,1.1,1.1,0,0,0-1.1,1.1,1,1,0,0,0,0,.19l-25.28,7.29a1.08,1.08,0,0,0-.35-.44l43.63-70.26.08,0L251.26,184.8ZM261.05,146,180,195.34a1.08,1.08,0,0,0-.86-.44h0L172,144.6a1.07,1.07,0,0,0,.81-.91l88.2,1.89A1.09,1.09,0,0,0,261.05,146Zm-89.36-1.31h0L178.85,195a1.08,1.08,0,0,0-.75.63l-42.84-12.4a1,1,0,0,0,0-.19,1.08,1.08,0,0,0-.27-.7l36-37.89A1.07,1.07,0,0,0,171.69,144.65Zm2,98.48,42.71-24.9a1.05,1.05,0,0,0,1.77-.05l47.38,24.09a1.11,1.11,0,0,0-.06.28l-91.72.91A1.09,1.09,0,0,0,173.7,243.12Zm196.06,23.32a1.09,1.09,0,0,0-.44.1l-24.78-43.21a1.08,1.08,0,0,0,.32-.35l93.24,38.86a1.07,1.07,0,0,0-.06.28l-67.22,5.24A1.08,1.08,0,0,0,369.76,266.44ZM610,243.7l11.09-59.38.08,0h.05l9.46,61.46a1.07,1.07,0,0,0-.78.82l-19.12-1.88A1.08,1.08,0,0,0,610,243.7ZM719,193.82,685.45,244.7l-.16-.07,10.52-49.11.51-2.39.11,0a1.08,1.08,0,0,0,1.07-.94l21.15.84A1.08,1.08,0,0,0,719,193.82Zm-87.22,52.41,63.85-53.38a1.09,1.09,0,0,0,.42.24l-11,51.5-.11,0a1.09,1.09,0,0,0-1.08,1L632,246.68A1.06,1.06,0,0,0,631.82,246.22Zm53.82-1.4,33.59-50.88a1.07,1.07,0,0,0,.5.13,1.09,1.09,0,0,0,1.07-1l23.85.21a1.07,1.07,0,0,0,.19.51l-59.15,51Zm9.7-52.79h0a1.07,1.07,0,0,0,.2.6L631.69,246a1.09,1.09,0,0,0-.76-.31h-.05l-9.46-61.46a1.07,1.07,0,0,0,.77-.8Zm-75.27-9a1,1,0,0,0,0,.17s0,0,0,0L508.72,199.44a1.08,1.08,0,0,0-1-.83,1,1,0,0,0-.23,0l-16.87-50.4a1.09,1.09,0,0,0,.56-.59ZM489,147.25v0a1.08,1.08,0,0,0,.46.87l-38.41,65.44a1.08,1.08,0,0,0-.45-.1,1.07,1.07,0,0,0-.31.06l-31.47-74a1.07,1.07,0,0,0,.52-.7Zm-71.64-8.13a1.08,1.08,0,0,0,.92.54,1.07,1.07,0,0,0,.31-.06l31.47,74a1.08,1.08,0,0,0-.44.44L345.83,173.51a1.06,1.06,0,0,0,.06-.28,1.08,1.08,0,0,0-.07-.36ZM343.74,173a.63.63,0,0,0,0,.49L245.6,209.21a1.09,1.09,0,0,0-.58-.54l10.64-39.23,6.21-22.89a1,1,0,0,0,.17,0,1.09,1.09,0,0,0,1-.64ZM142.51,260.81a1.08,1.08,0,0,0-.86-.46l-7.23-76.29a1.08,1.08,0,0,0,.27-.08L172,242.73a1.06,1.06,0,0,0-.33,1.29Zm125.14-18a.38.38,0,0,0,0-.3l75.24-19.65a1.08,1.08,0,0,0,1.46.62l24.78,43.21a1.07,1.07,0,0,0-.39.51ZM440.13,261.7a1.09,1.09,0,0,0-.64-.58l11-45.48a1,1,0,0,0,.14,0,1.09,1.09,0,0,0,.43-.09L470.59,251a1.08,1.08,0,0,0-.48.88,1,1,0,0,0,0,.21Zm108.76-3.62a1.09,1.09,0,0,0-1-.75,1,1,0,0,0-.17,0l-2-7.21-6.93-25.52a1.1,1.1,0,0,0,.62-.6l69.18,20.5a1,1,0,0,0,0,.19,1,1,0,0,0,0,.12Z"/><circle class="cls-6" cx="856.03" cy="160.88" r="2.4" transform="translate(503.68 957.45) rotate(-76.78)"/><path class="cls-7" d="M883.41,97.76a4.34,4.34,0,1,1,3.23,5.21A4.34,4.34,0,0,1,883.41,97.76Z"/><path class="cls-8" d="M860.34,247a3.74,3.74,0,1,1,2.79,4.49A3.73,3.73,0,0,1,860.34,247Z"/><path class="cls-9" d="M853.95,85.93A4.21,4.21,0,1,1,857.08,91,4.2,4.2,0,0,1,853.95,85.93Z"/><circle class="cls-10" cx="865.49" cy="214.52" r="1.93" transform="translate(458.74 1008.02) rotate(-76.78)"/><circle class="cls-11" cx="848.62" cy="88.4" r="2.42" transform="translate(568.82 894.43) rotate(-76.8)"/><circle class="cls-12" cx="850.78" cy="135.04" r="2.21" transform="matrix(0.23, -0.97, 0.97, 0.23, 525.16, 932.55)"/><path class="cls-13" d="M763.49,129.66a3,3,0,1,1,2.24,3.62A3,3,0,0,1,763.49,129.66Z"/><circle class="cls-14" cx="765.1" cy="200.76" r="2.91" transform="translate(394.83 899.75) rotate(-76.79)"/><circle class="cls-15" cx="824.33" cy="57.32" r="2.66" transform="translate(580.05 846.71) rotate(-76.78)"/><circle class="cls-16" cx="727.67" cy="197.91" r="1.45" transform="translate(368.42 860.94) rotate(-76.76)"/><circle class="cls-17" cx="727.9" cy="241.1" r="1.97" transform="translate(326.58 894.48) rotate(-76.77)"/><circle class="cls-18" cx="826.02" cy="165.82" r="2.28" transform="translate(475.13 931.77) rotate(-76.74)"/><path class="cls-19" d="M830.85,8.39a6.82,6.82,0,1,1,5.08,8.2A6.81,6.81,0,0,1,830.85,8.39Z"/><circle class="cls-20" cx="741.55" cy="137.83" r="1.96" transform="translate(438.1 828.35) rotate(-76.81)"/><circle class="cls-21" cx="744.1" cy="169.72" r="1.37" transform="translate(408.52 855.19) rotate(-76.76)"/><circle class="cls-22" cx="803.96" cy="10.1" r="4.42" transform="translate(610.11 790.4) rotate(-76.77)"/><circle class="cls-23" cx="755.36" cy="116.8" r="1.66" transform="translate(469.36 825.62) rotate(-76.82)"/><circle class="cls-24" cx="585.69" cy="159.2" r="4.46" transform="translate(296.84 693.01) rotate(-76.79)"/><circle class="cls-25" cx="829.22" cy="2.38" r="2.38" transform="translate(637.55 809.15) rotate(-76.8)"/><circle class="cls-26" cx="727.56" cy="132.68" r="1.66" transform="translate(432.05 810.64) rotate(-76.78)"/><circle class="cls-27" cx="704.98" cy="195.01" r="2.24" transform="translate(354.14 836.83) rotate(-76.8)"/><circle class="cls-28" cx="686.33" cy="246.72" r="1.82" transform="translate(288.99 858.31) rotate(-76.76)"/><circle class="cls-29" cx="731.79" cy="244.39" r="1.93" transform="translate(-23 84.6) rotate(-6.51)"/><circle class="cls-30" cx="766.56" cy="235.25" r="2.04" transform="translate(-21.73 88.42) rotate(-6.51)"/><circle class="cls-31" cx="702.4" cy="271.49" r="1.45" transform="translate(277.48 893.2) rotate(-76.78)"/><circle class="cls-32" cx="711.61" cy="269.84" r="2.24" transform="translate(-26.14 82.95) rotate(-6.55)"/><circle class="cls-33" cx="704.8" cy="289.32" r="2.14" transform="translate(-28.29 81.89) rotate(-6.52)"/><circle class="cls-34" cx="636.22" cy="241.67" r="1.89" transform="translate(255.31 805.66) rotate(-76.76)"/><circle class="cls-35" cx="184.08" cy="144.73" r="1.84" transform="translate(1.11 290.87) rotate(-76.79)"/><circle class="cls-36" cx="701.99" cy="258.32" r="2.02" transform="translate(-24.84 81.57) rotate(-6.53)"/><circle class="cls-37" cx="635.89" cy="220.68" r="1.47" transform="translate(275.66 789.26) rotate(-76.78)"/><circle class="cls-38" cx="650.6" cy="223.23" r="1.41" transform="translate(284.57 805.59) rotate(-76.79)"/><circle class="cls-39" cx="700" cy="213.71" r="1.94" transform="translate(332.1 846.42) rotate(-76.8)"/><circle class="cls-40" cx="616.95" cy="179.09" r="1.61" transform="translate(301.69 738.83) rotate(-76.8)"/><circle class="cls-41" cx="649.76" cy="269.94" r="1.99" transform="translate(-26.52 75.77) rotate(-6.54)"/><circle class="cls-42" cx="490.38" cy="240.49" r="1.46" transform="translate(143.91 662.7) rotate(-76.75)"/><circle class="cls-43" cx="358.33" cy="179.55" r="2.09" transform="translate(101.71 487.43) rotate(-76.8)"/><circle class="cls-44" cx="306.18" cy="253.19" r="2.16" transform="translate(-10.3 493.39) rotate(-76.79)"/><circle class="cls-45" cx="325.27" cy="280" r="1.87" transform="translate(-21.8 532.47) rotate(-76.76)"/><circle class="cls-46" cx="824.78" cy="85.26" r="1.56" transform="translate(553.32 868.74) rotate(-76.79)"/><circle class="cls-47" cx="160.12" cy="275.51" r="1.75" transform="translate(-156.99 244.13) rotate(-54.18)"/><circle class="cls-48" cx="168.75" cy="210.19" r="2.1" transform="translate(-100.44 224.22) rotate(-54.22)"/><circle class="cls-49" cx="177.99" cy="178.95" r="1.6" transform="translate(-71.24 218.78) rotate(-54.23)"/><circle class="cls-50" cx="115.53" cy="203.09" r="1.7" transform="translate(-116.78 178.08) rotate(-54.22)"/><circle class="cls-51" cx="106.44" cy="184.24" r="1.54" transform="translate(-105.25 162.76) rotate(-54.19)"/><circle class="cls-52" cx="113.67" cy="176.32" r="1.72" transform="translate(-95.83 165.44) rotate(-54.22)"/><circle class="cls-53" cx="834" cy="101.38" r="2.48" transform="translate(544.64 890.12) rotate(-76.78)"/><circle class="cls-54" cx="776.52" cy="193.96" r="3.69" transform="translate(410.22 905.6) rotate(-76.79)"/><circle class="cls-55" cx="776.4" cy="155.04" r="6.18" transform="translate(447.95 875.43) rotate(-76.78)"/><circle class="cls-56" cx="830.45" cy="128.37" r="9.78" transform="translate(515.67 907.49) rotate(-76.79)"/><path class="cls-57" d="M851.4,190.78a2.72,2.72,0,1,1,2,3.27A2.72,2.72,0,0,1,851.4,190.78Z"/><path class="cls-58" d="M840.21,73a4.83,4.83,0,1,1,3.6,5.81A4.83,4.83,0,0,1,840.21,73Z"/><circle class="cls-59" cx="702.67" cy="196.07" r="1.93" transform="translate(351.12 835.29) rotate(-76.78)"/><circle class="cls-60" cx="730.3" cy="239.97" r="1.78" transform="translate(-22.61 84.91) rotate(-6.55)"/><circle class="cls-61" cx="732.34" cy="148.85" r="1.84" transform="translate(420.22 827.87) rotate(-76.8)"/><circle class="cls-62" cx="675.22" cy="246.57" r="1.59" transform="translate(280.96 847.63) rotate(-76.8)"/><circle class="cls-63" cx="733.44" cy="180.27" r="2.33" transform="translate(390.45 853.17) rotate(-76.8)"/><circle class="cls-64" cx="726.76" cy="208.68" r="1.61" transform="translate(357.4 868.46) rotate(-76.78)"/><circle class="cls-65" cx="699.31" cy="259.05" r="2.44" transform="translate(287.22 880.6) rotate(-76.78)"/><circle class="cls-66" cx="444.22" cy="226.7" r="1.72" transform="translate(121.94 607.31) rotate(-76.78)"/><circle class="cls-67" cx="170.42" cy="202.73" r="5.24" transform="translate(-93.69 222.4) rotate(-54.21)"/><circle class="cls-68" cx="276.27" cy="242.24" r="1.83" transform="translate(-22.74 455.78) rotate(-76.78)"/><circle class="cls-69" cx="429.37" cy="249.25" r="2.26" transform="translate(88.34 610.06) rotate(-76.75)"/><circle class="cls-70" cx="547.71" cy="226.98" r="2.99" transform="translate(201.45 708.23) rotate(-76.77)"/><circle class="cls-71" cx="643.88" cy="228.48" r="2.27" transform="translate(274.2 803.03) rotate(-76.78)"/><circle class="cls-72" cx="186.23" cy="160.18" r="8.89" transform="translate(-52.61 217.57) rotate(-54.21)"/><circle class="cls-73" cx="786.08" cy="98.1" r="1.96" transform="translate(510.76 840.9) rotate(-76.78)"/><circle class="cls-74" cx="192.93" cy="243.9" r="1.93" transform="translate(-117.75 257.68) rotate(-54.19)"/><circle class="cls-75" cx="223.81" cy="227.93" r="3.96" transform="translate(-49.29 393.64) rotate(-76.77)"/><path class="cls-76" d="M709.67,257.17a2.48,2.48,0,1,1,2.74,2.18A2.48,2.48,0,0,1,709.67,257.17Z"/><circle class="cls-77" cx="760.16" cy="245" r="2.14" transform="translate(-22.88 87.79) rotate(-6.51)"/><circle class="cls-78" cx="779.12" cy="267.8" r="2.49" transform="translate(-25.42 90.43) rotate(-6.54)"/><circle class="cls-79" cx="837.52" cy="224.06" r="2.07" transform="translate(96.22 673.64) rotate(-46.21)"/><circle class="cls-80" cx="845.1" cy="152.63" r="2.72" transform="translate(150.39 657.48) rotate(-46.24)"/><circle class="cls-81" cx="743.59" cy="207.67" r="16.01" transform="translate(79.34 601.14) rotate(-46.24)"/><circle class="cls-82" cx="743.91" cy="264.82" r="2.8" transform="translate(199.12 836.43) rotate(-65.97)"/><circle class="cls-83" cx="790.98" cy="187.8" r="4.14" transform="translate(108.35 629.31) rotate(-46.25)"/><circle class="cls-84" cx="828.18" cy="108.81" r="6.07" transform="translate(176.76 631.66) rotate(-46.24)"/><circle class="cls-85" cx="702.66" cy="259.01" r="3.56" transform="translate(29.66 587.46) rotate(-46.25)"/><path class="cls-86" d="M709.83,274a5.09,5.09,0,1,1,2.58,6.72A5.09,5.09,0,0,1,709.83,274Z"/><circle class="cls-87" cx="725.12" cy="179.05" r="5.15" transform="translate(94.35 579.04) rotate(-46.25)"/><path class="cls-88" d="M746.57,97.31a4,4,0,1,1,.12,5.67A4,4,0,0,1,746.57,97.31Z"/><circle class="cls-89" cx="227.81" cy="260.99" r="8.51" transform="translate(-118.25 245.03) rotate(-46.24)"/><path class="cls-90" d="M773.07,72.93a7.49,7.49,0,1,1,.23,10.59A7.49,7.49,0,0,1,773.07,72.93Z"/><circle class="cls-91" cx="786.33" cy="186.33" r="7.23" transform="translate(107.94 625.43) rotate(-46.24)"/><path class="cls-92" d="M662.81,184.79a9.12,9.12,0,1,1,.28,12.89A9.11,9.11,0,0,1,662.81,184.79Z"/><path class="cls-93" d="M696.37,139.4a8.44,8.44,0,1,1,.26,11.94A8.44,8.44,0,0,1,696.37,139.4Z"/><circle class="cls-94" cx="552.06" cy="227.05" r="3.96" transform="translate(6.3 468.84) rotate(-46.25)"/><circle class="cls-95" cx="172.42" cy="172.98" r="2.57" transform="translate(-54.91 83.69) rotate(-23.65)"/><circle class="cls-96" cx="195.39" cy="162.89" r="2.56" transform="translate(-57.39 191.4) rotate(-46.25)"/><circle class="cls-97" cx="671.49" cy="241.92" r="9.8" transform="translate(32.34 559.57) rotate(-46.24)"/><circle class="cls-98" cx="716.57" cy="203.7" r="8.33" transform="translate(73.87 580.41) rotate(-46.25)"/><circle class="cls-99" cx="194.09" cy="133.36" r="6.02" transform="translate(-36.46 181.37) rotate(-46.26)"/><circle class="cls-100" cx="300.19" cy="297.44" r="1.85" transform="translate(-122.25 308.62) rotate(-46.25)"/><circle class="cls-101" cx="271.7" cy="222.07" r="4.43" transform="translate(-76.6 264.76) rotate(-46.25)"/><circle class="cls-102" cx="558.38" cy="78.05" r="3.18" transform="matrix(0.69, -0.72, 0.72, 0.69, 115.78, 427.32)"/><circle class="cls-103" cx="466.21" cy="104.73" r="3.41" transform="translate(68.22 369.15) rotate(-46.26)"/><circle class="cls-104" cx="169.05" cy="147.01" r="5.15" transform="translate(-44.82 80.3) rotate(-23.69)"/><circle class="cls-105" cx="156.89" cy="210.53" r="9.78" transform="translate(-71.35 80.75) rotate(-23.68)"/><circle class="cls-106" cx="139.52" cy="186.14" r="2.75" transform="translate(-63.02 71.72) rotate(-23.68)"/><circle class="cls-107" cx="155.07" cy="171.64" r="8.76" transform="matrix(0.92, -0.4, 0.4, 0.92, -55.87, 76.71)"/><circle class="cls-108" cx="142.92" cy="208.33" r="1.62" transform="translate(-71.64 74.94) rotate(-23.68)"/><circle class="cls-109" cx="285.52" cy="162.7" r="13.52" transform="translate(-29.46 256.42) rotate(-46.25)"/><circle class="cls-110" cx="774.09" cy="193.76" r="4.91" transform="translate(408.48 903.04) rotate(-76.78)"/><circle class="cls-111" cx="789.84" cy="123.98" r="3.7" transform="translate(488.38 864.48) rotate(-76.77)"/><path class="cls-112" d="M816.41,51a7.94,7.94,0,1,1,5.92,9.54A7.92,7.92,0,0,1,816.41,51Z"/><circle class="cls-113" cx="745.84" cy="166.68" r="4.79" transform="translate(412.96 854.61) rotate(-76.78)"/><circle class="cls-114" cx="729.49" cy="196.95" r="4.67" transform="translate(371.01 862.11) rotate(-76.79)"/><circle class="cls-115" cx="763.91" cy="117.73" r="1.29" transform="translate(474.21 834.32) rotate(-76.75)"/><path class="cls-116" d="M689.23,231.65A11.71,11.71,0,1,1,698,245.73,11.73,11.73,0,0,1,689.23,231.65Z"/><circle class="cls-117" cx="753.21" cy="238.9" r="1.54" transform="translate(348.51 917.59) rotate(-76.79)"/><circle class="cls-118" cx="745.83" cy="127.59" r="1.77" transform="translate(451.05 824.47) rotate(-76.78)"/><circle class="cls-119" cx="709.85" cy="112.27" r="1.34" transform="translate(437.81 777.47) rotate(-76.75)"/><circle class="cls-120" cx="699.37" cy="178.26" r="2.89" transform="translate(366.13 818.46) rotate(-76.8)"/><circle class="cls-121" cx="682.03" cy="234.24" r="1.79" transform="translate(297.82 844.51) rotate(-76.76)"/><circle class="cls-122" cx="613.5" cy="216.26" r="3.17" transform="translate(262.67 764.04) rotate(-76.78)"/><circle class="cls-123" cx="715.82" cy="222.84" r="3.47" transform="translate(335.2 868.74) rotate(-76.78)"/><circle class="cls-124" cx="718.91" cy="257.15" r="2" transform="translate(304.08 898.15) rotate(-76.77)"/><circle class="cls-125" cx="731.51" cy="227.48" r="3.2" transform="translate(342.82 887.62) rotate(-76.78)"/><circle class="cls-126" cx="682.57" cy="148.47" r="2.14" transform="translate(381.79 778.93) rotate(-76.77)"/><circle class="cls-127" cx="646.08" cy="223.07" r="5.06" transform="translate(281.21 801.04) rotate(-76.78)"/><circle class="cls-128" cx="406.57" cy="268.69" r="4.05" transform="translate(52.02 603.04) rotate(-76.78)"/><circle class="cls-129" cx="230.7" cy="203.76" r="2.14" transform="translate(-20.44 381.72) rotate(-76.77)"/><circle class="cls-130" cx="179.4" cy="186.04" r="1.91" transform="translate(-76.45 222.62) rotate(-54.18)"/><circle class="cls-131" cx="212.93" cy="177.87" r="4.68" transform="translate(-8.97 344.43) rotate(-76.76)"/><circle class="cls-132" cx="678.16" cy="259.64" r="1.82" transform="translate(269.98 860.22) rotate(-76.75)"/><circle class="cls-133" cx="659.12" cy="257.41" r="1.52" transform="translate(258.06 840.37) rotate(-76.81)"/><circle class="cls-134" cx="280.61" cy="222.37" r="2.92" transform="translate(-0.06 444.68) rotate(-76.78)"/><circle class="cls-135" cx="170.94" cy="263.37" r="1.64" transform="translate(-142.66 247.97) rotate(-54.2)"/><circle class="cls-136" cx="121.3" cy="174.67" r="2.71" transform="translate(-91.33 170.98) rotate(-54.23)"/><circle class="cls-137" cx="165.04" cy="249.82" r="2.11" transform="translate(-134.12 237.7) rotate(-54.23)"/><circle class="cls-138" cx="167.8" cy="160.35" r="3.32" transform="translate(-54.89 225.77) rotate(-60.07)"/><circle class="cls-139" cx="190.24" cy="135.73" r="2.9" transform="translate(31.14 306.91) rotate(-82.6)"/><circle class="cls-140" cx="641.45" cy="248.4" r="1.65" transform="translate(312.77 852.66) rotate(-82.63)"/><circle class="cls-141" cx="626.36" cy="201.86" r="3.84" transform="translate(345.55 797.02) rotate(-82.6)"/><circle class="cls-142" cx="452.03" cy="198.44" r="5.1" transform="translate(197.23 621.27) rotate(-82.63)"/><circle class="cls-143" cx="658.99" cy="251.16" r="1.67" transform="translate(325.47 872.53) rotate(-82.64)"/><circle class="cls-144" cx="676.27" cy="272.64" r="4.48" transform="translate(-42.73 151.36) rotate(-12.38)"/><circle class="cls-145" cx="155.19" cy="190.39" r="1.45" transform="matrix(0.5, -0.87, 0.87, 0.5, -87.25, 229.8)"/><circle class="cls-146" cx="661.58" cy="214.9" r="1.71" transform="translate(363.1 843.22) rotate(-82.59)"/><circle class="cls-147" cx="662.15" cy="124.21" r="1.78" transform="translate(454.04 764.97) rotate(-82.63)"/><circle class="cls-148" cx="225.12" cy="105.73" r="2.97" transform="translate(91.35 315.41) rotate(-82.62)"/><circle class="cls-149" cx="182.45" cy="97.92" r="2.03" transform="translate(61.96 266.33) rotate(-82.64)"/><circle class="cls-150" cx="131.85" cy="141.34" r="3.05" transform="translate(-56.44 185) rotate(-60.04)"/><circle class="cls-151" cx="303.53" cy="177.28" r="3.56" transform="translate(88.84 455.6) rotate(-82.64)"/><path class="cls-152" d="M250.37,226.58a2,2,0,1,1-2.21,1.7A2,2,0,0,1,250.37,226.58Z"/><circle class="cls-153" cx="324.85" cy="240.54" r="4.34" transform="translate(44.67 531.89) rotate(-82.64)"/><circle class="cls-154" cx="246.54" cy="64.75" r="2.72" transform="translate(150.68 300.94) rotate(-82.62)"/><circle class="cls-155" cx="148.73" cy="107.08" r="4.87" transform="translate(-18.3 182.5) rotate(-60.05)"/><circle class="cls-156" cx="128.15" cy="171.08" r="3.4" transform="translate(-84.07 196.63) rotate(-60.03)"/><circle class="cls-157" cx="134.43" cy="157.43" r="2.37" transform="translate(-69.06 195.47) rotate(-60.09)"/><circle class="cls-158" cx="148.08" cy="170.15" r="1.52" transform="translate(-73.23 213.74) rotate(-60.11)"/><circle class="cls-159" cx="727.95" cy="105.79" r="4.8" transform="translate(529.45 814.1) rotate(-82.61)"/><circle class="cls-160" cx="166.38" cy="152.97" r="1.89" transform="translate(-49.27 220.62) rotate(-60.01)"/><circle class="cls-161" cx="155.11" cy="152.74" r="1.48" transform="translate(-54.66 210.91) rotate(-60.06)"/><circle class="cls-162" cx="145.84" cy="178.1" r="3.42" transform="translate(-81.29 215.53) rotate(-60.04)"/><circle class="cls-163" cx="122.92" cy="169.52" r="2.41" transform="translate(-85.34 191.28) rotate(-60.02)"/><circle class="cls-164" cx="65.02" cy="109.21" r="2.57" transform="translate(-62.07 111.06) rotate(-60.07)"/><circle class="cls-165" cx="131.29" cy="105.67" r="1.24" transform="translate(-25.83 166.63) rotate(-60.03)"/><circle class="cls-166" cx="135.1" cy="163.59" r="2.27" transform="translate(-74.08 199.06) rotate(-60.07)"/><circle class="cls-167" cx="109.31" cy="142.95" r="2.08" transform="translate(-69.12 166.31) rotate(-60.05)"/><circle class="cls-168" cx="119.1" cy="171.58" r="4.18" transform="translate(-89.03 189.17) rotate(-60.06)"/><circle class="cls-169" cx="135.21" cy="188.44" r="6.85" transform="translate(-95.57 211.53) rotate(-60.05)"/><circle class="cls-170" cx="78.57" cy="155.72" r="5.62" transform="translate(-95.58 146.08) rotate(-60.06)"/></g></g></g></g></svg>