<svg xmlns="http://www.w3.org/2000/svg" xmlns:xlink="http://www.w3.org/1999/xlink" viewBox="0 0 450 450"><defs><style>.cls-1,.cls-2{isolation:isolate;}.cls-2{opacity:0.62;mix-blend-mode:color-dodge;}.cls-3,.cls-4{fill:#f4f4f4;}.cls-3{opacity:0.4;}.cls-10,.cls-11,.cls-12,.cls-13,.cls-14,.cls-15,.cls-16,.cls-17,.cls-18,.cls-5,.cls-6,.cls-7,.cls-8,.cls-9{mix-blend-mode:screen;}.cls-5{fill:url(#radial-gradient);}.cls-6{fill:url(#radial-gradient-2);}.cls-7{fill:url(#radial-gradient-3);}.cls-8{fill:url(#radial-gradient-4);}.cls-9{fill:url(#radial-gradient-5);}.cls-10{fill:url(#radial-gradient-6);}.cls-11{fill:url(#radial-gradient-7);}.cls-12{fill:url(#radial-gradient-8);}.cls-13{fill:url(#radial-gradient-9);}.cls-14{fill:url(#radial-gradient-10);}.cls-15{fill:url(#radial-gradient-11);}.cls-16{fill:url(#radial-gradient-12);}.cls-17{fill:url(#radial-gradient-13);}.cls-18{opacity:0.49;fill:url(#radial-gradient-14);}</style><radialGradient id="radial-gradient" cx="258.61" cy="280.01" r="22.26" gradientUnits="userSpaceOnUse"><stop offset="0" stop-color="#fff"/><stop offset="0.1" stop-color="#fff" stop-opacity="0.92"/><stop offset="0.3" stop-color="#fff" stop-opacity="0.7"/><stop offset="0.59" stop-color="#fff" stop-opacity="0.36"/><stop offset="0.88" stop-color="#fff" stop-opacity="0"/></radialGradient><radialGradient id="radial-gradient-2" cx="88.72" cy="188.24" r="22.92" xlink:href="#radial-gradient"/><radialGradient id="radial-gradient-3" cx="300.31" cy="108.23" r="17.32" xlink:href="#radial-gradient"/><radialGradient id="radial-gradient-4" cx="187.52" cy="43.15" r="13.46" xlink:href="#radial-gradient"/><radialGradient id="radial-gradient-5" cx="110.79" cy="292.12" r="22.53" xlink:href="#radial-gradient"/><radialGradient id="radial-gradient-6" cx="358.03" cy="224.17" r="23.35" xlink:href="#radial-gradient"/><radialGradient id="radial-gradient-7" cx="213.1" cy="214.45" r="28.88" xlink:href="#radial-gradient"/><radialGradient id="radial-gradient-8" cx="234.51" cy="387.16" r="13.46" xlink:href="#radial-gradient"/><radialGradient id="radial-gradient-9" cx="94.55" cy="372.46" r="13.46" xlink:href="#radial-gradient"/><radialGradient id="radial-gradient-10" cx="359.33" cy="330.66" r="13.46" xlink:href="#radial-gradient"/><radialGradient id="radial-gradient-11" cx="407.51" cy="255.78" r="13.46" xlink:href="#radial-gradient"/><radialGradient id="radial-gradient-12" cx="34.71" cy="237.22" r="13.46" xlink:href="#radial-gradient"/><radialGradient id="radial-gradient-13" cx="135.49" cy="90.73" r="21.27" xlink:href="#radial-gradient"/><radialGradient id="radial-gradient-14" cx="218.67" cy="223.27" r="179.39" gradientTransform="translate(-49.27 -55.04) scale(1.25 1.25)" xlink:href="#radial-gradient"/></defs><title>node-network_1</title><g class="cls-1"><g id="Layer_2" data-name="Layer 2"><g id="Network_Sphere" data-name="Network Sphere"><g class="cls-2"><path class="cls-3" d="M430.77,162.08q.31,1,.61,2l1.51,5.63c-.38-1.31-.38-1.31-2.11-7.66Z"/><path class="cls-3" d="M435.31,179.81l-.22-1.08.38,1.66.32,1.53-.44-2,0-.14Z"/><path class="cls-3" d="M434.84,272q-.21.92-.42,1.84c-1.8,6.06-4.53,14-6.95,19.89.08-.33.12-.67.23-1,2.11-6.23,5.36-14.41,7.14-20.74Z"/><path class="cls-3" d="M424.32,302.6q.23-.51.44-1a98.6,98.6,0,0,1-3.25,10.65l-.63,1.41a96.81,96.81,0,0,0,3.37-10.91l.06-.14Z"/><path class="cls-3" d="M241.72,439.87l-1.44.11c-.7,0-4.09.06-13,.1.29-.09.29-.09,8.36-.14,4.94,0,5.83,0,6.05-.06Z"/><path class="cls-3" d="M64,80.24c1-.38,1.48-.57,6.07-1l-.47.53c-.13.15-.15.4-.4.46a28.79,28.79,0,0,1-3,.32,11.08,11.08,0,0,0-3.09.69l.9-1Z"/><path class="cls-3" d="M287,18.28l-.69-.21c4.37,1.45,10.22,3.3,14.53,4.92l2.09.81c-4.74-1.69-11-4-15.85-5.49l-.09,0Z"/><path class="cls-3" d="M422.9,305.32c.13-.19.24-.39.36-.6-6.65,17.95-6.91,18.65-15.46,33.41l-1.34,2.13c9.85-17.11,10.24-17.77,16.39-34.88l0-.07Z"/><path class="cls-3" d="M144.34,24.24a45.91,45.91,0,0,1,6.91-1.92c-.41.16-.81.35-1.24.48-.85.25-2,.47-2.88.68a42.09,42.09,0,0,0-4.07,1.28l1.28-.52Z"/><path class="cls-3" d="M107.61,43.21c14.6-8.71,19.26-11.31,39.46-19.19-7.42,3.27-15.07,6-22.36,9.61-5.76,2.83-13.13,7.21-18.6,10.56l1.51-1Z"/><path class="cls-3" d="M216.66,9.05l.74,0c-18.84,1.2-33.72,2.15-59.09,10.85l-.71.22c16.3-5.3,29.17-9.49,59-11Z"/><path class="cls-3" d="M181.27,20.06c-.25.13-.44.38-.75.41-9.26.74-18.55,1-27.8,1.88,1.13-.44,2.42-.94,28.54-2.28Z"/><path class="cls-3" d="M199.59,439.18l2.58.28.21,0-2.79-.3Z"/><path class="cls-3" d="M63.14,368.26l1.37,1.52-1.37-1.52Z"/><path class="cls-3" d="M128.42,418.13c-3.35-1.93-3.41-2-4.68-4-.45-.72.08-2,.39-2.8l1.1.67c-.29.79-.79,2.08-.33,2.78,1,1.53,1.56,2.38,4.75,3.94l-1.23-.61Z"/><path class="cls-3" d="M17.69,162c7-19.56,15.61-43.9,48.53-77.45-1.59,4.38-7.27,8.08-10.44,11.5C46,106.57,28,129.36,17.16,163.79l.09-.3.45-1.48Z"/><path class="cls-3" d="M15.08,171.47l.31-1.21c1.62,2.85,7.93,5.25,35.4,9.07-.14.6-.17.76-.27,1.31-24.4-3.35-34.68-6-35.48-9l0-.16Z"/><path class="cls-3" d="M61.83,366.64l-.57-.68c16.75,16.77,28,25.63,58.07,41.94l.53.47c-29.9-16.07-41.18-24.88-58-41.64l-.07-.09Z"/><path class="cls-3" d="M58.59,362.74l-.81-1c2.25.25,6,.66,48.17,1.36q.25.45.52.89c-22.5,0-46.24-.94-47.83-1.19l-.06-.08Z"/><path class="cls-3" d="M69.24,285.55c.14.27.35.63.5.9C50.22,310.74,37.8,330.2,55.92,359.51c-24.45-29.75,3-61.87,13.32-74Z"/><path class="cls-3" d="M11.31,260.25c-2.25-27.4,8-47.31,39-76.08,0,.28.08.66.12.94-28.1,27.41-41.82,46.8-38.86,76.74q-.14-.8-.27-1.6Z"/><path class="cls-3" d="M14.93,277.55c1.26.64,3.6,1.82,53,3.68.1.6.13.74.23,1.22-13.42-.38-51.93-1.85-52.87-3.55l-.35-1.36Z"/><path class="cls-3" d="M379.42,333.79c.3-.44.52-.82.63-1,13,11,18,18.82,9.2,30.9l-.92,1.08c6.89-9.84,7.39-17.31-9-30.85l.09-.14Z"/><path class="cls-3" d="M211.3,440.19l-1.34-.08c.86,0,1.86.06,5.22.12l1.06.08c-3.36,0-4.23-.08-4.83-.1Z"/><path class="cls-3" d="M128.6,413.84c.24.12.57.25.8.38,9.42,5,18,11.65,28.25,15.14,19.25,6.55,26.51,7.88,46.87,10.32-44.13-4.05-66.4-19.32-75.92-25.84Z"/><path class="cls-3" d="M259,434c-2.07.85-28.17,5.42-31.13,5.93.17-.07.27-.12,6.61-1.26,11.91-2.15,18.9-3.55,24.53-4.68Z"/><path class="cls-3" d="M67.92,85l.64-.48C59.74,101,46.41,126.07,54.3,173.32c-.25.2-.57.48-.81.71-2.78-21-7-52.77,14.35-89l.08-.06Z"/><path class="cls-3" d="M144.76,25.25l.2,0c-19.32,9.31-41.21,19.85-68.07,48.47,13.24-13.61,31.37-32.24,67.87-48.44Z"/><path class="cls-3" d="M147.81,24.24l.92-.35c-11.64,6.4-33.3,18.32-28.42,45.47-.41.3-.54.4-.94.73-1.29-11.07-3.44-29.59,28.31-45.81l.12,0Z"/><path class="cls-3" d="M116.51,73.28c-.27.39-.34.5-.62,1-23.55,2.4-31.27,3.45-42.5,5.39.65-.76,1.86-2.16,43.12-6.35Z"/><path class="cls-3" d="M109.49,367.54c.43.36.53.44,1,.75-1.16,14.19-.93,24.65,12.37,40.06-.17-.09-16.58-11.17-13.33-40.82Z"/><path class="cls-3" d="M131.64,414.38l-.36-.35c23,11,46.33,21.2,79.37,25.73l.47.06c-19.55-2.84-41.79-7.15-79.44-25.4l0,0Z"/><path class="cls-3" d="M130.12,413.1l-.74-.54c16.75,6.57,34.58,13.2,68.29,22.17l.32.18a545.36,545.36,0,0,1-67.77-21.73l-.09-.07Z"/><path class="cls-3" d="M54.91,188.8a6.67,6.67,0,0,0,.74-.28c1,21,2.35,47.16,15.36,85.57a8,8,0,0,0-.83.3c-6.53-21-14.65-47.08-15.37-85.57l.11,0Z"/><path class="cls-3" d="M115.48,78.79l.45.25c-24,29.24-40.19,52.88-57.4,94l-.43-.27c12.82-31.52,26.32-57,57.38-94Z"/><path class="cls-3" d="M119.57,78.53c.26-.13.6-.31.85-.46-1.93,29.92,3.41,59.07,36.38,119.54-.35.2-.82.49-1.15.72-25.66-48-39.81-83-36.19-119.74l.12-.06Z"/><path class="cls-3" d="M59.77,182.61c.07-.25.16-.59.29-1.21,14.35,4.18,36,10.48,92.58,21.61-.07.31-.14.73-.19,1-36.56-6.4-72.92-15.3-92.73-21.29l0-.16Z"/><path class="cls-3" d="M178,22.86c-14.79,9.62-30.07,19.57-52.29,45a4.59,4.59,0,0,0-.56-.17c12.46-13.55,28-30.42,52.85-44.82Z"/><path class="cls-3" d="M203,54c0,.24,0,.57,0,.81-25.29,5.47-51.44,11.13-77.41,17.71l.36-.71c11.35-3,23.08-6.16,77-17.81Z"/><path class="cls-3" d="M153.16,209.51c.14.28.34.65.5.92-34.83,27.28-52.31,41-76.1,67.6-.15-.26-.37-.61-.53-.86,10.56-12.41,25-29.41,76.13-67.66Z"/><path class="cls-3" d="M115.54,369.64a2.78,2.78,0,0,0,.45-.28c13.22,14.5,44.17,48.46,80.87,64.5-10.47-4.87-42.31-19.67-81.4-64.19l.07,0Z"/><path class="cls-3" d="M75.45,290.07a6.13,6.13,0,0,0,.75-.14c7.52,21.92,12.95,37.75,30.86,67.46a6.59,6.59,0,0,0-.71.12c-12.52-21.17-20.14-34.74-31-67.44Z"/><path class="cls-3" d="M79.16,283.28c0-.28-.07-.57-.18-1.17,22.2,2.51,41.63,4.61,89.67,8.76,0,.29,0,.68,0,1-37-2.42-84.22-7.79-89.48-8.4l0-.16Z"/><path class="cls-3" d="M116.49,366.22a8.82,8.82,0,0,0-.29-.86c17,6.29,29.32,10.75,65.3,22.57,0,.25,0,.59,0,.85-35.9-11.8-47.38-15.9-65-22.44l0-.12Z"/><path class="cls-3" d="M176,299.93l.88.07c2.53,41.46,3.57,58.63,9.38,84.86l-.85-.05c-3.21-14.86-8.07-37.33-9.4-84.88Z"/><path class="cls-3" d="M170.11,296.38a7.91,7.91,0,0,0,.85,1.06c-23.72,19.72-46,39.38-58,62.93-.41-.41-.5-.49-.93-.86,7-12.71,15.81-28.52,58.09-63.13Z"/><path class="cls-3" d="M182.17,21.83l.73-.35c-1,7.68,2.07,13.94,21.82,28.74a6,6,0,0,0-.57.68c-18.32-13.88-23.28-20.38-22.08-29l.1,0Z"/><path class="cls-3" d="M223.44,8.93h0Z"/><path class="cls-3" d="M220.66,9l1.24,0c-26.61.63-39.62,4.06-38.69,10.19l-.88.4C181.79,13.15,194.63,9.59,220.5,9h.17Z"/><path class="cls-3" d="M224.35,8.93l.18.2a47.34,47.34,0,0,1-6,1.82c-10.65,2.87-21.35,5.54-32,8.41.48-.32.48-.32,7.67-2.28.77-.21,4-1.07,17.55-4.52C222.6,9.81,223.5,9.5,224.54,9l-.19-.08Z"/><path class="cls-3" d="M226.32,440c-.19.1-.19.1-2.54.14-5.08.09-6.51.15-7,.16l-1-.08c2.62-.09,5.42-.14,10.51-.23Z"/><path class="cls-3" d="M201.94,436.5c1.29.42,2.35,1.33,3.65,1.72a71,71,0,0,0,8.15,1.8c-6.81-.69-9.69-2.33-11.8-3.52Z"/><path class="cls-3" d="M339.37,42.28l1.17.75a12.19,12.19,0,0,1,3.11,3.06,4.44,4.44,0,0,1,.09,2.74L342.65,48a5.59,5.59,0,0,0-.37-3.14,10.45,10.45,0,0,0-2.91-2.63Z"/><path class="cls-3" d="M185.8,394.54a7.58,7.58,0,0,0,.89.37c-1.13,11.56-2.84,29,12,39.18-.18-.05-17.6-7.13-12.93-39.55Z"/><path class="cls-3" d="M203.8,436.19l-.52-.25c14.94,2.29,20,3.07,23.3,3.91-.35.19-.93-.1-1.33-.18-3.92-.8-7.62-1.36-21.38-3.45l-.07,0Z"/><path class="cls-3" d="M225,9c2.08,1.5,3.34,2.4.16,11.53-2.45,7-8.86,18.82-14,28.28l-.55-.21C224.48,22.38,229.66,12.57,225,9Z"/><path class="cls-3" d="M245.78,427.51l.2.14c-7.07,5.5-11.34,8.83-17.39,11.71,5.42-3.08,8.14-4.63,17.19-11.85Z"/><path class="cls-3" d="M191.11,394.61a3.19,3.19,0,0,0,.49-.4c29.28,29.61,38.07,39.7,36.09,45.16l-.24.08c1.22-5.68-4.91-13.22-36.42-44.78l.08,0Z"/><path class="cls-3" d="M240.66,362.21a5.54,5.54,0,0,0,.34.82c-30.29,14.45-34.94,16.67-49.62,25.08a7.41,7.41,0,0,0-.52-.71c16.68-9.7,24.1-13.23,49.8-25.2Z"/><path class="cls-3" d="M192.33,393a3.66,3.66,0,0,0,.15-.68c35,16.89,46.52,23,55.42,30.74l-.5.42c-11.15-8.72-19.39-13.27-55.11-30.4l0-.09Z"/><path class="cls-3" d="M206,58.1l.75.15c-20.22,56-30.37,84.06-43.87,138.79l-.8-.19C168.19,168.7,177.76,132.41,206,58.1Z"/><path class="cls-3" d="M423,300.52c0,.1-4.76,10.43-41.34,28.89a11.74,11.74,0,0,0,.33-1.15c17.42-9,29.69-15.82,41-27.73Z"/><path class="cls-3" d="M250.65,108.81c.21.18.5.42.72.59-26.76,31.44-57.13,59.47-84.93,89.92-.21-.23-.5-.52-.72-.73,27.28-30.9,57.61-58.93,84.93-89.78Z"/><path class="cls-3" d="M182.11,298.22a6.44,6.44,0,0,0,.76-.8C235,346.32,235,346.32,243.21,354.74c-.21.16-.48.38-.68.55-4-3.87-4-3.87-60.53-57l.12-.1Z"/><path class="cls-3" d="M184.34,293.33c0-.34,0-.8,0-1.15,108.21,8.81,108.21,8.81,120.33,9.9-.09.38-.2.89-.27,1.27-7.39-.66-7.39-.66-120.05-9.87v-.16Z"/><path class="cls-3" d="M160.91,213.78a8.67,8.67,0,0,0,1.16-.2c3.26,21.67,5.84,38.78,13.17,70.67l-1,.13a641.1,641.1,0,0,1-13.52-70.58l.17,0Z"/><path class="cls-3" d="M168.26,206.22c0-.38.06-.89.07-1.27,44.89,2.38,89.78,4.52,134.66,7,0,.43,0,1,0,1.43-44.9-2.5-89.82-4.64-134.73-7l0-.14Z"/><path class="cls-3" d="M303.68,216.88c.17.39.43.9.64,1.27-39.33,25.18-80.75,46.77-120.87,70.61-.19-.36-.47-.82-.7-1.16,40.26-23.67,81.69-45.32,120.93-70.72Z"/><path class="cls-3" d="M210.95,57.32a5.93,5.93,0,0,0,.66-.48c10.05,12.08,13.09,15.73,39.1,41.74a5.47,5.47,0,0,0-.81.69c-23.34-23.48-29.54-30.14-39-41.89l.1-.06Z"/><path class="cls-3" d="M234.72,14.13l.38.16c.16,7.2-2,13-22.79,35.27a3.92,3.92,0,0,0-.61-.47c14.94-16.11,24-26.5,23-35Z"/><path class="cls-3" d="M277,40.95l.47.54c-14.8,3.56-30.84,6.18-63.91,11.33,0-.24,0-.57,0-.81,24.66-3.84,44.14-6.87,63.47-11.06Z"/><path class="cls-3" d="M269.22,17.24c23.59,10.26,48.82,23.89,75.07,67l-.46-.06c-17.54-26.91-35.26-50.52-74.61-67Z"/><path class="cls-3" d="M344.36,51.62c.13.09,13,10.83,4.91,35.71-.4-.4-.51-.51-.92-.87,2.91-10.22,5.65-19.87-4-34.84Z"/><path class="cls-3" d="M266,16.4c4.3,1.33,9.95,6.82,10.35,7.39,4.28,6.1,4.34,7,4.82,14.22-.31-.2-.53-.33-.86-.51-.81-10.74-2.55-14.05-14.31-21.1Z"/><path class="cls-3" d="M237.17,14.31l0-.16C248.56,20.2,257.61,25.4,275.52,37a2.44,2.44,0,0,0-.16.4c-16.53-10.78-24.79-15.88-38.2-23.1v0Z"/><path class="cls-3" d="M310.8,221.8a7.78,7.78,0,0,0,1.26-.11c1.68,26.12,2.56,44.12.6,73.9l-.89.06c.88-26.27,1.41-42.13-1-73.85Z"/><path class="cls-3" d="M224.54,8.93h-.22c2.25.13,11.46.91,35.43,5.41l.91.31C236.14,10,226.84,9.09,224.57,8.93Z"/><path class="cls-3" d="M225.25,9l-.06,0a57.85,57.85,0,0,1,6.8,2.49l0,.07A57,57,0,0,0,225.26,9Z"/><path class="cls-3" d="M236.29,13.07l-.34-.24c13.88,1,17.37,1.3,25.15,2l1,.33c-7.32-.63-11.44-1-25.75-2l0,0Z"/><path class="cls-3" d="M285.61,44.18a2,2,0,0,0,.11-.41c24.06,16.2,34.53,24,56,41.48a5.08,5.08,0,0,0-.19.64c-21.73-17.79-32.19-25.57-56-41.66l0-.05Z"/><path class="cls-3" d="M280.31,43.85l.64.34c-.24,9.87-.57,23.39-21.36,54.9a7.81,7.81,0,0,0-1-.65c9.33-14.74,22.11-34.92,21.71-54.59Z"/><path class="cls-3" d="M369.54,201.81c.07.64.1.81.21,1.41-19.78,3.92-25.89,5.06-51.57,9.39a11.49,11.49,0,0,0-.18-1.43c25.73-4.35,32-5.49,51.54-9.38Z"/><path class="cls-3" d="M258.64,110.56c.28-.1.65-.26.92-.38,16.31,28.92,31.72,56.23,48.4,94.76-.27.1-.62.25-.88.38-16.14-34.81-22.18-47.84-48.57-94.71l.14,0Z"/><path class="cls-3" d="M343,90.73l.49.8c-7.57,1.64-23.31,5.07-81.16,12.28-.05-.26-.13-.6-.2-.86C336.29,92,336.29,92,343,90.73Z"/><path class="cls-3" d="M347.41,95.61l.48.31c1.5,27.46-3.44,55.5-32.68,110.33-.32-.24-.75-.54-1.09-.75,17.74-33.91,34.92-70.32,33.29-109.89Z"/><path class="cls-3" d="M248.1,365.81a8.22,8.22,0,0,0,.93-.27c3,15.51,7.63,38.94,1.71,56.19l-.63.16c2.3-9.38,5.46-22.22-2.14-56.06l.14,0Z"/><path class="cls-3" d="M305.14,308.4a5.19,5.19,0,0,0,.68.89c-19.66,17.69-22.17,19.85-53,46.25-.15-.18-.35-.41-.52-.58,17.54-15.6,35.44-30.78,52.82-46.56Z"/><path class="cls-3" d="M253.25,361.63a7.39,7.39,0,0,0,.31-.91c20.84,5.11,59.62,14.63,79.62,25.26l-.66.66c-15.55-6.73-30.24-13.09-79.32-24.89l.05-.12Z"/><path class="cls-3" d="M251.16,425.92l.47-.43c7,3.15,9.23,4.48,10.46,7.21l-.91.36c-1.11-2.49-2.57-3.72-10.1-7.08l.07-.06Z"/><path class="cls-3" d="M329.84,389.93c-.08.14-2.93,3.82-76.76,33.6l.12-.37C310.88,399,310.88,399,329.84,389.93Z"/><path class="cls-3" d="M372.57,338.11l.45.12c-10.45,16.9-15.69,25.38-32.63,44.12a3.2,3.2,0,0,0-.47-.12c13.38-15.39,19.49-22.41,32.65-44.13Z"/><path class="cls-3" d="M314.76,309.36a8.81,8.81,0,0,0,.88-.75c17.22,28.93,25.65,49.41,20.93,74.74l-.71.45c2.36-18.67,2.3-36-21.23-74.34l.13-.1Z"/><path class="cls-3" d="M286.44,18.18A154.11,154.11,0,0,1,338.7,45.54l-.31-.17-.29-.15c-3.29-1.72-7-5.16-9.94-7.37-6.36-4.72-18.77-12-41.73-19.67Z"/><path class="cls-3" d="M269,16.74l-.5-.23c27.6,8.62,42.91,15.14,68.28,29.08l.53.52C317,34.93,301.19,26.84,269.1,16.77l-.06,0Z"/><path class="cls-3" d="M352.91,95.94a3.48,3.48,0,0,0,.21-.56c17.47,17,29,28.71,46.31,52.53-.07.16-.16.38-.22.54C385.33,130.2,377,119.18,352.87,96l0-.07Z"/><path class="cls-3" d="M350.29,96.87l.54.06c7.92,16.9,21.16,45.18,24.64,96l-.55-.07c-3.48-30.27-6.77-58.86-24.64-96Z"/><path class="cls-3" d="M372,207.94c.22.23.52.51.75.72-9.47,20.54-20.2,43.82-55.71,88.68-.24-.23-.58-.52-.84-.72,28-36,42.06-58.39,55.8-88.67Z"/><path class="cls-3" d="M401.75,277.31l.46.24c-7,19-10.17,27.72-21,46.85a4.19,4.19,0,0,0-.56-.26c9.26-17.49,14.36-27.13,21.12-46.83Z"/><path class="cls-3" d="M317.5,306a10.59,10.59,0,0,0,.43-1.08c25.54,9.06,39,14.37,56,23.83-.3.48-.39.64-.68,1.15-11.28-6.18-21-11.51-55.79-23.75l.07-.15Z"/><path class="cls-3" d="M400.1,271.06c0,.3-.05.71-.07,1-15.19,7.33-31.81,14.63-81.54,29.81,0-.29,0-.67,0-1,51.62-17,58.25-19.19,81.62-29.87Z"/><path class="cls-3" d="M401.49,158.84c.29.5.38.63.69,1.07-6.2,13.59-8.52,18.67-22.29,36.84a8.92,8.92,0,0,0-.66-1.14c10.85-14.58,14.91-20,22.26-36.76Z"/><path class="cls-3" d="M379.19,208.41a5.92,5.92,0,0,0,.61-.77c8.52,15.67,17.34,31.87,23.56,54.89a8.21,8.21,0,0,0-.71.85c-4.74-15.2-9.65-30.93-23.56-54.86l.09-.1Z"/><path class="cls-3" d="M329.19,392.53l.24.22c-14.76,12-33.12,26.89-62,38.63,16.14-7.35,34.43-15.68,61.76-38.85Z"/><path class="cls-3" d="M405.27,107.39c15.17,25.45,18.19,32.21,26.89,60.21-9-28.57-12-35.32-26.89-60.21Z"/><path class="cls-3" d="M381.45,372.46l-.94,1c-3.46,2.78-8.68,7-41.93,13.86.26-.29.32-.74.75-.89a71.69,71.69,0,0,1,7.67-1.65c8.53-1.83,29-6.7,34.45-12.32Z"/><path class="cls-3" d="M358.83,393.34,357,394.79c-14.29,10.35-20.81,15.07-41.49,24.9,8.37-4.55,17-8.58,25.17-13.54,5.69-3.46,12.84-8.77,18.14-12.81Z"/><path class="cls-3" d="M334.69,390.85q.44-.32.87-.66c-1.05,8.1-2.36,18.18-22.2,30l-1.11.5c9-5.78,21.42-13.71,22.32-29.8l.12-.09Z"/><path class="cls-3" d="M348.68,53c-.14-.17-.3-.33-.45-.49,14.46,9.87,32.46,22.16,48.68,43l.38.54c-10.08-11.89-21.51-25.36-48.56-43l-.05-.06Z"/><path class="cls-3" d="M348.09,53.85c.36.14,39.2,28.37,54.34,93.36L402,147c-6.88-24.85-16.31-58.88-53.91-93.15Z"/><path class="cls-3" d="M402.69,103.7c6.58,9.43,12.46,25.33,3.11,47.45-.28-.52-.35-.65-.65-1.12,4.22-11.59,9.48-26-2.46-46.33Z"/><path class="cls-3" d="M266.95,13.17l1.7.35,7.45,1.72c-1-.24-1-.24-9.15-2.07Z"/><path class="cls-3" d="M236.62,9.28l1.48.09c14.94,1.11,22.31,2.69,25.44,5.43-.36-.11-.73-.18-1.09-.31a6.06,6.06,0,0,1-1.2-.9c-.33-.24-2.44-1.33-6.81-2.23a134.34,134.34,0,0,0-17.82-2.08Z"/><path class="cls-3" d="M265.26,15.32l-1-.3c8.08.43,11.52.68,14.75,1.07l1.34.36c-3-.37-5.9-.62-15-1.11l-.09,0Z"/><path class="cls-3" d="M435.69,183.59c3.37,22.89,8.46,57.49-7.86,107.27,7.31-25.51,16.4-57.27,7.86-107.27Z"/><path class="cls-3" d="M407.82,272.72c.19-.5.32-.92.39-1.14,7.9,7.34,14.14,13.14,16.68,23.73q-.26.62-.5,1.24c-2.21-7.18-3.81-12.37-16.62-23.67l.06-.15Z"/><path class="cls-3" d="M261.89,433.95l.86-.31c1.36,1,3.88,2.87-7.5,4.69-.83.13-1.94.29-2.77.4l-1.43.18c8.86-1.2,14.09-2.49,10.83-4.86l-.11-.07.12,0Z"/><path class="cls-3" d="M305.25,424.36l1-.39c-10.76,4.61-11.18,4.79-19.86,7.5l-1.62.48c11.19-3.61,12.63-4.07,20.36-7.53l.13-.05Z"/><path class="cls-3" d="M307.53,422.87c-.08,0-9.12,3.87-43.46,10.27a6.39,6.39,0,0,1,.88-.36c14.18-3.35,28.62-5.62,42.58-9.91Z"/><path class="cls-3" d="M405.14,162.39l.5.1c6.37,33.12,8.16,56.36,1.08,98.81l-.51-.11c5.47-37.14,6.53-59.08-1.07-98.81Z"/><path class="cls-3" d="M407.76,156.85c-.09-.5-.2-.95-.25-1.14,14.57,7,19.67,10.14,25.39,17.34l.3,1.33c-5.33-6.4-8.9-9.55-25.41-17.38l0-.15Z"/><path class="cls-3" d="M434.7,180.52c.09.34,8.88,34.28-25.85,84-.06-.28-.15-.65-.23-.92,11.74-18.08,29.49-45.41,26.09-83Z"/><path class="cls-3" d="M17.24,163.49c-1,3.32-2.83,10.41-3.59,13.79q1.57-7,3.59-13.79Z"/><path class="cls-3" d="M202.38,439.48l-.4,0c4.12.41,9.79.91,17.22,1.08h-.38q-8.3-.2-16.44-1Z"/><path class="cls-3" d="M53,356l-.11-.15c.41.44,10.31,12.43,10.37,12.51l-.11-.11Q57.85,362.32,53,356Z"/><path class="cls-3" d="M224.22,8.92c-3.7,0-6.87.1-8.88.18q4.42-.18,8.88-.18Z"/><path class="cls-3" d="M152.4,21.89a52,52,0,0,0-7.66,3.3l0,.06c1-.14,14.51-5.4,15-5.71l-.09,0a70,70,0,0,0-7.28,2.37Z"/><path class="cls-3" d="M69.86,79.53c2.93-3.32,5.87-5.78,7-5.85,1.86.35-5.84,9.2-9,11.34-1.3.89-2,.9-1.8,0,.21-1,1.64-3.08,3.81-5.55Z"/><path class="cls-3" d="M123,410.62c-3.53-2.3-4.8-3.7-4.24-3.9l.15,0c2.27.18,13.82,7.51,13,8.25-.38.35-4.29-1.32-8.92-4.34Z"/><path class="cls-3" d="M50.55,180.48c.7-3.88,2.87-7.87,6.18-8,5.15.08,4.66,10.84.41,15-3.09,3-7,1.41-6.84-4.47a16.33,16.33,0,0,1,.26-2.5Z"/><path class="cls-3" d="M68.05,282c-1.09-5.44,1.22-8,3.84-8,7,.47,9.15,12.26,5.65,15.24-2.71,2.31-8,0-9.49-7.21Z"/><path class="cls-3" d="M215.73,440.26a51.19,51.19,0,0,1-5.68-.62c4.05.19,8.07.83,12.13.91-.72,0-3.32-.06-6.46-.29Z"/><path class="cls-3" d="M106.27,363.67c-2.17-3.63-1.78-6.21,1-6.27,5.8.34,11.49,9.55,8.77,12-1.62,1.45-6.53-.34-9.73-5.69Z"/><path class="cls-3" d="M116.47,73.33c1.82-2.61,4.92-5.48,8.14-5.69,3.71,0,1.6,5.15-1.75,8.49-3.76,3.76-7.93,4-8,1.27a7.92,7.92,0,0,1,1.64-4.07Z"/><path class="cls-3" d="M181.1,20.15a21.18,21.18,0,0,1,6.76-2.48c.23,0,.78,0,0,.71-2.43,2.23-10.09,5.75-10,4.26,0-.5,1.23-1.43,3.22-2.5Z"/><path class="cls-3" d="M199.6,435.64c-2.27-.94-3.08-1.61-2.7-1.8a.8.8,0,0,1,.29,0c1.78,0,8.5,3,8.48,3.51-.53.18-3.65-.68-6.07-1.67Z"/><path class="cls-3" d="M152.36,205.14c.18-5,3.39-8.27,8.16-8.43,8.6,0,9.88,10.52,5.15,14.94-4.52,4.23-13.63,2.12-13.31-6.51Z"/><path class="cls-3" d="M181.82,390c-1-3,.44-5.13,3.55-5.18,5.94,0,8.81,6.76,6.23,9.4-2.16,2.21-8,.9-9.77-4.22Z"/><path class="cls-3" d="M168.69,292.22c-.43-5.44,3.28-7.94,7.16-8,8.44.19,10.67,9.71,6.5,13.77-4.33,4.23-13.08,1.53-13.65-5.78Z"/><path class="cls-3" d="M203.2,52.91a6,6,0,0,1,5.86-4.51c5,.06,5.59,5.4,2.91,8.11-2.94,3-9,2.16-9-2.14a5.88,5.88,0,0,1,.2-1.46Z"/><path class="cls-3" d="M240.48,359.13c.43-2.68,2.57-5.61,7.29-5.8,7.49.25,7.26,7.66,3.68,10.81-4.24,3.73-11.55,1.76-11-4.35,0-.2,0-.46.08-.66Z"/><path class="cls-3" d="M224.22,8.92a3.5,3.5,0,0,1,1.07.11h0A1.23,1.23,0,0,1,225,9a4.4,4.4,0,0,0-.75-.08Z"/><path class="cls-3" d="M226.26,440a5.08,5.08,0,0,1,2.05-.77c.36,0,.32.15.17.28a7.59,7.59,0,0,1-3.12.93.2.2,0,0,1,.08,0,7.67,7.67,0,0,0,.82-.4Z"/><path class="cls-3" d="M248.37,103.34c0-2.75,1.64-5.75,6.24-5.93,7.53.21,9.88,8.34,6.31,11.8-3.73,3.62-12.55,1.49-12.55-5.87Z"/><path class="cls-3" d="M232.72,12.73c-.62-.59-1.2-1.31-.38-1.33,1.74.06,5.61,2.31,4.73,3.05-.46.39-2.41.13-4.35-1.72Z"/><path class="cls-3" d="M246.34,424.71a6.93,6.93,0,0,1,5.23-3.07c2.21.05,2.21,1.81,0,3.92-2.57,2.44-6.16,3.12-6.09,1.15a4,4,0,0,1,.87-2Z"/><path class="cls-3" d="M303,213c-.05-5,2.93-8.37,7.42-8.49,8.51.23,9.79,11.51,5.13,15.54C311.18,223.81,303,221.64,303,213Z"/><path class="cls-3" d="M304.38,303.38c1-6.06,5.67-7.75,8.27-7.79,7.76.23,6.87,9.36,2.88,13.13-4.3,4.06-11.29,2.58-11.27-3.83a10.4,10.4,0,0,1,.12-1.51Z"/><path class="cls-3" d="M276.31,40.08c-.56-.82-2.17-3.51.6-3.63,4.65.2,10.27,6.44,8.41,8.11-1.43,1.28-6.13-.26-9-4.48Z"/><path class="cls-3" d="M260.22,433.45c2.66-1.07,5.56-2.17,6.91-2.24.22,0,.42,0,.22.28-1,1.16-10.28,4.21-11.38,4l0-.05c.15-.17.32-.36,4.28-2Z"/><path class="cls-3" d="M369.45,200.33c-.05-4.42,2-7.36,5.14-7.47,6.2,0,8.56,11.68,4.5,15.65-3.39,3.31-9.55.46-9.65-8.18Z"/><path class="cls-3" d="M342.51,89.75c-1.91-3.81-.84-5.53,1.06-5.55,4.75,0,11.8,9.6,9,12.19-1.82,1.67-7-.64-10.05-6.65Z"/><path class="cls-3" d="M262.09,15.12A44,44,0,0,1,257,13.34l.07-.07c1.74.07,12.45,3.06,12.58,4-.53.22-4.34-1-7.59-2.11Z"/><path class="cls-3" d="M331.63,387.6c2.79-3.17,5.88-5.23,8.07-5.37,2.32,0,1.21,2.94-2.46,6.48-4.07,3.92-8.14,5.22-8.2,3.32,0-.92.89-2.49,2.6-4.43Z"/><path class="cls-3" d="M372.6,331.1c1.89-4.12,4.79-6.88,7.38-7,4.35,0,1.4,8.37-2.58,12.16-3.16,3-6.16,2.67-6.05-.68a11.85,11.85,0,0,1,1.26-4.44Z"/><path class="cls-3" d="M400.5,268.55c.76-3.42,2.59-7.15,5.47-7.36,4.65.16,3.56,11.4-.46,15.29-2.23,2.16-5.48,1.65-5.49-4.08a18.68,18.68,0,0,1,.48-3.85Z"/><path class="cls-3" d="M399.46,153.64c-.8-3.18-.8-6.64,1.61-6.83,4.19.05,9,12.08,6.06,15.14-1.74,1.81-5.81-.95-7.66-8.31Z"/><path class="cls-3" d="M340.51,48.76c-2.33-1.82-4.94-4-4.07-4.16,2.41.16,13.6,8.45,12.74,9.44-.27.31-2.42-.4-8.67-5.28Z"/><path class="cls-3" d="M309.17,422.13c4.73-2.15,6.89-3.12,7.56-3.25-.38.94-13.48,6.43-14.78,6.64.07-.15.07-.15,7.22-3.4Z"/><path class="cls-3" d="M423.73,298.29c1.64-4.53,3.13-7.46,3.89-7.63,1.4.31-3.54,14.38-5.45,15.52-.55.32-.56-.78,0-2.89.41-1.65,1.09-3.63,1.59-5Z"/><path class="cls-3" d="M279.93,16.33c-2.59-.7-5.22-1.22-7.79-2,3.38.64,13.27,3.32,16,4.33a6.8,6.8,0,0,1-1.08-.29c-3.78-1.1-4.92-1.43-7.17-2Z"/><path class="cls-3" d="M433.44,175.43c-.79-3.38-1.67-7.51-1.42-8,.71.58,4.13,15.08,3.85,16.34-.46-.15-1.72-5.3-2.43-8.35Z"/><path class="cls-3" d="M400.15,100.08c-1.39-2-2.84-3.89-4.18-5.89h0l2.37,3.18,7,10.15c-1.81-2.43-3.46-5-5.21-7.44Z"/><path class="cls-4" d="M301.89,427.39l-.73.32c16.51-6.55,23.34-9.27,40.92-20l1.64-1.07c-14.46,8.82-19.87,12.12-41.73,20.74l-.09,0Z"/><path class="cls-4" d="M357.49,396.74l1.34-1.05c9.57-8.24,9.75-8.4,14-13.39-.3.26-.61.51-.9.79-1.93,1.82-4.24,4.52-6.06,6.46a81.61,81.61,0,0,1-8.35,7.19Z"/><path class="cls-4" d="M303.27,426.65c26.13-11.79,39.39-18.85,65.74-41.6l0-.12c-22.23,18.83-34.39,27.87-65.71,41.72h0Z"/><path class="cls-4" d="M379.22,72.08l-1.16-1.17-1-1c-14.78-13.52-42.29-38.68-93-53.86,34.69,13,62.09,23.2,95.09,56Z"/><path class="cls-4" d="M390.73,84.7l-.95-1.12c-1.73-1.74-4.05-4.05-5.93-5.63.29.33.55.69.86,1,1.78,1.75,4.34,3.9,6,5.75Z"/><path class="cls-4" d="M426.33,172.81c.15.21.32.5.45.72-1.17-18.12-2.78-42.93-24.67-74.09l-1.36-1.9c10.41,15.84,24.66,37.54,25.52,75.18l.06.09Z"/><path class="cls-4" d="M284.31,23l.88.46c.83-2.27,1.05-2.87-.36-4.88-1.1-1.56-3.76-2.81-5.7-3.73l-1.29-.36C281,16,282.63,16.78,284,18.57s.76,3,.21,4.4l.12.06Z"/><path class="cls-4" d="M375.94,70.76C354,50.63,330.5,31.31,284.74,16.31c29.12,10.27,56.07,21.45,91.2,54.45Z"/><path class="cls-4" d="M378,73.5c-.16-.2-20.72-21.16-89.08-47.71,2.75,2.23,7.62,3.23,10.91,4.56C346.28,49.09,368.5,66.2,378,73.5Z"/><path class="cls-4" d="M299.7,427.82c.18-.07,18.28-6.9,30.39-22.35a11.47,11.47,0,0,0-1,.57c-2,1.44-3.79,4.22-5.41,6-.29.32-7.25,8-24,15.74Z"/><path class="cls-4" d="M380.83,373.48c29.76-32.28,43.08-55.8,54.79-96.77q.59-2.41,1.13-4.84c-6,22.48-16,60.11-55.92,101.59v0Z"/><path class="cls-4" d="M441.82,219.19q0-.85,0-1.7c-1.21-10.36-2.25-19.3-12.33-34.06a4.56,4.56,0,0,0,.05,1.25c1,2.76,3.53,5.82,5,8.31a58.42,58.42,0,0,1,7.29,26.19Z"/><path class="cls-4" d="M410.72,248.3c.13.17.27.41.38.59,6.85-17.4,13.33-33.84,15.35-61.52a7.83,7.83,0,0,1-.52-.77c-1.87,17.38-3.64,33.79-15.28,61.62l.07.09Z"/><path class="cls-4" d="M412,253.49c0,.55,0,1,0,1.24,18.66-8.53,28.4-14.63,29.83-24.34q0-.75,0-1.51c-1.52,7.19-4.55,13.15-29.82,24.43,0,.05,0,.12,0,.17Z"/><path class="cls-4" d="M250.08,439.31c13.79-3.5,39.45-10,75.36-32.47l.1-.36c-15.9,9.51-42.5,25.42-75.43,32.82Z"/><path class="cls-4" d="M373.17,115.71c.21.28.4.56.6.85,10.69-12.78,15.41-22.46,9.74-37l-.93-1c4.29,12.12,4,20.75-9.52,37l.1.13Z"/><path class="cls-4" d="M425.28,171.73c.12.08.26.2.37.28-4.09-22.08-9.69-52.31-38.76-89.44l-.41-.28c13.22,17.93,31.32,42.49,38.74,89.4l.06,0Z"/><path class="cls-4" d="M423.15,175.17c0-1.79-12.84-23-46.87-51.83,0,.22,0,.52,0,.74,17.59,15.88,32.77,29.6,46.9,51.09Z"/><path class="cls-4" d="M336.9,400.16l-.56.56c10.34-4.72,22.06-10.08,34.7-18.49l.82-.89c-9.31,5.89-16.67,10.54-34.88,18.73l-.08.09Z"/><path class="cls-4" d="M379.11,374.34c.39-.3,38.12-34.79,30-111.35l-.45.45c2.53,36.26,2.05,69.63-29.58,110.91Z"/><path class="cls-4" d="M376,377.18c.15-.15,15-15-11.64-43.81-.34.5-.43.63-.79,1.1,11,12.58,20.31,25.31,12.43,42.72Z"/><path class="cls-4" d="M225.65,7.15a24.71,24.71,0,0,0,2.93,0,3.43,3.43,0,0,0-.46,0l-1.48,0h.61a13.8,13.8,0,0,1-1.64,0Z"/><path class="cls-4" d="M275.38,13.83c-5.16-1.4-30.31-5.08-49.25-6.64,44.13,5.69,44.13,5.69,49.25,6.64Z"/><path class="cls-4" d="M272.33,12.79l.87.2c-12-2.84-17-4-34.9-5.46l-1.77-.11c15.39,1.23,20.5,1.74,35.66,5.33l.14,0Z"/><path class="cls-4" d="M239.24,441.9l2.21-.16c23-2.52,29-3.75,49-10.13-14.79,4.62-27.55,8.62-51.24,10.29Z"/><path class="cls-4" d="M247.46,440l-.83.18a382.75,382.75,0,0,0,45-9.33l1.18-.44A382.44,382.44,0,0,1,247.57,440l-.11,0Z"/><path class="cls-4" d="M282.4,420.47l-.41.43c20.17-6.59,30.92-10.59,44.84-16.08l.75-.74c-16.23,6.4-24.12,9.32-45.12,16.33l-.06.07Z"/><path class="cls-4" d="M335.44,398.28c.19-.09,19.94-16.25,25.34-61.3l-.72.4c-3.18,20-5.93,37.3-24.62,60.9Z"/><path class="cls-4" d="M248.92,439.36c1.4-.26,14.06-2.89,26.2-14.21a4.39,4.39,0,0,0-.71.22c-2.28,1.23-4.68,3.83-6.68,5.47-4.73,3.87-15.43,7.54-18.81,8.52Z"/><path class="cls-4" d="M225.2,442.41h1.51c13.61-.24,16.71-1.1,17.89-1.83l-1,.18a2.81,2.81,0,0,0-.61.3c-.9.45-4.46.79-5.8.91s-4.85.37-12,.44Z"/><path class="cls-4" d="M224.22,442.41A135.47,135.47,0,0,0,240.76,441l.86-.16a141.42,141.42,0,0,1-17.4,1.57Z"/><path class="cls-4" d="M407.2,247.5l.56-.24c-1.2-24.11-3.2-64.46-32.79-121l-.58.23c15.47,31.48,30.74,66.76,32.81,121Z"/><path class="cls-4" d="M365.72,324.12l.25.29c11.77-15,23.94-30.57,38.63-60.83a4.27,4.27,0,0,1-.54-.7c-9.73,19.24-16.76,33.14-38.41,61.17l.07.07Z"/><path class="cls-4" d="M359.49,325.07l.61-.47c-2.39-14.43-8.72-52.76-58.56-123.78-.3.26-.73.6-1.05.83,25.41,37.32,52.29,81.17,59,123.41Z"/><path class="cls-4" d="M403.63,253.3c.08-.32.2-.73.3-1-22.66-18.38-51.7-34.48-100.23-55.56-.07.31-.17.72-.26,1,42.12,19.63,72.55,33.81,100.19,55.58Z"/><path class="cls-4" d="M251,104.94c.35,0,.82-.07,1.17-.09h0c-3.14-16.47-12.71-66.61-22.87-90.78l-.35,0h0c2.59,6.82,10.46,27.58,22,90.84Z"/><path class="cls-4" d="M279.45,22.57c-1.72-1.3-36-12.62-52.49-15.24,9.95,2.07,22.33,4.66,52.49,15.24Z"/><path class="cls-4" d="M280.91,23.57c-.82-.53-.83-.54-7.87-2.1-14.22-3.14-28.52-5.9-42.73-9.06l.09.28c16.79,3.83,33.71,7.09,50.51,10.88Z"/><path class="cls-4" d="M225,442.41c9.63-.95,20.55-2,47.52-17l-.1-.23c-13.94,7.59-29.74,16.19-47.39,17.27Z"/><path class="cls-4" d="M366.48,112.07l.42-.11C348.23,79.32,328,52.46,290,27.47c25.39,17.84,48.67,36.52,76.5,84.6Z"/><path class="cls-4" d="M257.21,106.52c.23.18.51.43.72.63,24.83-27.93,45.51-57,28.79-80.39l-.91-.41C296.49,43,295.69,63,257.08,106.42l.13.09Z"/><path class="cls-4" d="M302.06,188.85a9.55,9.55,0,0,1,.59.91c29.05-22.29,51.42-42,66.12-65.92-.35-.41-.52-.59-.86-1.06-10.48,16-23.4,33-65.95,65.93l.11.14Z"/><path class="cls-4" d="M366,119.38c-.15-.36-.34-.84-.47-1.21-21.53-1.62-45.78-3.34-105.33-6.47,0,.36.08.84.09,1.2,26,1.38,69.43,3.68,105.72,6.48Z"/><path class="cls-4" d="M224.22,442.41l-1,0,1,0Z"/><path class="cls-4" d="M224.22,442.41h0c6.63,0,9.37-2.08,8.13-6.17l-.39.23c.11,1.35.07,3.59-1,4.42-1.33,1-3.53,1.52-6.73,1.52Z"/><path class="cls-4" d="M234.16,433.91c0,.07,0,.16-.06.23,13.07-3.45,39-10.5,39.21-10.57l.55-.56c-13.23,3.62-26.49,7.12-39.69,10.85v0Z"/><path class="cls-4" d="M356.58,328.65c.16-.27.37-.63.54-.89-19.76-13.66-44.13-25.64-89.92-44.2-.1.3-.25.7-.37,1C318.7,307,332.64,313,356.58,328.65Z"/><path class="cls-4" d="M282.68,418.53c20.48-15,45.31-36.39,74.12-80.66a5.88,5.88,0,0,1-.68-.3c-12.87,19.33-34.42,51.69-73.49,80.95Z"/><path class="cls-4" d="M276.8,420.63l.86-.55c-4.95-10.25-13.23-17.29-36.92-31.42a5.94,5.94,0,0,1-.55.8c23.76,14.2,32,21.19,36.6,31.17Z"/><path class="cls-4" d="M241.23,383.62c.07.19.14.45.21.65,74.91-30.35,101.83-44,113.33-49.89,0-.33.07-.77.11-1.1-34.46,17.18-49.67,23.53-113.69,50.24l0,.1Z"/><path class="cls-4" d="M246.83,107.17c.17-.19.41-.44.59-.62C207.87,68.88,199.64,61,190.18,44.09l-.57.41c10.89,19.33,25.07,33.24,57.22,62.67Z"/><path class="cls-4" d="M245.44,111.29c0-.35,0-.81.09-1.16-47.7-7.75-69.47-11.28-103.23-18.24-.15.33-.36.76-.53,1.08,34.64,7.09,54.85,10.38,103.67,18.32Z"/><path class="cls-4" d="M262.57,273.31c.29.1.67.26,1,.39a742.62,742.62,0,0,0,30.21-71.27,9,9,0,0,1-1.27-.54c-9.19,24.25-14.25,37.61-30,71.36l.16.05Z"/><path class="cls-4" d="M291.67,186.57c.26-.14.62-.31.89-.43-8.46-18-12.71-27.11-35.43-67.81l-.81.36c28.93,54.69,28.93,54.69,35.34,67.88Z"/><path class="cls-4" d="M132.86,191.66c.1.17.22.41.32.59,37.78-25.66,76.38-50.07,114.17-75.71-.24-.3-.55-.7-.77-1-37.93,25.34-77,49-113.81,76l.09.14Z"/><path class="cls-4" d="M134,196.29c0,.25,0,.58,0,.84,18.82.25,18.82.25,154-2.11,0-.43-.07-1-.08-1.43-51.3.88-102.6,1.64-153.91,2.6v.11Z"/><path class="cls-4" d="M217.55,7.24l-1.1.06,9.1-.1-.28,0-7.62.09Z"/><path class="cls-4" d="M173.32,425l.66.38c4.26-9.19,14.84-18.07,56.32-36.28a5.06,5.06,0,0,1-.35-.84c-32.08,14.26-52.77,25.37-56.73,36.68l.11.06Z"/><path class="cls-4" d="M232.06,432.42l.45,0c1.49-6.26,3.75-15.71,3.69-40.68a6.87,6.87,0,0,1-1,.08c0,11.62,0,29.18-3.18,40.63Z"/><path class="cls-4" d="M220.48,442.22c-14.76-1.79-29.12-7.9-41.8-13.3a136.75,136.75,0,0,0,41.8,13.3Z"/><path class="cls-4" d="M221.77,442.3l.43,0a5.81,5.81,0,0,1-2.51-1c.57-1.21,1-2,9.41-5.46a2.19,2.19,0,0,1,0-.32c-2.16.92-5.08,2.1-7.13,3.25a9.06,9.06,0,0,0-2.58,2.23c.56,1,.57,1,2.36,1.22Z"/><path class="cls-4" d="M229.25,434.65l.12-.29c-17.67-2.94-35.48-4.94-53.2-7.52.71.49.71.49,7,1.42,15.36,2.26,30.77,4.11,46.12,6.4Z"/><path class="cls-4" d="M141.85,85.54a5,5,0,0,1,.44.41c16-16.22,23.34-23.62,41.81-40.79a2.29,2.29,0,0,1-.46-.41C169.84,57.57,158,68.7,141.77,85.48l.08.06Z"/><path class="cls-4" d="M230.36,383.8l.39-.63c-43.08-25.42-88.16-47.32-130.39-74.23l-.11.73c14.86,9.89,18.39,12.24,38.56,23.73,30.27,17.25,61.25,33.21,91.55,50.4Z"/><path class="cls-4" d="M236.63,380.66l.51.05c9.55-34.22,20.12-85.56,21.3-91.3a9.76,9.76,0,0,1-1.33-.18c-4.94,24.06-8.21,40-20.6,91.41Z"/><path class="cls-4" d="M251.92,277.46c.2-.37.5-.86.74-1.21C164,223,164,223,133.12,201c-.19.38-.46.89-.68,1.26,29.45,20.7,29.45,20.7,119.48,75.24Z"/><path class="cls-4" d="M99.54,303.86c.09.24.19.57.27.81,99.79-14.8,99.79-14.8,151.31-21.67,0-.41-.09-1-.1-1.37-69.28,9.15-111.1,14.67-151.54,22.08l.06.16Z"/><path class="cls-4" d="M228.58,10.66l.27.14-.25-2.1-1.53-1.2-.25-.05,1.55,1.24.17,2,0,0Z"/><path class="cls-4" d="M185.2,15.63l-.6.29C224.33,8.17,224.33,8.17,226,7.43l0-.17-.29-.05,0,.21c-.71.28-.71.28-40.37,8.16l-.09,0Z"/><path class="cls-4" d="M192.72,37.83a3.57,3.57,0,0,1,.17.41c22.92-14.7,29.15-19.5,34.43-24.69l-.3-.26c-5,4.7-8.09,7.54-34.33,24.48l0,.06Z"/><path class="cls-4" d="M185.44,38.94a9.07,9.07,0,0,1,.71-.62c-5.26-6.38-10.71-13-5.25-20.69-1,.43-4.23,2.48-2.5,10.59.51,2.38,2.88,6,7.05,10.73Z"/><path class="cls-4" d="M184.38,16l-.64.3c10.9-1,42.45-3.88,42.73-3.91,0-.09-.07-.22-.09-.31-14,1.29-27.94,2.48-41.9,3.87l-.1,0Z"/><path class="cls-4" d="M168.29,423.34c-17-14-48.77-40.07-71.5-110.17l-.57,0c10.12,31.89,28.61,78,72.07,110.12Z"/><path class="cls-4" d="M38.74,232.42c.06.33.12.76.16,1.09C62.72,221,78.46,214,119.37,200.11a10.75,10.75,0,0,1-.2-1.4c-39.78,13.53-57.83,21.05-80.46,33.54l0,.17Z"/><path class="cls-4" d="M94.46,298l.53.25c6.66-33.94,10.84-50.75,28.5-93-.34-.16-.78-.39-1.1-.58-18,43.18-23,62.86-28.05,93.27l.13.06Z"/><path class="cls-4" d="M125.58,188.59l.92-.14c.36-39.59,1.19-56.48,9-90.59-.3,0-.71.1-1,.12-6.64,29.09-9.34,48.11-8.9,90.6Z"/><path class="cls-4" d="M120.17,193a8.75,8.75,0,0,1,.72-1.23c-22.41-18.29-40.66-34.07-54.57-56.52-.33.5-.43.63-.77,1.08,10.32,15.77,20.29,29.07,54.63,56.68Z"/><path class="cls-4" d="M188.44,438.31a4.35,4.35,0,0,1,1,.22c-6.94-2.38-12.42-4.26-15.17-10.15l-.93-.45c2.15,3.88,3.7,6.69,15,10.35l.13,0Z"/><path class="cls-4" d="M167.89,424c-23.89-13.81-38.75-22.74-66.26-45.72l-.08.38c14.63,12.15,32.84,27.28,66.34,45.33Z"/><path class="cls-4" d="M93.57,367.9l.69.41c-4.37-19.31-5.6-29.13-1.17-56a8.24,8.24,0,0,1-1-.68c-3.57,23.31-3.9,35.3,1.37,56.16l.11.06Z"/><path class="cls-4" d="M88,300.58c.08-.23.19-.54.29-.76-20.1-20.17-34.63-34.75-49.78-59a9,9,0,0,1-.36,1c9.81,15,20,30.56,49.85,58.78Z"/><path class="cls-4" d="M184.15,14.85c.28-.09.57-.16.85-.26,4.25-1.5,9.78-3.91,14.14-5a98.93,98.93,0,0,1,13-2c-16.08,1.29-25.07,5.79-28,7.26Z"/><path class="cls-4" d="M137.08,85.28l.76-.25c4.48-21.13,10.06-47.43,39.66-66.19-.3.07-31.19,11.79-40.42,66.44Z"/><path class="cls-4" d="M136.23,28.59l-.81.44c10.88-3.43,19.47-6.14,42.43-11.61l.83-.41c-22.62,5.35-31.08,7.92-42.33,11.51l-.13.07Z"/><path class="cls-4" d="M69.06,127.68c0,.26-.06.6-.09.86a692.35,692.35,0,0,1,61.51-33.66,5.7,5.7,0,0,1,0-1c-17.27,8.59-38.76,19.29-61.42,33.69v.13Z"/><path class="cls-4" d="M133.05,88.22a11.3,11.3,0,0,1,.88-.93c-17.44-21.23-23.64-37.11-3.72-55.49-.14.07-14.12,8.29-13.24,25.65.62,12.24,10.3,23.84,16.08,30.77Z"/><path class="cls-4" d="M41.22,107c3.51-5,8.2-11.61,12-16.37l.37-.55c-3.33,4.38-7.83,10.17-10.92,14.72L41.22,107Z"/><path class="cls-4" d="M57.38,85.09l0,.13.9-1.07,0-.13-.9,1.07Z"/><path class="cls-4" d="M184.51,437.52c-21.11-6.56-53-16.47-84.41-58.22-.2,0-.48-.08-.68-.14,18,22.6,39.38,45.72,85.06,58.35Z"/><path class="cls-4" d="M185.48,437.91c-30-8.36-37.07-10.34-62.62-23,.15.12,20.42,12.85,62.62,23Z"/><path class="cls-4" d="M14.83,165.22c3.8-8.46,9.71-16.63,43.74-31,.12-.53.16-.68.33-1.25-24.75,10.68-39,18.76-43.66,30.83l-.41,1.43Z"/><path class="cls-4" d="M35.2,226.57l.44.17c3.55-25.35,6.91-49.29,24.61-87.48a4.81,4.81,0,0,1-.64-.25c-9.46,21.55-20.17,46-24.49,87.54l.09,0Z"/><path class="cls-4" d="M60.74,128.84c.33-.54.42-.67.76-1.15-7.82-12.59-13.13-23.57-4.68-40.51-3.12,3.64-12.05,17.41,3.92,41.67Z"/><path class="cls-4" d="M64.37,124.87c.25-.14.59-.32.85-.45,5.32-22.37,14.21-59.8,61.46-90.94-.47.18-48.19,23.83-62.31,91.39Z"/><path class="cls-4" d="M90.36,367.31c-18.77-26.67-44.47-63.2-54-123.33l-.59.2c4.34,23.21,13.36,71.52,54.62,123.12Z"/><path class="cls-4" d="M113,408.68l.77.44c-11.9-11.92-15-17.53-17.4-31.62-.36-.27-.55-.42-1-.79,2.44,13.73,5,19.58,17.5,31.9l.12.07Z"/><path class="cls-4" d="M20.53,301.52c10.26,22.39,24.41,40,69.76,68.88-.1-.23-.14-.59-.31-.77-2.72-2.72-7.53-4.88-10.76-7-44-28.54-54.32-51.61-59.28-62.69l.58,1.56Z"/><path class="cls-4" d="M8.54,195.26c-.11,8.59-.26,19.29,22.29,37.84,0-.6.06-.79.15-1.41-13.08-11.41-23.77-22.14-22.22-38q-.11.76-.21,1.52Z"/><path class="cls-4" d="M13.36,278.87c-1.29-9.28-2.75-19.79,18-39.58-.14-.59-.18-.76-.29-1.4C21.41,247.59,9.4,259.65,13,277.38l.38,1.49Z"/><path class="cls-4" d="M224.22,442.41h-.71l-.63,0h-.4c.31,0,.61,0,.92,0Z"/><path class="cls-4" d="M222.61,442.38c-3.07-.14-12-.7-29.05-3,2.07.42,18,2.49,29.05,3Z"/><path class="cls-4" d="M152.11,430.14c7.11,2.31,16,5.19,37.23,8.69-31.64-6.76-31.64-6.76-38.64-9.19l1.4.5Z"/><path class="cls-4" d="M212.91,442.12c-5.1-.31-13.63-.83-19.59-2.52l-1.26-.23c2.84.77,7.12,1.93,19.35,2.67l1.5.08Z"/><path class="cls-4" d="M34.71,331.75c10.46,16.8,29.93,48.07,75.38,76.06-3.28-3.53-9.31-6.3-13.32-9-6.54-4.34-40.33-28.1-63.63-69.92q.78,1.42,1.57,2.82Z"/><path class="cls-4" d="M133.09,422.41c-6.43-3.25-10-5-14.22-8.84l-1.16-.66a56.7,56.7,0,0,0,14,8.85l1.37.64Z"/><path class="cls-4" d="M86.73,393.38c8.74,6.55,12.73,9.53,25.89,16.36-.31-.21-.61-.45-.93-.65-2.47-1.58-6-3.28-8.6-4.68a129.43,129.43,0,0,1-17.61-12.05l1.25,1Z"/><path class="cls-4" d="M218.67,7.15a22.51,22.51,0,0,0-2.48.13c2.8-.14,2.8-.14,4-.16l-1.48,0Z"/><path class="cls-4" d="M177.44,12.14c-17.66,4.39-27,7.21-42.1,15.81,5.82-2.63,11.22-6.14,17.25-8.37,10.21-3.77,13.11-4.69,26.63-7.83l-1.78.38Z"/><path class="cls-4" d="M139.29,26.76,139,27c18.42-7.55,39.29-16.11,71-19.25l.57-.06c-17.74,2.16-37.85,4.62-71.24,19l0,0Z"/><path class="cls-4" d="M133.3,27a6.46,6.46,0,0,0-2.1,1.57c-.23.34,0,1,.16,1.34l1.21-.62a2,2,0,0,1,.07-1.59,5.54,5.54,0,0,1,1.94-1.28L133.3,27Z"/><path class="cls-4" d="M66.43,75,61.05,81c1.11-1.21,1.11-1.21,6.64-7.39L66.43,75Z"/><path class="cls-4" d="M63.31,79.17l-.22.31C77,65.94,92.86,50.6,125.38,33.53l.39-.32C108.61,42.69,87.25,54.5,63.35,79.12l0,.05Z"/><path class="cls-4" d="M380.9,76.78c3.53,3.84,5.85,6,6.37,5.91.31-1.12-9.61-11.81-11.29-12.18l-.06,0c-.14.4,1.54,2.5,5,6.24Z"/><path class="cls-4" d="M373.56,379.58c-4.95,5-4.7,5.47-4.5,5.48,1.35.07,12.44-11,11.75-11.7a.14.14,0,0,0-.09,0c-.35,0-1.75.74-7.16,6.25Z"/><path class="cls-4" d="M294.53,429.77c-6.57,2.45-6.57,2.45-6.8,2.57,1.26.17,14.24-4.73,15.5-5.63v-.06c-.51.06-.51.06-8.7,3.12Z"/><path class="cls-4" d="M276.51,14.14c8.2,2.26,8.2,2.26,8.37,2.27-.59-.66-13.73-4.1-16-4.33a14.79,14.79,0,0,0,2.29.64c.91.24,3.06.8,5.3,1.42Z"/><path class="cls-4" d="M423.93,181c1.38,6.07,3.74,8.64,4.92,6.89,1.82-2.69-.84-16.12-4.23-16.39-2,.31-1.65,5.31-.69,9.5Z"/><path class="cls-4" d="M329.07,402.74c-3.69,3.16-4.1,4.39-3.25,4.48,2.67.3,13.62-8.13,12.33-9.5a.7.7,0,0,0-.5-.16c-1.65.07-4.93,2-8.58,5.17Z"/><path class="cls-4" d="M403.06,257c-.41,6.52,2.75,9,5.63,6.41,4.05-3.61,4.81-16-.12-16.3-2.83.09-5.15,4.25-5.5,9.9Z"/><path class="cls-4" d="M365.9,119.19c3.08,7.28,8.9,9.15,10.15,5.78,1.34-3.6-3.38-12.8-8.66-13-2.67,0-3.28,3-1.5,7.26Z"/><path class="cls-4" d="M355.47,331.09c-2.07,5.71.71,8.1,4.47,6.34,5.53-2.57,8.93-12.46,4.79-13.92a3.44,3.44,0,0,0-1.12-.18c-3.24.14-6.51,3.26-8.14,7.76Z"/><path class="cls-4" d="M282.33,24.45c5.32,3.21,7.88,3.49,7.81,2.74-.13-1.5-8.71-6.09-11.62-6.22-.33,0-.89.08.36,1.14a30.64,30.64,0,0,0,3.45,2.33Z"/><path class="cls-4" d="M243.17,440.55c-1.66.33-3.36.47-5,.93,1.14.05,10.66-1.47,12.09-2.26l-.08,0c-.16,0-.16,0-7,1.38Z"/><path class="cls-4" d="M274.68,422.26c-2.29,2-2.9,3.23-1.59,3.3,3.24.18,11.35-5.48,9.86-6.89a1.21,1.21,0,0,0-.83-.23c-1.91.06-4.76,1.53-7.43,3.82Z"/><path class="cls-4" d="M224.22,442.41c.33,0,.66,0,1,0h-1Z"/><path class="cls-4" d="M287.95,194.28c.47,8.83,9.74,10.71,13.87,6.26,3.74-4,2.64-14.47-6.31-15-4.79.1-7.83,3.6-7.56,8.7Z"/><path class="cls-4" d="M225.4,7.17c.41.06.77.14,1.22.24a3.74,3.74,0,0,0,1.13.17,9.43,9.43,0,0,0-3.54-.49h0a8.28,8.28,0,0,1,1.18.08Z"/><path class="cls-4" d="M251,281.26c-.22,8.41,9.09,10.2,13.81,6s3.76-13.78-4.43-14.39l-.69,0c-6.25.33-8.59,4.56-8.7,8.4Z"/><path class="cls-4" d="M245.51,112.44c.94,7.32,10.11,8.46,13.43,4.44,2.86-3.47,1.12-11.69-6.72-12h0c-4.5,0-7.25,3.16-6.68,7.59Z"/><path class="cls-4" d="M229.17,434.91c-.56,2,1.18,2.48,2.94,1.49s3-3.36,1.15-3.92a2.55,2.55,0,0,0-.7-.1,3.54,3.54,0,0,0-3.38,2.53Z"/><path class="cls-4" d="M226.38,12.09a2.63,2.63,0,0,0,2.62,2h0c1.81,0,1.81-1.57.53-2.78a3.22,3.22,0,0,0-2-.91c-1.49.06-1.19,1.52-1.15,1.68Z"/><path class="cls-4" d="M229.69,386.6c0,5.42,6.62,6.81,10.1,3.31,3.17-3.19,2.34-9.22-3.68-9.28-4.73.24-6.42,3.24-6.42,6Z"/><path class="cls-4" d="M183.56,41.64c-1.57,3.65,1.63,4.69,4.56,3.61,4-1.49,6.45-7,3.63-8.32a3.39,3.39,0,0,0-1.38-.28,8.32,8.32,0,0,0-6.81,5Z"/><path class="cls-4" d="M223.21,442.4h1a31.88,31.88,0,0,1-3.65-.23c-.24,0-.48-.06-.72-.07h0a22.67,22.67,0,0,0,3.39.28Z"/><path class="cls-4" d="M119.15,197.27c-.38,8.4,7.64,10.49,12,6.5s4.63-14.84-4-15.35c-3.63,0-7.66,2.82-7.93,8.85Z"/><path class="cls-4" d="M131,91.65c-2.18,5.66,2.17,7.47,6.17,5.65,5.37-2.45,7.92-10.68,3.79-12.23a4.66,4.66,0,0,0-1.54-.26c-3.43.05-6.89,2.87-8.42,6.84Z"/><path class="cls-4" d="M171.33,426.83c3.84,2.31,7.72,3.45,7.56,2.5-.22-1.25-7.46-6-10.32-6-.92,0-1,.55-.11,1.41a16.71,16.71,0,0,0,2.87,2.09Z"/><path class="cls-4" d="M88.51,306.48c2.47,7,9.5,8.76,11.41,4.25,1.68-3.94-1.35-13.07-7.85-13.25-4.53.26-5,4.85-3.56,9Z"/><path class="cls-4" d="M179.81,16.49c-3.22,1.41-4.34,2.36-3.75,2.53,1.21.36,11.49-4,11.46-4.88a.87.87,0,0,0-.22-.05,31,31,0,0,0-7.48,2.4Z"/><path class="cls-4" d="M92.57,373.84c4,4.94,8.77,6.85,9,4.47.33-2.79-6.14-11-10.47-11.17-1.94,0-2.11,2.39,1.42,6.7Z"/><path class="cls-4" d="M59.31,131.79c-2.3,5.92-.18,8.68,3.18,7.1,5.08-2.4,8.81-13.38,5-14.69a2.72,2.72,0,0,0-.77-.12c-2.62.08-5.66,3.25-7.39,7.71Z"/><path class="cls-4" d="M216.52,7.27c-3.84.19-6.65.47-7.1.53,4.92-.16,9.83-.72,14.76-.72-2.56,0-5.14.06-7.66.19Z"/><path class="cls-4" d="M191.17,439.2c4,.78,7.61,1.29,8,1.29-.08,0-14.05-2.94-14.81-3,.28.32,4.69,1.28,6.78,1.69Z"/><path class="cls-4" d="M30.83,235.74c.44,7.71,4.23,10,6.47,7.48,3.18-3.64,2-16.59-2.71-16.74-2.94.2-4,4.8-3.75,9.25Z"/><path class="cls-4" d="M130.66,30.27c-2.47,1.31-5.39,3-5.49,3.59.65.45,13.89-6.36,14.46-7.43l-.1,0c-1.07.12-5,1.86-8.86,3.89Z"/><path class="cls-4" d="M115.89,411.83c3.39,2.07,7.38,4.15,7.9,4-.22-.84-12.49-8.37-14-8.57l-.09,0c-.16.48,3.07,2.72,6.15,4.59Z"/><path class="cls-4" d="M57.69,84.88c-1.65,2-4.78,5.84-4.8,6.41.67,0,10.71-11.92,10.74-12.74h0c-.54.19-3.43,3.37-5.92,6.33Z"/><path class="cls-4" d="M224.22,442.41h0Z"/><path class="cls-4" d="M18.23,169.67c-.12.18-.27.43-.37.62,4.34-24.78,7.47-36.66,23.36-63.29l1.44-2.2c-15.39,25.56-19.5,36.46-24.38,64.79l-.05.08Z"/><path class="cls-4" d="M57.38,85.09l.9-1.07c1.12-.39,2.51-.87,21.75-1.71q-.4.51-.78,1c-10.9.5-20.77,1-21.87,1.73Z"/><path class="cls-4" d="M16.27,174.43c-.12.4-.22.81-.33,1.21-1.76-5.31-2-6.12-1.12-10.42l.41-1.43c-.67,5.21-.77,6,1.08,10.47l0,.16Z"/><path class="cls-4" d="M20.53,301.52,19.95,300c-.81-2.81-2.07-6.51-2.66-9.37,1.28,3.58,1.93,7.35,3.24,10.93Z"/><path class="cls-4" d="M8.54,195.26q.1-.76.21-1.52c2-7.62,2.19-8.24,6.41-14.44a5.78,5.78,0,0,1-.2,1.34c-.78,1.87-2.5,4-3.57,5.74-1.48,2.38-2.31,6.14-2.86,8.88Z"/><path class="cls-4" d="M15.08,283.23c.1.38.19.77.3,1.15l-2-5.51L13,277.38l2.06,5.7,0,.15Z"/><path class="cls-4" d="M223.95,442.41h0Z"/><path class="cls-4" d="M152.11,430.14l-1.4-.5c-1.72-.68-4-1.55-5.71-2.3,2.37.93,4.72,1.93,7.12,2.79Z"/><path class="cls-4" d="M222.24,442.41h1.26c-4.46-.05-5.66-.07-10.58-.29l-1.5-.08c4.68.23,5.66.28,10.66.36Z"/><path class="cls-4" d="M34.71,331.75q-.8-1.41-1.57-2.82c-8.72-17.67-9.63-19.52-14.55-35.13.07.13.17.29.23.43,1.79,4.22,3.45,10.12,4.92,14.45,2.47,7.26,7.39,16.3,11,23.07Z"/><path class="cls-4" d="M139.89,425.24l1.06.46c-2.36-1-5.53-2.23-7.86-3.28l-1.37-.64c2.4,1,5.59,2.45,8,3.41l.14.06Z"/><path class="cls-4" d="M86.73,393.38l-1.25-1C77.94,385.46,74.15,382,69.7,374c.3.3.64.56.93.88a54.13,54.13,0,0,1,3.89,6c.13.2,3.31,5.05,12.22,12.47Z"/><path class="cls-4" d="M218.67,7.15l1.48,0,1.56,0-3,.05Z"/><path class="cls-4" d="M177.44,12.14l1.78-.38C193,9.22,199.34,8.06,216.46,7.23a230,230,0,0,0-39,4.92Z"/><path class="cls-4" d="M133.3,27l1.28-.59c2.52-1,6-2.29,19.08-4.34a10.39,10.39,0,0,1-1.14.52,35.08,35.08,0,0,1-4.22.69c-1.1.18-10.88,1.82-15,3.71Z"/><path class="cls-4" d="M66.43,75l1.27-1.32c10.53-10,32.45-30.85,82.23-49.74-3.4,2-8.45,3.52-12.08,5A285.93,285.93,0,0,0,104.6,45.58C84.52,57.86,75.1,65.93,66.43,75Z"/><path class="cls-4" d="M160.43,19.47l-.64.2c16-6.55,26.38-10.35,54.14-12.33l.83,0c-18.7,1.54-32.21,2.66-54.24,12.14l-.1,0Z"/><path class="cls-4" d="M156.55,22.13c1.17-.54,1.76-.81,37.08-2.27-.15.13-.2.38-.45.4-12.2.75-24.43,1.11-36.63,1.87Z"/><path class="cls-4" d="M216.21,442.26h.34c-19.38-1.48-37.68-2.87-65.16-12.66l-.28-.13c18.73,6,36.42,11.62,65.07,12.78Z"/><path class="cls-4" d="M136.46,423.49c-.32-.11-34.15-13.89-63.07-46.44,4.23,2.22,7.86,7.92,11.2,11.34.81.83,20.1,20.42,51.88,35.1Z"/><path class="cls-4" d="M143.45,426.37c-1.53-.63-1.77-.73-2.43-1.64a3.59,3.59,0,0,1-.46-2.33c.18-1.24,2.3-2.56,4-3.62l1,.62c-2.43,1.56-3.44,2.2-3.9,3.68s.54,2.2,1.75,3.29Z"/><path class="cls-4" d="M14.91,278.8c-4.15-21.46-9.31-48.17.24-93.59-4.54,26.51-8.82,51.55-.24,93.59Z"/><path class="cls-4" d="M20.15,170.33c0-.22,9.93-35.17,57-82.43l0,.43C54.67,112,36.16,133,20.15,170.33Z"/><path class="cls-4" d="M82.25,187.22c-.07.34-.12.68-.17,1-10.35-1-45.47-4.58-63-9.76q.16-.68.31-1.36h0c11.19,3.11,25.06,5.74,62.87,10l0,.16Z"/><path class="cls-4" d="M140.39,415.62l.23.25c-13.17-6.25-40.57-19.25-66.81-40.13-.16-.25-.33-.5-.5-.75,12.51,9.49,31.42,23.84,67,40.57l0,.06Z"/><path class="cls-4" d="M139.84,372.8c.1.23.24.52.35.74-27.13,0-69-1.62-69.33-1.63l-.9-1c7.21.33,19.28.89,69.84,1.85l0,.07Z"/><path class="cls-4" d="M63,365.2C50.38,350.47,33,330.3,19.5,294.64l0-.37c7.87,18.7,17.66,42,43.51,70.89v0Z"/><path class="cls-4" d="M67.91,368.65c-.22-.23-19.63-24.91,39.08-73.09.16.28.38.64.55.91-21.68,19.63-48.66,44.07-39.63,72.18Z"/><path class="cls-4" d="M16.76,283.19c-.12-.34-10.7-34.48,65.42-91.12.07.29.17.69.26,1-27.37,21.8-64.86,51.65-65.67,90.14Z"/><path class="cls-4" d="M105.68,291.33c0,.27.09.63.14.89-30.67-.33-77.71-3-87.7-4.61l-.4-1.37c8.19,1.2,21.72,2.57,87.94,5v.11Z"/><path class="cls-4" d="M392.93,362.11c3-4.92,5.55-9.16,2.45-16.73q.41-.55.81-1.12c1.52,5.17,2.82,9.64-2.34,16.72l-.92,1.13Z"/><path class="cls-4" d="M224.22,442.41h0Z"/><path class="cls-4" d="M218.63,442.34c-43.14-1.22-61.11-14.75-69.75-21.25.21.09.5.19.71.3,2.3,1.27,4.95,3.63,7.07,5.19a62.74,62.74,0,0,0,17,8.17c17.53,5.34,23,6.26,45,7.59Z"/><path class="cls-4" d="M224.87,442.41c3.53-.06,12.23-.58,30.85-3.41a268.34,268.34,0,0,1-30.85,3.41Z"/><path class="cls-4" d="M86.12,180.91c-.27.18-.61.44-.86.65-6.75-22.12-17-55.56-4.84-93.13l.88-.56c-7.44,26.87-9,50.69,4.94,93l-.13.08Z"/><path class="cls-4" d="M87.75,76.5l-.36,0c12.42-15.06,27.88-33.8,61.06-51.3l.33,0c-17.36,9.85-37,21-61,51.31Z"/><path class="cls-4" d="M146.66,72.4c-.23.18-.46.38-.68.58-6.05-10.89-17.32-31.16,5.79-48.77l1-.42c-8.63,7.21-23.08,19.27-6,48.53l-.11.09Z"/><path class="cls-4" d="M86.21,82.78l.56-.8c8.21-1.15,16-2.24,56.67-5.54-.21.46-.27.61-.42,1C112,80,101.9,81,86.21,82.78Z"/><path class="cls-4" d="M144.77,416c-.14-.07-13.22-9.78-1.84-39a10.9,10.9,0,0,0,1,.74c-5.22,14.16-7.76,23.79.89,38.23Z"/><path class="cls-4" d="M222,442.38h.41c-15.63-1.26-32.73-3.8-69.8-20.75-.08-.11-.18-.26-.27-.36,22.14,10.06,44.13,19.25,69.61,21.1Z"/><path class="cls-4" d="M212.78,439.38l.28.19c-31.34-8.51-48.08-14.37-61.54-19.08l-.7-.56c13.36,4.71,30,10.58,61.93,19.42l0,0Z"/><path class="cls-4" d="M109.84,284.08l-.53.14a355.41,355.41,0,0,1-20.77-87.27c.33-.08.76-.2,1.07-.31,2.64,20.15,6.26,47.76,20.36,87.42l-.14,0Z"/><path class="cls-4" d="M91.78,180.54c-.28-.14-.67-.3-1-.41,14.19-34.77,25.79-58.29,53.3-97.89l.45.21c-22.41,34-34.94,53.85-52.79,98.09Z"/><path class="cls-4" d="M210.07,206.76l-.64.35c-51-76.5-57.84-111.78-60.42-125.06.31-.15.73-.36,1-.54,6.76,31.21,16.62,55.5,60.2,125.16l-.17.08Z"/><path class="cls-4" d="M205.71,212.44c-.08.38-.15.9-.19,1.29-37.78-7.07-74.71-14.14-111.16-23,.1-.42.22-1,.3-1.42,19.15,4.57,45.37,10.82,111.08,23l0,.18Z"/><path class="cls-4" d="M152.93,70.75l-.57-.15c8.24-12.24,20.69-30.73,40-47.68l.28.08c-10.11,9.64-21.58,20.56-39.7,47.75Z"/><path class="cls-4" d="M154.54,75.63c.08-.29.18-.69.24-1,27.9-6.29,55.93-12,83.83-18.24.08.26.19.61.28.87-28.1,6.21-56.29,12-84.35,18.36Z"/><path class="cls-4" d="M117.74,288.07c-.17-.27-.41-.62-.59-.87,10.53-9.74,30.12-27.88,89.33-68.19.16.29.4.67.58,1-70.19,50.63-70.19,50.63-89.32,68.11Z"/><path class="cls-4" d="M212.49,438.71c-7-4-28.25-16-63.08-59.55a6.86,6.86,0,0,0,.69-.29c10.42,12.77,38.09,46.69,62.41,59.84Z"/><path class="cls-4" d="M142.27,367.15l-.43,0c-10-18.72-16.9-32.58-27.7-67a6.12,6.12,0,0,0,1.07-.14c7.82,24.56,12.58,38.71,27.17,67.13Z"/><path class="cls-4" d="M220.64,301.59c0,.19,0,.45-.06.65-8.13-.44-32.88-1.78-101.24-8.73a12.23,12.23,0,0,0-.14-1.34c25.73,2.59,48.08,4.77,101.46,9.26l0,.16Z"/><path class="cls-4" d="M216.79,397.19c0,.12-.08.28-.12.4-5.28-1.61-21.33-6.5-65.26-21.67a6.59,6.59,0,0,0-.15-1c8.07,2.79,8.07,2.79,65.56,22.13l0,.1Z"/><path class="cls-4" d="M222.62,394.18l-.86-.06c.67-14.11,1.15-24.31,5.85-83.58a10.48,10.48,0,0,0,1.35.08c-3.09,37.63-4.95,60.35-6.35,83.56Z"/><path class="cls-4" d="M148.6,370.08l-.66-.65C158.42,356.5,172.75,341,221.7,307c.17.25.41.58.59.82-37.44,27.42-56.24,41.19-73.69,62.3Z"/><path class="cls-4" d="M239,52.53c-.09.16-.2.37-.27.54-26.93-15.36-36-22.07-42.23-31.21l.65-.43c6.68,9.69,15.4,15.63,41.91,31l-.05.08Z"/><path class="cls-4" d="M220.61,7.12c1.48,0,3,0,4.43,0l.53,0h-5Z"/><path class="cls-4" d="M194.94,18.89l-.49.33c-2.9-2.24-10.6-8.18,10.23-11,4.83-.66,10-.88,13.13-1l1.37,0c-23.4,1-32,4.5-25.63,10.53.41.39,1,.81,1.46,1.16l-.08.05Z"/><path class="cls-4" d="M199.53,19.11c.07-.1.11-.29.22-.33,2-.76,4.65-1.5,6.65-2.13,16.94-5.33,21.6-7,22.09-8.83a7.39,7.39,0,0,0-2.18-.66c1.81.13,1.92.25,2.58.91-1.13,1.76-4,3.17-29.36,11Z"/><path class="cls-4" d="M224.26,442.41h0Z"/><path class="cls-4" d="M223.94,442.41c-1.27,0-4.5-.28-4.51-.28a13.57,13.57,0,0,1-4.05-1.51c.78.27,1.37.91,2.2,1.08a45.17,45.17,0,0,0,6.37.71Z"/><path class="cls-4" d="M356,51.66l.17.14c-.43-.33-.88-.65-1.3-1l1.13.86Z"/><path class="cls-4" d="M228,7.12h-2.15l-.63,0h1.31l1.47,0Z"/><path class="cls-4" d="M214,438.89c-.11,0-10.35-4.22,5.23-35.47a5.73,5.73,0,0,0,.79.35c-5.47,11.49-13,27.23-6,35.11Z"/><path class="cls-4" d="M224.94,442.41h-.48a10.79,10.79,0,0,0,1.54-.14l-.07-.16c-1.19-.4-2.22-.61-8.92-1.67l-.31-.2c8.45,1.35,9.27,1.59,9.63,2a6.44,6.44,0,0,1-1.33.19Z"/><path class="cls-4" d="M245.36,51a6.78,6.78,0,0,0-.87-.28c2.19-14,6.27-40-16.06-43.35C239.61,8.5,251.63,17,245.36,51Z"/><path class="cls-4" d="M227.37,442.29c9.8-1,18.07-4,28.23-8.54l0,.15c-11.61,4.82-17.44,7.24-28.26,8.39Z"/><path class="cls-4" d="M227.08,442.29l-.21,0c13.46-2.67,17.39-9.87-2.35-38.75a5,5,0,0,0,.72-.43c14.87,22.33,19.94,35.9,1.88,39.16Z"/><path class="cls-4" d="M226.93,397.32c-.07-.18-.18-.41-.26-.59,10.35-5.06,10.35-5.06,52.66-24.27,0,.21,0,.49.07.69-17.41,8.23-35,16-52.47,24.16Z"/><path class="cls-4" d="M260.76,430l-.59.32c-1.87-6.31-5.7-12.79-33.86-28.23a4.58,4.58,0,0,0,.43-.73c17.15,9.66,32.67,19.11,34.12,28.59l-.1,0Z"/><path class="cls-4" d="M217,206.12c-.43-.1-1-.21-1.45-.28,18.9-84.31,25.26-112.71,27.61-145l.71.14C241.72,94.43,237,115.87,217,206.12Z"/><path class="cls-4" d="M419.54,320.72c-4.22,6.25-7.56,11.19-21.33,20.2.2-.38.24-.83.56-1.14,1.78-1.75,4.77-3.33,6.81-4.76,1.6-1.12,9.84-7.14,14.61-15.63l-.65,1.34Z"/><path class="cls-4" d="M221.05,208.5c-.24-.24-.57-.54-.82-.76,60.6-67.36,60.6-67.36,77.56-93.26.22.19.53.44.76.62-15.89,25.44-31.82,44.64-77.49,93.39Z"/><path class="cls-4" d="M283.18,365.25c-.31.22-.51.38-.72.55-10.22-14.75-18.29-26.39-48.32-56.84a7.52,7.52,0,0,0,1-.9c20.64,21.2,34.18,35.62,48.15,57.11l-.12.08Z"/><path class="cls-4" d="M345.86,313.42l-.22.63c-36.27-2.57-72.37-6.83-108.59-9.92.05-.39.1-.91.13-1.31,44.42,3.8,74.91,6.59,108.74,10.44l-.06.15Z"/><path class="cls-4" d="M228.16,294.85c-.32,0-.74.09-1,.14-6.08-34.18-11.5-67.78-12.1-71.5a10.11,10.11,0,0,0,1.48-.21c3.9,23.86,8,47.69,11.85,71.56h-.18Z"/><path class="cls-4" d="M351.47,222.42c0,.23,0,.54,0,.78-42.8-1.37-85.47-5-128.21-7.38a10.34,10.34,0,0,0,.07-1.46c59.94,3.33,89.89,5.18,128.19,7.91v.15Z"/><path class="cls-4" d="M236.59,299.39c-.17-.36-.42-.82-.62-1.16,51.88-28.36,84.07-47.11,116-70.87.14.4.35.92.52,1.31-29.15,21.15-52.8,36.37-115.92,70.72Z"/><path class="cls-4" d="M296.09,103.83a4.26,4.26,0,0,0-.55.64C279.78,89.58,263.8,74.92,248,60.09a4.05,4.05,0,0,0,.61-.57c15.86,14.75,31.85,29.35,47.58,44.23l-.09.08Z"/><path class="cls-4" d="M246.79,51.79a6.59,6.59,0,0,0-.8-.5c7.86-15.08,13.06-27.43,2.74-37.73,2.1.73,6.83,6.28,6.45,13.76-.42,8.39-3,14.58-8.38,24.47Z"/><path class="cls-4" d="M249.2,55.26c-.06-.2-.15-.46-.23-.66,45.56-8.81,45.56-8.81,55.75-11.7l.64.58c-4.78,1.51-16,5.05-56.16,11.78Z"/><path class="cls-4" d="M374.15,89.2l-.49-.07h-.08C350.27,56.83,328,34.72,283.31,17.23c35.45,14.25,61.68,30.59,90.83,72Z"/><path class="cls-4" d="M378.64,92.45c-.3-.32-.7-.52-.91-.92-1-1.93-.47-5-.67-7.21-.56-6.11-4.1-16.2-17.74-29.56a50.71,50.71,0,0,1,19.31,37.7Z"/><path class="cls-4" d="M307.12,39.78a6.35,6.35,0,0,1-1-.55c-1.44-1.24-2.06-3.93-2.94-5.61-4.37-8.34-17.2-14.42-23.36-17.34,4.85,1.48,13.66,7,14.94,8.07,7.86,6.78,8.12,7.26,12.34,15.44Z"/><path class="cls-4" d="M301.71,38.75c0,.08,0,.18,0,.26C281.83,27.59,271,21.75,251.36,13.79l-.17-.21c18.59,7.5,29.92,13.13,50.52,25.12v0Z"/><path class="cls-4" d="M353.56,306.81h0c-.26,0-.61,0-.87.07,3.67-22.82,6.33-39.3,5.33-74.44h0a5.85,5.85,0,0,0,1.08-.11c.32,23.39.58,41.86-5.54,74.48Z"/><path class="cls-4" d="M272.43,14l.85.26c-7.8-1.58-28.52-5.76-46.22-7.06l-.6,0c18.18,1.2,39,5.41,45.84,6.79l.13,0Z"/><path class="cls-4" d="M242.55,10.53l.06.07c-4.09-1.14-9.59-2.5-13.78-3.23l-.21,0c4.22.76,9.8,2,13.92,3.18Z"/><path class="cls-4" d="M274.12,14.5l1.05.33c-4.81-.53-10.81-1.19-26-2.43l-.72-.31c6.31.52,16.87,1.39,25.55,2.37l.14,0Z"/><path class="cls-4" d="M372.48,90.28c0,.1,0,.23,0,.33-14.1-12.05-31.64-27.05-58.85-44.16a3.46,3.46,0,0,0-.08-.49c13.35,8.63,35.7,23.07,58.93,44.25v.08Z"/><path class="cls-4" d="M304.49,104.33a9.16,9.16,0,0,0-1-.69c5.76-15.2,13.65-36,5.4-57.62.16.09,12.59,17.13-4.38,58.31Z"/><path class="cls-4" d="M364.56,223a14.11,14.11,0,0,0-.13-1.48c21.63-4.33,26.73-5.48,42-9.42.05.65.07.85.15,1.47-15.35,3.94-20.26,5.09-42,9.44Z"/><path class="cls-4" d="M355.74,215.06l-.51.26c-13.05-32.43-21.67-53.86-49.89-98.91.28-.12.64-.3.91-.44,17.3,27.81,34.11,56.31,49.62,99l-.13.06Z"/><path class="cls-4" d="M307.86,109.3c-.09-.27-.22-.64-.32-.9,56.69-9.6,56.69-9.6,67.33-12.42q.37.56.76,1.12c-12,3-27,6.47-67.77,12.2Z"/><path class="cls-4" d="M362.11,216.41c-.27-.25-.64-.57-.93-.79,18.36-42.62,27.22-75,18.13-114.48.25.19,18.89,33.72-17.2,115.27Z"/><path class="cls-4" d="M263.91,428.78l-.29.07c7.95-8.65,18.84-20.49,21.14-52.81a8.49,8.49,0,0,0,1-.29c-1.7,14.83-4.26,37.23-21.78,53Z"/><path class="cls-4" d="M291.51,366c-.09-.17-.21-.4-.31-.57,35.71-29.2,37.11-30.34,54.17-45.85.08.21.21.48.31.68-13.41,12.4-22.27,20.6-54.16,45.73Z"/><path class="cls-4" d="M344.51,396l-.78.63c-4.51-4.79-11.32-12-53.41-24.59a10.07,10.07,0,0,0,.57-1c16.16,5,46.23,14.22,53.75,24.87l-.13.1Z"/><path class="cls-4" d="M259.66,438.08l-1,.24c1-.53,2.58-1.08,3-2.1.65-1.76.66-1.79-.8-3.76l.82-.42c.55.74,1.63,1.87,1.36,2.75-.5,1.63-.68,1.81-3.19,3.25l-.14,0Z"/><path class="cls-4" d="M264.33,430.36c2.27-1.88,6.45-2.41,9.24-3.38,31.41-11,48.26-18.31,66.74-27.29-.08.08-19.62,11.89-76,30.67Z"/><path class="cls-4" d="M351.15,392.5l-.19-.11c16.34-15.13,23.1-21.39,38.94-42.92l.19.11c-12.82,17.08-18.68,24.88-38.94,42.92Z"/><path class="cls-4" d="M348.11,393.49l-.7.44c12.43-20.67,17-38.47,5.68-73.25a10.42,10.42,0,0,0,1-.84c8.69,28.23,10.34,48.31-5.85,73.59l-.11.07Z"/><path class="cls-4" d="M346.14,44.52l5.26,3.74q-3.67-2.55-7.32-5.12l2.06,1.38Z"/><path class="cls-4" d="M351.08,48.36l.63.5c-22-14.07-36.49-21.65-69-32.14l-.73-.29c30.15,9.65,45,16.5,69.06,31.87l.08.06Z"/><path class="cls-4" d="M423.91,156.35c0,.21,0,.48,0,.69-10.17-18.12-16.89-30.09-40.42-55.45a5.56,5.56,0,0,0,0-.66C400,119.09,410,130.61,423.92,156.26v.09Z"/><path class="cls-4" d="M410.88,202.95l-.57-.09c-2.51-26-5.64-58.47-28.55-100.38l.55.07c10.64,20.49,25.22,48.54,28.58,100.39Z"/><path class="cls-4" d="M356.93,308.58a8.37,8.37,0,0,0-.59-.73c21-27,38.08-50.66,51.85-89.36.18.26.43.6.64.85-8.1,21.44-17.27,45.73-51.9,89.24Z"/><path class="cls-4" d="M399.5,335.93l-.15-.18c10.67-18.14,16-27.25,23.32-46.71l.18.21c-7.23,17.92-11.21,27.78-23.35,46.69Z"/><path class="cls-4" d="M393.59,340.28l-.58.85c-8.23-8.28-14.22-13-37.06-23.8a13.4,13.4,0,0,0,.61-1.22c19.89,9.47,28.48,14.52,37.12,24l-.1.14Z"/><path class="cls-4" d="M357.49,313.14a10.69,10.69,0,0,0,.15-1.26c29.14-10.2,47.2-17.5,65.09-29.13q-.11.51-.2,1c-11.53,7.84-23.63,15-65,29.37Z"/><path class="cls-4" d="M414.15,206.93a10.86,10.86,0,0,0-.49-1.19c7.92-15.9,10.32-21.23,12.87-38.07,0,.08,2.84,9.56-12.39,39.26Z"/><path class="cls-4" d="M425.84,274.27c-.13.19-.28.44-.4.63-1.2-15.89-2.34-30.91-12-55.77a6.44,6.44,0,0,0,.53-.9c5.83,16.81,11.34,32.69,11.9,55.94l-.07.09Z"/><path class="cls-4" d="M265.06,437c19.14-5.8,40.83-12.38,73.3-34.86-15.7,10.62-37.2,25.16-73.3,34.86Z"/><path class="cls-4" d="M365.56,390.14c-3.53,2.21-5.86,3.68-18.33,7.11.33-.28.55-.67,1-.85a53.18,53.18,0,0,1,5.34-1.51c8.14-2.31,11.86-4.84,13.07-5.67l-1.06.92Z"/><path class="cls-4" d="M308,425.66c14.86-6.86,25.31-12.31,34.68-25l1.05-.7c-6,7.63-11.64,14.84-34.18,25l-1.55.66Z"/><path class="cls-4" d="M365.71,59.49l-3.81-3.12-.69-.59,2.95,2.39,1.55,1.32Z"/><path class="cls-4" d="M425.4,155.56c-3.92-3-3.72-10.95-5.2-15.68-4.16-13.32-18.1-48.05-57.67-82.73,23.75,21.64,48.17,47.07,62.87,98.4Z"/><path class="cls-4" d="M424.09,138.62c3.38,10.78,3.58,11.43,3.64,21.09a6.55,6.55,0,0,1-.5-1.18c-.45-2.39-.21-5.67-.3-8.09-.15-4.12-2.13-9.41-3.49-13.3l.65,1.48Z"/><path class="cls-4" d="M260.08,10c4.62.85,11.59,2.14,15.84,4.44-2.15-.62-4.13-1.71-6.3-2.3a99.2,99.2,0,0,0-11-2.38l1.47.24Z"/><path class="cls-4" d="M286.26,16.09a63.33,63.33,0,0,0-8.21-1l-1.25-.38a64.76,64.76,0,0,1,8.08,1l1.37.4Z"/><path class="cls-4" d="M427.86,301.58c1.29-6.5,1.94-9.76-1.1-16.94q.24-.64.46-1.3c2.16,6.7,3.24,10.07,1.17,16.85l-.52,1.4Z"/><path class="cls-4" d="M244.18,441.51c6.32-.64,10.47-1.25,12.95-2.47l1.23-.26c-1.81.9-3.89,1.66-12.7,2.59l-1.48.14Z"/><path class="cls-4" d="M292.7,431.38c-7.57,2.27-14.34,4.1-32.65,7,11.32-2.63,22.91-4,34-7.49l-1.39.47Z"/><path class="cls-4" d="M428,273c6.82-37.59,9-58.56.95-101.57,6.76,33.72,8.35,57.52-.95,101.57Z"/><path class="cls-4" d="M436,174.69c-2.59-5.23-2.64-5.33-6.46-8.88q-.15-.68-.32-1.35c4.94,5.13,5.13,5.33,6.44,8.79l.34,1.43Z"/><path class="cls-4" d="M441.76,231c-2.15,19.42-3.31,24.53-13.06,45.15a4.46,4.46,0,0,1,0-1.05c1-3.55,3.66-7.78,5.23-11.12a101.3,101.3,0,0,0,7.87-35q0,1,0,2Z"/><path class="cls-4" d="M17.89,286.81c.67,2.29,2.16,7.66,1.47,8-1.28-.42-5.8-15.75-4.84-16.4.64.22,1.91,3.36,3.38,8.38Z"/><path class="cls-4" d="M144.82,426.93c2.21.9,4.49,1.61,6.62,2.71-1,.06-14.62-5.48-15.55-6.31h0c.14,0,.14,0,8.91,3.61Z"/><path class="cls-4" d="M19.41,177.07h0c-1.64,7.53-3.59,9.28-4.22,8.15-1.49-2.68,1.93-16.25,4.16-16.51.52.06,1.57,1,.08,8.31Z"/><path class="cls-4" d="M224.22,442.41c-4.64,0-8.18-.16-8.21-.16l8.21.16Z"/><path class="cls-4" d="M70.4,371.38c3.78,4.34,4.43,5.94,3.77,6-2.07.13-12.3-11.22-11.06-12.27a.27.27,0,0,1,.18-.06c1.07.1,3.79,2.54,7.11,6.35Z"/><path class="cls-4" d="M221.24,7.11c-3.4.05-5.44.15-8.53.3,0,0,4.59-.31,11.52-.32h0l-3,0Z"/><path class="cls-4" d="M156.82,22c-5.29,2.43-8.16,3.49-8.53,3.15.06-1.13,11.75-6,13.94-6.11h.1l0,.08c-.17.23-.76.66-5.55,2.87Z"/><path class="cls-4" d="M86.25,82.72c-4.74,6.45-8.77,7.42-9.07,5.47C76.74,85.25,84,76.56,87.67,76.5c2.11.08.74,3.28-1.42,6.22Z"/><path class="cls-4" d="M149,418.65c4.35,3,3.8,3.43,3.36,3.49-2.53.34-13.42-6.28-12.39-7.53.1-.12.33-.14.51-.16,1.68.11,4.79,1.64,8.53,4.2Z"/><path class="cls-4" d="M94.77,188.53c-1,8.66-8.21,10.64-11.36,6.44s-.92-14.8,5.93-15c3.17.06,6.08,2.74,5.43,8.61Z"/><path class="cls-4" d="M119.19,292.12c1.22,7.86-5.35,9.81-9.71,6.43-5.16-4-5.47-13.81.9-14.55a6.31,6.31,0,0,1,.68,0c5.12.31,7.58,4.59,8.13,8.17Z"/><path class="cls-4" d="M224.22,442.41c-1.73,0-2.85-.07-2.85-.07h0c1,0,1.9.07,2.85.07Z"/><path class="cls-4" d="M150.81,373.56c2,4.84-1.23,6.88-5.24,5.17-4.8-2.05-8.59-9.45-4.74-11.23a4.25,4.25,0,0,1,1.74-.35c4.24.23,7.09,3.6,8.24,6.42Z"/><path class="cls-4" d="M153.85,77.33c-3,6-9.78,6.76-11,3.44-1.1-2.95,2.69-10,8.68-10.26,3.34,0,4.33,2.89,2.34,6.81Z"/><path class="cls-4" d="M198.59,20.19c-3.15,3.18-6.82,3.41-6.71,2,.12-1.57,4.57-4.83,7.28-4.92,1.67.06.8,1.55-.57,2.93Z"/><path class="cls-4" d="M216.48,440.11c1.34.81,1.37.94,1.38,1-.37.53-5.46-1.55-5.5-2.25,0-.15.14-.22.45-.23a9.18,9.18,0,0,1,3.67,1.46Z"/><path class="cls-4" d="M223.29,214.74c-.13,9.07-10.62,10.93-15.33,6.27s-2.94-15,6.41-15.25c4.36,0,9,2.86,8.92,9Z"/><path class="cls-4" d="M227.2,399.55c-.39,4.83-6.57,6-9.4,2.76-2.26-2.57-1.85-8.09,4-8.18,2.83,0,5.73,1.73,5.44,5.42Z"/><path class="cls-4" d="M237.19,302.8c-.36,8.43-10.33,9.75-14.67,5.23-4-4.2-1.88-13.14,6.47-13.22,5.69.15,8.43,4.13,8.2,8Z"/><path class="cls-4" d="M249.41,56.27c.66,5.1-5.47,6-8.79,3.32s-3-8.54,1.76-9l.59,0a6.55,6.55,0,0,1,6.44,5.74Z"/><path class="cls-4" d="M291.26,370.22c-2.38,6.13-9.85,7.81-11.6,3.81-1.38-3.12,1.5-10,8-10.24,4.46.19,4.75,3.58,3.65,6.42Z"/><path class="cls-4" d="M225.56,7.11a23.19,23.19,0,0,1,3.4.3,2.2,2.2,0,0,1-.5,0c-.67-.07-1.34-.15-2-.2-1-.07-1.7-.08-2.23-.09h0l1.34,0Z"/><path class="cls-4" d="M224.22,442.41c1.15,0,2.3-.14,3.45-.16a28.81,28.81,0,0,1-3.45.16Z"/><path class="cls-4" d="M308.08,110.14c1.37,6.12-4.44,8.33-9.27,5.16s-5.89-11.27-.64-12.58a6.82,6.82,0,0,1,1.43-.17c4.08.15,7.49,3.2,8.48,7.6Z"/><path class="cls-4" d="M248.53,12.13c2.4,1,3.2,1.74,2.75,1.92-.17.07-.92.2-3.74-.95,0,0-4.94-2.16-5-2.63,0,0,.05-.06.22-.06a23.05,23.05,0,0,1,5.78,1.72Z"/><path class="cls-4" d="M262.47,431.58c-3.28,1.9-7.19,3.09-6.85,2.09s6.27-4.94,9-5c1.33,0,.41,1,.1,1.3a13.25,13.25,0,0,1-2.29,1.6Z"/><path class="cls-4" d="M364.54,224.49c-.29,4.71-2.91,7.91-6.52,8h0c-7.61-.29-8.14-12.63-3.8-16.41a5.68,5.68,0,0,1,3.74-1.44c4.22.16,6.93,4.23,6.58,9.89Z"/><path class="cls-4" d="M357.07,314.77c-2.45,7.63-9.47,9.21-11.46,5.38-2.09-4,1.75-13.25,7.94-13.33h0c3.58.15,5,3.35,3.51,8Z"/><path class="cls-4" d="M311.4,43.07c2.84,2.74,2.69,4.18,1.09,4.18-3.49,0-12.21-7.33-10.6-8.93a1.2,1.2,0,0,1,.79-.24c2.49.14,6.27,2.61,8.73,5Z"/><path class="cls-4" d="M258.84,438.67c-4,.88-7.38,1.39-7.93,1.42.29-.18,13.63-3.17,14.27-3.21h.08a36.4,36.4,0,0,1-6.42,1.77Z"/><path class="cls-4" d="M415,212.69c0,6.75-3.23,9.45-5.92,6.93-3.83-3.6-3.93-16.56,1.13-16.77,2.75.1,4.76,4.24,4.79,9.84Z"/><path class="cls-4" d="M381.72,96.57c2.65,4.35,2.1,6.42,0,5.91-4-1-11.16-11.72-8.78-13.2a1.35,1.35,0,0,1,.61-.16h0c2.09.08,5.58,3.28,8.13,7.45Z"/><path class="cls-4" d="M277.25,14.87a38.29,38.29,0,0,1,6.38,2.31l-.05.08c-1.08-.05-14.49-4.24-14.95-4.52l.05,0a72.35,72.35,0,0,1,8.56,2.15Z"/><path class="cls-4" d="M346.42,397.92c-4.37,3.53-8.09,5.32-8.07,4.31,0-1.56,9.57-9.63,12.44-9.87,1,0,.15,1.51-2.14,3.63-.81.75-1.66,1.46-2.23,1.92Z"/><path class="cls-4" d="M397.06,342.91c-3.47,5.58-7,8-7.42,6-.53-2.78,6-13.1,9.21-13.38,1.57.09.84,3.1-1.79,7.33Z"/><path class="cls-4" d="M427.76,281.49c-1.79,6.68-4.21,8.93-5.09,7.54-1.56-2.46,1.77-15.82,4.93-16.18,1.42.15,1.49,3.7.17,8.63Z"/><path class="cls-4" d="M429,163.42c1.65,5.78,1.31,8.8,0,8-2.78-1.67-6.6-15.64-4.44-16.25l.13,0c1.2.1,3,3.5,4.34,8.28Z"/><path class="cls-4" d="M357.46,52.77A57.05,57.05,0,0,1,363,57.44c-.57-.22-13-9.84-13.21-10.19a86.15,86.15,0,0,1,7.65,5.52Z"/></g><circle class="cls-5" cx="258.61" cy="280.01" r="22.26"/><circle class="cls-6" cx="88.72" cy="188.24" r="22.92"/><circle class="cls-7" cx="300.31" cy="108.23" r="17.32"/><circle class="cls-8" cx="187.52" cy="43.15" r="13.46"/><circle class="cls-9" cx="110.79" cy="292.12" r="22.53"/><circle class="cls-10" cx="358.03" cy="224.17" r="23.35"/><circle class="cls-11" cx="213.1" cy="214.45" r="28.88"/><circle class="cls-12" cx="234.51" cy="387.16" r="13.46"/><circle class="cls-13" cx="94.55" cy="372.46" r="13.46"/><circle class="cls-14" cx="359.33" cy="330.66" r="13.46"/><circle class="cls-15" cx="407.51" cy="255.78" r="13.46"/><circle class="cls-16" cx="34.71" cy="237.22" r="13.46"/><circle class="cls-17" cx="135.49" cy="90.73" r="21.27"/><circle class="cls-18" cx="225" cy="225" r="225"/></g></g></g></svg>