<?xml version="1.0" standalone="no"?>
<!DOCTYPE svg PUBLIC "-//W3C//DTD SVG 20010904//EN"
 "http://www.w3.org/TR/2001/REC-SVG-20010904/DTD/svg10.dtd">
<svg version="1.0" xmlns="http://www.w3.org/2000/svg"
 width="452.000000pt" height="452.000000pt" viewBox="0 0 452.000000 452.000000"
 preserveAspectRatio="xMidYMid meet">
<metadata>
Created by potrace 1.11, written by Peter Selinger 2001-2013
</metadata>
<g transform="translate(0.000000,452.000000) scale(0.100000,-0.100000)"
fill="#000000" stroke="none">
<path d="M2137 4284 c-1 -1 -29 -5 -62 -8 -467 -51 -887 -257 -1229 -602 -560
-564 -734 -1417 -441 -2159 154 -388 424 -719 783 -958 106 -70 316 -175 436
-216 244 -85 414 -111 706 -106 225 4 236 5 391 36 375 74 781 306 1056 601
l41 45 -135 119 c-75 65 -154 136 -177 156 -23 21 -46 38 -53 38 -7 0 -43 -29
-80 -65 -221 -213 -482 -354 -773 -417 -139 -31 -470 -30 -617 1 -626 132
-1101 627 -1208 1260 -21 121 -15 438 10 554 85 402 312 736 660 972 178 121
441 226 609 243 112 11 454 7 529 -6 107 -20 272 -78 392 -138 135 -67 261
-156 382 -269 50 -47 94 -85 98 -85 6 0 218 183 338 292 26 23 16 37 -102 151
-113 108 -203 179 -336 262 -253 159 -595 274 -865 290 -109 7 -348 13 -353 9z"/>
<path d="M2314 3215 c-10 -26 13 -42 32 -23 15 15 15 17 -5 27 -17 10 -22 9
-27 -4z"/>
<path d="M1997 3164 c-14 -14 -7 -35 11 -32 9 2 17 10 17 17 0 16 -18 25 -28
15z"/>
<path d="M2647 3154 c-14 -14 -7 -35 11 -32 9 2 17 10 17 17 0 16 -18 25 -28
15z"/>
<path d="M2436 3004 c-9 -8 -16 -22 -16 -29 0 -18 27 -45 45 -45 18 0 45 27
45 45 0 18 -27 45 -45 45 -7 0 -21 -7 -29 -16z"/>
<path d="M1700 2995 c-10 -12 -9 -16 5 -21 23 -9 40 10 22 25 -11 9 -17 8 -27
-4z"/>
<path d="M2110 2995 c-29 -35 12 -78 54 -55 31 16 33 31 8 53 -23 21 -46 22
-62 2z"/>
<path d="M2925 2980 c-8 -14 3 -30 21 -30 8 0 14 9 14 20 0 21 -24 28 -35 10z"/>
<path d="M2725 2866 c-18 -26 -11 -53 15 -61 47 -15 78 36 40 67 -29 23 -36
23 -55 -6z"/>
<path d="M1826 2854 c-9 -8 -16 -22 -16 -29 0 -18 27 -45 45 -45 18 0 45 27
45 45 0 18 -27 45 -45 45 -7 0 -21 -7 -29 -16z"/>
<path d="M1480 2740 c0 -15 5 -20 18 -18 9 2 17 10 17 18 0 8 -8 16 -17 18
-13 2 -18 -3 -18 -18z"/>
<path d="M2309 2718 c-33 -11 -52 -50 -39 -82 20 -55 86 -66 116 -20 35 53
-17 123 -77 102z"/>
<path d="M3134 2719 c-10 -17 13 -36 27 -22 12 12 4 33 -11 33 -5 0 -12 -5
-16 -11z"/>
<path d="M2936 2624 c-20 -20 -20 -38 0 -59 21 -20 43 -16 61 12 13 19 12 24
-6 42 -25 25 -35 26 -55 5z"/>
<path d="M1636 2605 c-26 -26 -20 -62 10 -69 31 -8 42 0 46 33 2 14 -5 28 -18
37 -19 13 -24 13 -38 -1z"/>
<path d="M1949 2517 c-37 -28 -31 -95 11 -117 42 -22 105 25 97 72 -8 48 -71
74 -108 45z"/>
<path d="M2621 2495 c-35 -40 -32 -66 11 -98 19 -14 30 -16 51 -8 34 13 61 54
52 81 -6 19 -59 60 -76 60 -4 0 -21 -16 -38 -35z"/>
<path d="M1367 2444 c-14 -15 -6 -34 14 -34 14 0 19 5 17 17 -3 18 -20 27 -31
17z"/>
<path d="M3236 2405 c-5 -15 17 -39 27 -28 12 11 8 31 -7 36 -8 3 -17 0 -20
-8z"/>
<path d="M2274 2354 c-38 -19 -58 -54 -57 -100 2 -52 62 -108 109 -99 10 2 25
4 32 4 8 1 27 14 43 30 21 21 29 39 29 65 0 93 -74 141 -156 100z"/>
<path d="M3022 2323 c-7 -2 -17 -14 -23 -25 -8 -15 -7 -24 7 -39 9 -10 23 -19
30 -19 17 0 44 28 44 45 0 14 -27 46 -38 44 -4 0 -13 -3 -20 -6z"/>
<path d="M1565 2280 c-20 -22 -15 -44 14 -60 17 -8 24 -7 41 10 24 24 25 34 4
54 -21 21 -37 20 -59 -4z"/>
<path d="M1952 2130 c-30 -12 -47 -57 -33 -87 10 -21 47 -43 72 -43 18 0 59
49 59 70 0 23 -42 70 -62 69 -7 0 -23 -4 -36 -9z"/>
<path d="M2623 2120 c-45 -18 -38 -111 10 -124 55 -14 112 47 87 94 -19 36
-55 47 -97 30z"/>
<path d="M1361 2106 c-9 -10 -8 -16 3 -25 10 -9 16 -8 25 3 9 10 8 16 -3 25
-10 9 -16 8 -25 -3z"/>
<path d="M3242 2077 c-13 -15 1 -42 17 -33 13 9 15 33 2 40 -5 3 -13 0 -19 -7z"/>
<path d="M2942 1998 c-30 -30 0 -75 42 -64 31 8 38 28 20 55 -17 23 -44 27
-62 9z"/>
<path d="M1640 1975 c-26 -31 8 -83 45 -69 37 15 25 84 -15 84 -10 0 -23 -7
-30 -15z"/>
<path d="M2284 1928 c-26 -12 -47 -54 -39 -77 3 -9 19 -25 36 -35 25 -15 35
-16 57 -7 42 18 56 47 41 83 -7 16 -23 34 -36 39 -29 11 -32 11 -59 -3z"/>
<path d="M1465 1793 c-7 -19 9 -38 24 -29 16 10 14 33 -3 39 -8 3 -17 -1 -21
-10z"/>
<path d="M3118 1768 c-7 -19 2 -38 19 -38 9 0 13 8 11 22 -3 25 -23 35 -30 16z"/>
<path d="M2746 1744 c-9 -8 -16 -22 -16 -29 0 -18 27 -45 45 -45 18 0 45 27
45 45 0 18 -27 45 -45 45 -7 0 -21 -7 -29 -16z"/>
<path d="M1842 1716 c-15 -34 6 -61 40 -53 33 9 41 29 22 56 -20 28 -48 27
-62 -3z"/>
<path d="M2460 1600 c-17 -17 -18 -24 -8 -45 8 -17 18 -24 35 -23 35 3 48 33
28 64 -19 29 -29 30 -55 4z"/>
<path d="M2142 1598 c-30 -30 -1 -83 38 -70 32 11 39 42 14 66 -19 19 -36 20
-52 4z"/>
<path d="M1672 1523 c4 -21 33 -25 33 -3 0 8 -8 16 -18 18 -14 3 -18 -1 -15
-15z"/>
<path d="M2901 1516 c-9 -10 -8 -16 3 -25 10 -9 16 -8 25 3 9 10 8 16 -3 25
-10 9 -16 8 -25 -3z"/>
<path d="M1955 1363 c-3 -9 0 -20 7 -25 20 -12 28 -9 28 11 0 24 -26 35 -35
14z"/>
<path d="M2606 1351 c-3 -5 0 -14 8 -20 10 -8 16 -8 25 2 6 8 8 17 4 20 -9 10
-31 9 -37 -2z"/>
<path d="M2287 1304 c-14 -14 -7 -35 11 -32 9 2 17 10 17 17 0 16 -18 25 -28
15z"/>
</g>
</svg>
