<svg xmlns="http://www.w3.org/2000/svg" xmlns:xlink="http://www.w3.org/1999/xlink" viewBox="0 0 296.93 298.31"><defs><style>.cls-1,.cls-2{isolation:isolate;}.cls-2{opacity:0.62;mix-blend-mode:color-dodge;}.cls-3,.cls-4{fill:#f4f4f4;}.cls-3{opacity:0.4;}.cls-10,.cls-11,.cls-12,.cls-13,.cls-14,.cls-15,.cls-16,.cls-17,.cls-5,.cls-6,.cls-7,.cls-8,.cls-9{mix-blend-mode:screen;}.cls-5{fill:url(#radial-gradient);}.cls-6{fill:url(#radial-gradient-2);}.cls-7{fill:url(#radial-gradient-3);}.cls-8{fill:url(#radial-gradient-4);}.cls-9{fill:url(#radial-gradient-5);}.cls-10{fill:url(#radial-gradient-6);}.cls-11{fill:url(#radial-gradient-7);}.cls-12{fill:url(#radial-gradient-8);}.cls-13{fill:url(#radial-gradient-9);}.cls-14{fill:url(#radial-gradient-10);}.cls-15{fill:url(#radial-gradient-11);}.cls-16{fill:url(#radial-gradient-12);}.cls-17{fill:url(#radial-gradient-13);}</style><radialGradient id="radial-gradient" cx="171.37" cy="187.02" r="15.26" gradientUnits="userSpaceOnUse"><stop offset="0" stop-color="#fff"/><stop offset="0.88"/></radialGradient><radialGradient id="radial-gradient-2" cx="54.95" cy="124.14" r="15.7" xlink:href="#radial-gradient"/><radialGradient id="radial-gradient-3" cx="199.95" cy="69.31" r="11.87" xlink:href="#radial-gradient"/><radialGradient id="radial-gradient-4" cx="122.66" cy="24.71" r="9.23" xlink:href="#radial-gradient"/><radialGradient id="radial-gradient-5" cx="70.07" cy="195.32" r="15.44" xlink:href="#radial-gradient"/><radialGradient id="radial-gradient-6" cx="239.5" cy="148.76" r="16" xlink:href="#radial-gradient"/><radialGradient id="radial-gradient-7" cx="140.18" cy="142.1" r="19.79" xlink:href="#radial-gradient"/><radialGradient id="radial-gradient-8" cx="154.86" cy="260.45" r="9.23" xlink:href="#radial-gradient"/><radialGradient id="radial-gradient-9" cx="58.94" cy="250.38" r="9.23" xlink:href="#radial-gradient"/><radialGradient id="radial-gradient-10" cx="240.39" cy="221.73" r="9.23" xlink:href="#radial-gradient"/><radialGradient id="radial-gradient-11" cx="273.41" cy="170.42" r="9.23" xlink:href="#radial-gradient"/><radialGradient id="radial-gradient-12" cx="17.94" cy="157.7" r="9.23" xlink:href="#radial-gradient"/><radialGradient id="radial-gradient-13" cx="87" cy="57.32" r="14.58" xlink:href="#radial-gradient"/></defs><title>node-network</title><g class="cls-1"><g id="Layer_2" data-name="Layer 2"><g id="Network_Sphere" data-name="Network Sphere"><g class="cls-2"><path class="cls-3" d="M289.34,106.21l.41,1.39,1,3.86c-.26-.89-.26-.89-1.45-5.25Z"/><path class="cls-3" d="M292.45,118.36l-.15-.74.26,1.14.22,1-.3-1.35,0-.1Z"/><path class="cls-3" d="M292.13,181.53l-.29,1.26c-1.23,4.15-3.11,9.63-4.76,13.63.06-.22.08-.46.15-.68,1.45-4.27,3.67-9.87,4.89-14.21Z"/><path class="cls-3" d="M284.92,202.5l.3-.7a67.57,67.57,0,0,1-2.22,7.3l-.43,1a66.34,66.34,0,0,0,2.31-7.47l0-.09Z"/><path class="cls-3" d="M159.79,296.57l-1,.08c-.48,0-2.81,0-8.89.07.2-.06.2-.06,5.73-.1,3.38,0,4,0,4.15,0Z"/><path class="cls-3" d="M38,50.13c.68-.26,1-.39,4.16-.68l-.32.37c-.09.1-.1.28-.27.31a19.73,19.73,0,0,1-2.06.22,7.59,7.59,0,0,0-2.12.47l.62-.69Z"/><path class="cls-3" d="M190.86,7.68l-.47-.15c3,1,7,2.26,10,3.37l1.43.56c-3.25-1.16-7.57-2.74-10.86-3.76l-.06,0Z"/><path class="cls-3" d="M284,204.37l.25-.41c-4.56,12.3-4.73,12.78-10.59,22.9l-.92,1.46c6.75-11.72,7-12.18,11.23-23.9l0-.05Z"/><path class="cls-3" d="M93.07,11.76a31.46,31.46,0,0,1,4.73-1.32c-.28.11-.56.24-.85.33-.58.17-1.38.32-2,.46a28.84,28.84,0,0,0-2.79.88l.88-.35Z"/><path class="cls-3" d="M67.9,24.75c10-6,13.2-7.75,27-13.15-5.09,2.24-10.33,4.12-15.32,6.58-3.95,1.94-9,4.94-12.75,7.24l1-.67Z"/><path class="cls-3" d="M142.62,1.35l.51,0c-12.91.82-23.11,1.48-40.49,7.43l-.48.15c11.17-3.63,20-6.5,40.4-7.56Z"/><path class="cls-3" d="M118.37,8.89c-.17.09-.3.26-.51.28-6.34.51-12.71.66-19,1.29.78-.3,1.65-.64,19.56-1.56Z"/><path class="cls-3" d="M130.93,296.09l1.77.19h.14l-1.91-.21Z"/><path class="cls-3" d="M37.43,247.49l.94,1-.94-1Z"/><path class="cls-3" d="M82.16,281.67c-2.29-1.32-2.34-1.35-3.21-2.72-.31-.49.06-1.38.27-1.92l.75.46c-.2.54-.54,1.42-.23,1.91a6.26,6.26,0,0,0,3.25,2.7l-.84-.42Z"/><path class="cls-3" d="M6.28,106.16C11,92.76,17,76.08,39.53,53.09c-1.09,3-5,5.54-7.15,7.88A123.69,123.69,0,0,0,5.91,107.39l.06-.21.3-1Z"/><path class="cls-3" d="M4.49,112.65l.21-.83c1.11,2,5.43,3.6,24.26,6.22-.1.41-.12.52-.19.9-16.72-2.3-23.76-4.09-24.31-6.18l0-.11Z"/><path class="cls-3" d="M36.53,246.39l-.39-.47c11.48,11.49,19.21,17.56,39.79,28.74l.36.32c-20.49-11-28.22-17-39.71-28.53l-.05-.06Z"/><path class="cls-3" d="M34.31,243.72l-.55-.67c1.54.17,4.12.46,33,.93q.17.31.36.61c-15.42,0-31.68-.65-32.77-.82l0-.05Z"/><path class="cls-3" d="M41.61,190.82l.34.62c-13.38,16.64-21.89,30-9.47,50.06-16.75-20.39,2-42.39,9.13-50.68Z"/><path class="cls-3" d="M1.91,173.48c-1.54-18.77,5.46-32.42,26.73-52.13,0,.19.05.45.08.64C9.47,140.77.07,154.06,2.09,174.58l-.19-1.09Z"/><path class="cls-3" d="M4.39,185.34c.86.44,2.46,1.25,36.31,2.52.07.41.09.51.16.84-9.19-.26-35.59-1.27-36.23-2.43l-.24-.93Z"/><path class="cls-3" d="M254.16,223.88c.21-.3.36-.56.43-.69,8.93,7.55,12.35,12.89,6.31,21.17l-.63.74c4.72-6.74,5.06-11.86-6.17-21.14l.06-.09Z"/><path class="cls-3" d="M139,296.79l-.92-.06c.59,0,1.27,0,3.58.08l.73.05c-2.3,0-2.9-.05-3.31-.07Z"/><path class="cls-3" d="M82.28,278.73c.16.08.39.17.55.26,6.46,3.45,12.33,8,19.36,10.37,13.19,4.49,18.17,5.4,32.12,7.07-30.24-2.78-45.5-13.24-52-17.71Z"/><path class="cls-3" d="M171.61,292.52c-1.42.58-19.3,3.71-21.33,4.07.11,0,.19-.08,4.53-.86,8.16-1.47,13-2.43,16.81-3.2Z"/><path class="cls-3" d="M40.7,53.37l.44-.33c-6,11.34-15.18,28.49-9.77,60.87-.17.14-.39.33-.55.48C28.9,100,26,78.24,40.64,53.41l.06,0Z"/><path class="cls-3" d="M93.35,12.45l.14,0C80.26,18.8,65.25,26,46.84,45.64c9.07-9.32,21.49-22.1,46.51-33.2Z"/><path class="cls-3" d="M95.45,11.76l.63-.24c-8,4.39-22.82,12.55-19.47,31.16-.28.21-.37.27-.65.5-.88-7.58-2.36-20.28,19.4-31.39l.08,0Z"/><path class="cls-3" d="M74,45.36c-.18.27-.23.34-.42.66-16.14,1.64-21.43,2.36-29.12,3.69.45-.52,1.27-1.48,29.55-4.35Z"/><path class="cls-3" d="M69.18,247c.29.24.37.3.66.52-.8,9.72-.64,16.89,8.47,27.45-.11-.06-11.36-7.66-9.13-28Z"/><path class="cls-3" d="M84.37,279.1l-.25-.24c15.74,7.52,31.75,14.53,54.39,17.63l.32,0c-13.4-1.95-28.64-4.9-54.43-17.4l0,0Z"/><path class="cls-3" d="M83.33,278.22l-.5-.37A386.42,386.42,0,0,0,129.61,293l.22.12a373.71,373.71,0,0,1-46.44-14.89l-.06,0Z"/><path class="cls-3" d="M31.79,124.52a4.57,4.57,0,0,0,.51-.19C33,138.72,33.9,156.64,42.82,183a5.46,5.46,0,0,0-.57.21c-4.47-14.37-10-32.26-10.54-58.63l.07,0Z"/><path class="cls-3" d="M73.29,49.14l.31.17c-16.41,20-27.54,36.24-39.33,64.4l-.3-.18c8.79-21.6,18-39.06,39.32-64.39Z"/><path class="cls-3" d="M76.09,49l.58-.31C75.35,69.15,79,89.12,101.6,130.56c-.24.14-.56.33-.79.49C83.22,98.17,73.53,74.2,76,49l.08,0Z"/><path class="cls-3" d="M35.11,120.28c0-.17.11-.41.2-.83,9.83,2.86,24.69,7.18,63.44,14.81,0,.21-.1.5-.13.72-25.05-4.39-50-10.49-63.54-14.59l0-.11Z"/><path class="cls-3" d="M116.12,10.81C106,17.41,95.51,24.23,80.28,41.64l-.38-.12c8.54-9.29,19.16-20.85,36.22-30.71Z"/><path class="cls-3" d="M133.28,32.12c0,.17,0,.39,0,.56-17.33,3.75-35.25,7.63-53,12.13l.25-.49c7.77-2.08,15.81-4.22,52.8-12.2Z"/><path class="cls-3" d="M99.11,138.72c.1.19.23.44.34.63C75.59,158,63.61,167.42,47.3,185.67l-.36-.59c7.24-8.5,17.15-20.15,52.17-46.36Z"/><path class="cls-3" d="M73.33,248.44a1.91,1.91,0,0,0,.31-.19c9.06,9.94,30.27,33.2,55.42,44.2-7.17-3.33-29-13.48-55.78-44l0,0Z"/><path class="cls-3" d="M45.86,193.92a4.2,4.2,0,0,0,.52-.09c5.15,15,8.87,25.87,21.15,46.23l-.49.08c-8.58-14.5-13.8-23.8-21.26-46.21Z"/><path class="cls-3" d="M48.4,189.26c0-.19,0-.39-.12-.8,15.21,1.72,28.53,3.16,61.45,6,0,.2,0,.47,0,.66-25.38-1.66-57.71-5.34-61.32-5.75v-.11Z"/><path class="cls-3" d="M74,246.1a6,6,0,0,0-.2-.59c11.68,4.31,20.09,7.36,44.75,15.46,0,.17,0,.41,0,.58-24.6-8.09-32.47-10.9-44.55-15.38l0-.08Z"/><path class="cls-3" d="M114.73,200.68l.6,0c1.73,28.41,2.45,40.17,6.43,58.15l-.58,0c-2.2-10.19-5.53-25.58-6.44-58.16Z"/><path class="cls-3" d="M110.72,198.24a5.42,5.42,0,0,0,.58.73c-16.25,13.52-31.52,27-39.76,43.12-.28-.28-.34-.33-.64-.59,4.83-8.71,10.83-19.54,39.81-43.26Z"/><path class="cls-3" d="M119,10.1l.5-.24c-.65,5.27,1.42,9.56,15,19.69a4.09,4.09,0,0,0-.39.46c-12.56-9.51-15.95-14-15.13-19.88l.07,0Z"/><path class="cls-3" d="M147.27,1.26h0Z"/><path class="cls-3" d="M145.37,1.28h.85c-18.23.43-27.15,2.78-26.51,7l-.6.28c-.37-4.37,8.43-6.81,26.15-7.25h.11Z"/><path class="cls-3" d="M147.89,1.26l.12.14a32.44,32.44,0,0,1-4.08,1.24c-7.3,2-14.63,3.8-21.93,5.77.33-.22.33-.22,5.26-1.56.53-.14,2.75-.73,12-3.1,7.4-1.89,8-2.1,8.73-2.43l-.13-.06Z"/><path class="cls-3" d="M149.24,296.65c-.13.07-.13.07-1.74.1-3.48.06-4.46.1-4.79.11l-.67-.05c1.79-.06,3.71-.09,7.2-.16Z"/><path class="cls-3" d="M132.54,294.26c.88.29,1.61.91,2.5,1.18a48.66,48.66,0,0,0,5.58,1.23,17.87,17.87,0,0,1-8.08-2.42Z"/><path class="cls-3" d="M226.71,24.12l.8.51a8.35,8.35,0,0,1,2.13,2.1,3,3,0,0,1,.06,1.87l-.75-.54a3.83,3.83,0,0,0-.26-2.15,7.16,7.16,0,0,0-2-1.8Z"/><path class="cls-3" d="M121.48,265.51a5.2,5.2,0,0,0,.61.25c-.77,7.92-1.95,19.89,8.25,26.85-.12,0-12.06-4.88-8.86-27.1Z"/><path class="cls-3" d="M133.81,294l-.36-.17c10.24,1.57,13.69,2.1,16,2.68-.24.13-.64-.07-.91-.12-2.69-.55-5.22-.93-14.65-2.37l0,0Z"/><path class="cls-3" d="M148.36,1.32c1.43,1,2.29,1.65.11,7.9-1.68,4.83-6.07,12.9-9.6,19.38l-.38-.14c9.49-18,13-24.71,9.86-27.14Z"/><path class="cls-3" d="M162.58,288.1l.14.1c-4.85,3.77-7.77,6-11.92,8a71.26,71.26,0,0,0,11.78-8.12Z"/><path class="cls-3" d="M125.12,265.56a2.19,2.19,0,0,0,.34-.28c20.06,20.29,26.09,27.2,24.73,30.94l-.16.05c.84-3.89-3.36-9.06-25-30.69l.05,0Z"/><path class="cls-3" d="M159.07,243.35a3.8,3.8,0,0,0,.23.56c-20.75,9.9-23.94,11.42-34,17.19a5.08,5.08,0,0,0-.36-.48c11.43-6.65,16.51-9.07,34.13-17.27Z"/><path class="cls-3" d="M126,264.45a2.51,2.51,0,0,0,.1-.46c24,11.57,31.88,15.74,38,21.07l-.34.29c-7.64-6-13.29-9.09-37.76-20.83l0-.06Z"/><path class="cls-3" d="M135.3,35l.51.1c-13.86,38.35-20.81,57.6-30.06,95.11l-.55-.13C109.41,110.75,116,85.88,135.3,35Z"/><path class="cls-3" d="M284,201.08c0,.07-3.26,7.15-28.33,19.79a8,8,0,0,0,.23-.79c11.94-6.18,20.35-10.84,28.1-19Z"/><path class="cls-3" d="M165.91,69.71l.49.41c-18.33,21.55-39.15,40.75-58.2,61.62-.14-.15-.34-.35-.49-.5,18.69-21.18,39.47-40.38,58.2-61.53Z"/><path class="cls-3" d="M118.95,199.5a4.41,4.41,0,0,0,.52-.55c35.72,33.51,35.72,33.51,41.35,39.29l-.47.38c-2.76-2.66-2.76-2.66-41.48-39l.08-.07Z"/><path class="cls-3" d="M120.47,196.15c0-.24,0-.55,0-.79,74.15,6,74.15,6,82.45,6.79-.06.26-.14.61-.19.87-5.06-.45-5.06-.45-82.27-6.77v-.11Z"/><path class="cls-3" d="M104.42,141.64a5.94,5.94,0,0,0,.8-.13c2.24,14.85,4,26.58,9,48.43l-.67.09a439.31,439.31,0,0,1-9.27-48.37Z"/><path class="cls-3" d="M109.46,136.46c0-.26,0-.61,0-.87,30.76,1.63,61.52,3.1,92.28,4.81,0,.29,0,.68,0,1-30.77-1.71-61.55-3.18-92.32-4.81v-.1Z"/><path class="cls-3" d="M202.25,143.77c.12.27.29.62.44.87-27,17.26-55.34,32.05-82.83,48.38-.13-.24-.32-.56-.48-.79,27.59-16.22,56-31.06,82.87-48.46Z"/><path class="cls-3" d="M138.71,34.43a4.06,4.06,0,0,0,.45-.33c6.89,8.28,9,10.78,26.79,28.6a3.75,3.75,0,0,0-.56.48c-16-16.09-20.24-20.65-26.75-28.71l.07,0Z"/><path class="cls-3" d="M155,4.83l.26.11c.11,4.93-1.39,8.93-15.61,24.17a2.69,2.69,0,0,0-.42-.32c10.24-11,16.41-18.16,15.78-24Z"/><path class="cls-3" d="M183.95,23.21l.32.37c-10.14,2.44-21.13,4.24-43.79,7.77,0-.17,0-.39,0-.56,16.9-2.63,30.24-4.71,43.49-7.58Z"/><path class="cls-3" d="M178.64,7c16.17,7,33.45,16.37,51.44,45.93l-.31,0c-12-18.44-24.16-34.62-51.13-45.89Z"/><path class="cls-3" d="M230.13,30.52c.09.06,8.89,7.42,3.37,24.47-.27-.28-.35-.35-.63-.6,2-7,3.87-13.62-2.73-23.87Z"/><path class="cls-3" d="M176.44,6.38c2.95.91,6.82,4.67,7.09,5.07,2.93,4.18,3,4.82,3.3,9.74-.21-.14-.37-.23-.59-.35-.56-7.36-1.75-9.63-9.8-14.46Z"/><path class="cls-3" d="M156.68,5V4.84c7.79,4.15,14,7.71,26.27,15.68a1.67,1.67,0,0,0-.11.27c-11.33-7.38-17-10.88-26.18-15.83h0Z"/><path class="cls-3" d="M207.13,147.14a5.33,5.33,0,0,0,.86-.08c1.15,17.9,1.76,30.24.41,50.64l-.61,0c.6-18,1-28.87-.66-50.61Z"/><path class="cls-3" d="M148,1.27h-.15c1.54.09,7.86.62,24.28,3.71l.63.21C156,2,149.6,1.38,148,1.27Z"/><path class="cls-3" d="M148.51,1.33h0A39.64,39.64,0,0,1,153.13,3l0,0a39.06,39.06,0,0,0-4.58-1.74Z"/><path class="cls-3" d="M156.08,4.1l-.23-.17c9.51.7,11.9.89,17.23,1.35l.67.22c-5-.43-7.84-.66-17.64-1.38l0,0Z"/><path class="cls-3" d="M189.87,25.42a1.39,1.39,0,0,0,.07-.28,426.18,426.18,0,0,1,38.38,28.42,3.48,3.48,0,0,0-.13.44,432.38,432.38,0,0,0-38.34-28.55l0,0Z"/><path class="cls-3" d="M186.24,25.19l.44.23c-.16,6.76-.39,16-14.64,37.62a5.35,5.35,0,0,0-.68-.45c6.39-10.1,15.15-23.93,14.88-37.41Z"/><path class="cls-3" d="M247.39,133.44c.05.44.07.55.15,1-13.55,2.69-17.74,3.47-35.34,6.44a7.87,7.87,0,0,0-.12-1c17.63-3,21.92-3.76,35.32-6.43Z"/><path class="cls-3" d="M171.39,70.91c.19-.07.44-.18.63-.26,11.18,19.82,21.74,38.53,33.17,64.93l-.61.26c-11.06-23.86-15.2-32.78-33.28-64.9l.09,0Z"/><path class="cls-3" d="M229.23,57.32l.34.55c-5.19,1.13-16,3.47-55.62,8.42,0-.18-.09-.41-.14-.59,50.79-7.5,50.79-7.5,55.41-8.38Z"/><path class="cls-3" d="M232.22,60.66l.33.21c1,18.82-2.36,38-22.39,75.61-.22-.16-.52-.37-.75-.52,12.16-23.23,23.93-48.19,22.81-75.3Z"/><path class="cls-3" d="M164.17,245.82a5.63,5.63,0,0,0,.64-.18c2.08,10.63,5.23,26.69,1.17,38.5l-.43.11c1.58-6.42,3.74-15.22-1.47-38.41l.09,0Z"/><path class="cls-3" d="M203.25,206.48a3.56,3.56,0,0,0,.47.61c-13.47,12.13-15.19,13.6-36.31,31.69l-.35-.4c12-10.69,24.29-21.09,36.2-31.91Z"/><path class="cls-3" d="M167.7,243a5.07,5.07,0,0,0,.21-.62c14.28,3.5,40.86,10,54.56,17.31l-.45.45c-10.66-4.61-20.72-9-54.36-17.05l0-.08Z"/><path class="cls-3" d="M166.26,287l.33-.29c4.8,2.16,6.33,3.07,7.17,4.94l-.62.24c-.76-1.71-1.76-2.55-6.92-4.85l0,0Z"/><path class="cls-3" d="M220.18,262.35c-.06.1-2,2.62-52.6,23l.08-.25c39.52-16.54,39.52-16.54,52.52-22.77Z"/><path class="cls-3" d="M249.46,226.84l.31.09c-7.16,11.58-10.75,17.39-22.36,30.23l-.32-.08c9.17-10.54,13.35-15.36,22.37-30.24Z"/><path class="cls-3" d="M209.85,207.14a6,6,0,0,0,.6-.52c11.8,19.82,17.58,33.86,14.34,51.22l-.49.31c1.62-12.8,1.57-24.67-14.55-50.94l.09-.07Z"/><path class="cls-3" d="M190.44,7.6a105.6,105.6,0,0,1,35.81,18.75l-.21-.11-.2-.1c-2.25-1.18-4.77-3.54-6.81-5.05-4.36-3.24-12.86-8.2-28.59-13.48Z"/><path class="cls-3" d="M178.51,6.62l-.34-.16c18.91,5.91,29.4,10.38,46.79,19.93l.36.36c-14-7.67-24.77-13.21-46.77-20.11l0,0Z"/><path class="cls-3" d="M236,60.89a2.39,2.39,0,0,0,.14-.39c12,11.68,19.91,19.67,31.73,36-.05.11-.11.26-.15.37C258.21,84.36,252.47,76.81,236,60.93l0,0Z"/><path class="cls-3" d="M234.19,61.53l.37,0c5.42,11.58,14.5,31,16.89,65.79l-.38,0c-2.39-20.74-4.64-40.33-16.88-65.78Z"/><path class="cls-3" d="M249,137.64c.15.15.36.35.52.49-6.49,14.08-13.84,30-38.18,60.77-.16-.16-.4-.36-.58-.49,19.17-24.68,28.82-40,38.24-60.76Z"/><path class="cls-3" d="M269.45,185.17l.32.16c-4.78,13-7,19-14.4,32.1a2.87,2.87,0,0,0-.39-.17c6.34-12,9.84-18.59,14.47-32.09Z"/><path class="cls-3" d="M211.73,204.8a7.26,7.26,0,0,0,.3-.74c17.5,6.21,26.7,9.85,38.35,16.33-.21.33-.27.44-.47.79-7.73-4.23-14.4-7.89-38.23-16.27l0-.1Z"/><path class="cls-3" d="M268.33,180.89c0,.21,0,.49,0,.7-10.41,5-21.8,10-55.87,20.43,0-.2,0-.46,0-.66,35.37-11.65,39.92-13.15,55.93-20.47Z"/><path class="cls-3" d="M269.28,104c.2.34.26.43.47.74-4.25,9.31-5.84,12.8-15.27,25.24a6.11,6.11,0,0,0-.45-.78c7.43-10,10.22-13.73,15.25-25.19Z"/><path class="cls-3" d="M254,138a4.06,4.06,0,0,0,.42-.53c5.84,10.74,11.88,21.84,16.15,37.61a5.63,5.63,0,0,0-.49.58c-3.25-10.42-6.61-21.19-16.14-37.59L254,138Z"/><path class="cls-3" d="M219.73,264.13l.16.15c-10.11,8.21-22.7,18.43-42.49,26.47,11.06-5,23.59-10.75,42.32-26.62Z"/><path class="cls-3" d="M271.87,68.73c10.4,17.44,12.46,22.07,18.42,41.26-6.18-19.58-8.25-24.21-18.42-41.26Z"/><path class="cls-3" d="M255.54,250.38l-.65.68c-2.37,1.9-5.95,4.78-28.73,9.5.18-.2.22-.51.51-.61a49.13,49.13,0,0,1,5.26-1.13c5.84-1.25,19.84-4.59,23.61-8.44Z"/><path class="cls-3" d="M240,264.69l-1.25,1c-9.79,7.09-14.26,10.33-28.43,17.07,5.74-3.12,11.66-5.88,17.25-9.28,3.9-2.37,8.8-6,12.43-8.78Z"/><path class="cls-3" d="M223.5,263l.59-.45c-.72,5.55-1.62,12.46-15.22,20.59l-.76.34c6.2-4,14.68-9.39,15.29-20.42l.08-.06Z"/><path class="cls-3" d="M233.09,31.48l-.31-.33c9.91,6.77,22.24,15.19,33.36,29.44l.26.37c-6.91-8.15-14.74-17.38-33.27-29.43l0,0Z"/><path class="cls-3" d="M232.69,32c.25.09,26.86,19.44,37.24,64l-.29-.14c-4.72-17-11.18-40.35-36.94-63.83Z"/><path class="cls-3" d="M270.11,66.21c4.51,6.47,8.54,17.35,2.13,32.52-.19-.36-.24-.44-.44-.77,2.89-7.94,6.49-17.83-1.69-31.75Z"/><path class="cls-3" d="M177.08,4.17l1.16.24,5.1,1.18c-.67-.16-.67-.16-6.27-1.42Z"/><path class="cls-3" d="M156.31,1.5l1,.06c10.24.76,15.29,1.84,17.44,3.72-.25-.07-.5-.12-.74-.21a4.15,4.15,0,0,1-.82-.61,15.18,15.18,0,0,0-4.67-1.53A92.06,92.06,0,0,0,156.31,1.5Z"/><path class="cls-3" d="M175.93,5.65l-.66-.21c5.54.29,7.9.47,10.11.74l.92.25c-2.06-.25-4-.42-10.31-.76l-.06,0Z"/><path class="cls-3" d="M292.71,120.95c2.31,15.69,5.8,39.39-5.39,73.51,5-17.48,11.24-39.24,5.39-73.51Z"/><path class="cls-3" d="M273.61,182c.13-.35.22-.63.26-.78,5.41,5,9.69,9,11.43,16.26l-.34.85c-1.51-4.92-2.61-8.48-11.39-16.22l0-.11Z"/><path class="cls-3" d="M173.62,292.51l.59-.21c.93.69,2.66,2-5.14,3.21l-1.9.27-1,.13c6.07-.82,9.65-1.7,7.42-3.33l-.08,0,.08,0Z"/><path class="cls-3" d="M203.33,285.94l.67-.27a97.49,97.49,0,0,1-13.61,5.14l-1.11.33c7.67-2.47,8.65-2.79,14-5.16l.09,0Z"/><path class="cls-3" d="M204.89,284.92c-.06,0-6.25,2.65-29.78,7a4.38,4.38,0,0,1,.6-.25c9.72-2.3,19.61-3.85,29.18-6.79Z"/><path class="cls-3" d="M271.78,106.43l.34.07c4.37,22.7,5.59,38.62.74,67.71l-.35-.07c3.75-25.45,4.47-40.49-.73-67.71Z"/><path class="cls-3" d="M273.58,102.62c-.06-.34-.14-.65-.17-.78,10,4.81,13.48,6.95,17.4,11.88l.2.91c-3.65-4.38-6.1-6.55-17.41-11.91l0-.11Z"/><path class="cls-3" d="M292,118.85c.06.23,6.08,23.49-17.72,57.53,0-.19-.11-.44-.16-.63,8-12.39,20.21-31.12,17.87-56.9Z"/><path class="cls-3" d="M6,107.18c-.67,2.28-1.94,7.13-2.46,9.45q1.08-4.79,2.46-9.45Z"/><path class="cls-3" d="M132.84,296.3l-.27,0c2.82.28,6.71.62,11.8.74h-.26q-5.69-.14-11.27-.71Z"/><path class="cls-3" d="M30.47,239.1l-.07-.1c.28.3,7.06,8.52,7.11,8.58l-.08-.08q-3.63-4.07-7-8.4Z"/><path class="cls-3" d="M147.8,1.26c-2.53,0-4.71.07-6.09.12q3-.12,6.09-.12Z"/><path class="cls-3" d="M98.59,10.14a35.64,35.64,0,0,0-5.25,2.26l0,0c.72-.09,9.94-3.7,10.27-3.91l-.06,0a48,48,0,0,0-5,1.63Z"/><path class="cls-3" d="M42,49.65c2-2.27,4-4,4.78-4,1.28.24-4,6.31-6.16,7.77-.89.61-1.35.62-1.23,0A12.23,12.23,0,0,1,42,49.65Z"/><path class="cls-3" d="M78.43,276.52c-2.42-1.58-3.29-2.54-2.91-2.67h.1c1.56.12,9.47,5.15,8.91,5.66-.26.24-2.94-.91-6.11-3Z"/><path class="cls-3" d="M28.79,118.82c.48-2.66,2-5.39,4.23-5.52,3.53.05,3.19,7.43.28,10.29-2.12,2.08-4.77,1-4.69-3.06a11.19,11.19,0,0,1,.18-1.71Z"/><path class="cls-3" d="M40.79,188.39c-.75-3.73.84-5.47,2.63-5.5,4.8.32,6.27,8.4,3.87,10.44-1.86,1.58-5.51,0-6.5-4.94Z"/><path class="cls-3" d="M142,296.84a35.08,35.08,0,0,1-3.89-.43c2.78.13,5.53.57,8.31.63-.49,0-2.27,0-4.42-.2Z"/><path class="cls-3" d="M67,244.35c-1.49-2.49-1.22-4.25.65-4.3,4,.23,7.87,6.54,6,8.2-1.11,1-4.48-.24-6.67-3.9Z"/><path class="cls-3" d="M74,45.4c1.25-1.79,3.37-3.76,5.58-3.9,2.55,0,1.1,3.53-1.2,5.82-2.58,2.57-5.44,2.71-5.5.87A5.43,5.43,0,0,1,74,45.4Z"/><path class="cls-3" d="M118.25,9a14.51,14.51,0,0,1,4.63-1.7c.16,0,.53,0,0,.49-1.67,1.53-6.91,3.94-6.86,2.92,0-.34.84-1,2.21-1.71Z"/><path class="cls-3" d="M130.93,293.67c-1.56-.64-2.11-1.11-1.85-1.23a.55.55,0,0,1,.2,0c1.22,0,5.83,2.07,5.81,2.41a13.37,13.37,0,0,1-4.16-1.14Z"/><path class="cls-3" d="M98.56,135.72a5.59,5.59,0,0,1,5.59-5.78c5.89,0,6.77,7.21,3.53,10.24a5.42,5.42,0,0,1-9.12-4.46Z"/><path class="cls-3" d="M118.75,262.39c-.7-2.05.3-3.51,2.43-3.55,4.07,0,6,4.64,4.27,6.44-1.48,1.51-5.5.62-6.7-2.89Z"/><path class="cls-3" d="M109.75,195.39a4.73,4.73,0,0,1,4.9-5.48c5.78.13,7.31,6.65,4.45,9.44s-9,1.05-9.36-4Z"/><path class="cls-3" d="M133.4,31.4a4.13,4.13,0,0,1,4-3.09c3.41,0,3.83,3.7,2,5.56-2,2-6.16,1.48-6.15-1.46a4,4,0,0,1,.14-1Z"/><path class="cls-3" d="M158.95,241.24c.29-1.84,1.76-3.84,5-4,5.14.17,5,5.25,2.52,7.41-2.9,2.56-7.92,1.2-7.57-3,0-.14,0-.32.05-.45Z"/><path class="cls-3" d="M147.8,1.26a2.4,2.4,0,0,1,.73.07h0l-.21,0a3,3,0,0,0-.51-.06Z"/><path class="cls-3" d="M149.2,296.67a3.48,3.48,0,0,1,1.41-.53c.24,0,.22.1.11.19a5.2,5.2,0,0,1-2.14.64l.06,0a5.25,5.25,0,0,0,.56-.27Z"/><path class="cls-3" d="M164.35,66c0-1.88,1.12-3.94,4.28-4.06,5.16.14,6.77,5.72,4.32,8.09s-8.6,1-8.6-4Z"/><path class="cls-3" d="M153.63,3.87c-.43-.41-.82-.9-.26-.91,1.19,0,3.84,1.58,3.24,2.09-.31.26-1.65.09-3-1.18Z"/><path class="cls-3" d="M163,286.18a4.75,4.75,0,0,1,3.59-2.1c1.52,0,1.51,1.24,0,2.68-1.76,1.67-4.22,2.14-4.18.79a2.76,2.76,0,0,1,.59-1.37Z"/><path class="cls-3" d="M201.76,141.11c0-3.4,2-5.74,5.08-5.82,5.83.16,6.71,7.89,3.52,10.65-3,2.56-8.54,1.08-8.6-4.83Z"/><path class="cls-3" d="M202.73,203a5.93,5.93,0,0,1,5.67-5.34c5.32.16,4.71,6.41,2,9-2.95,2.78-7.74,1.77-7.72-2.63a7.13,7.13,0,0,1,.08-1Z"/><path class="cls-3" d="M183.5,22.61c-.38-.56-1.49-2.4.41-2.49,3.19.13,7,4.41,5.76,5.55-1,.87-4.2-.18-6.18-3.07Z"/><path class="cls-3" d="M172.48,292.17a21.29,21.29,0,0,1,4.73-1.53c.15,0,.29,0,.15.19-.66.79-7,2.89-7.8,2.72l0,0c.1-.12.22-.25,2.93-1.34Z"/><path class="cls-3" d="M247.32,132.42c0-3,1.35-5,3.52-5.12,4.25,0,5.86,8,3.09,10.72-2.32,2.27-6.54.31-6.61-5.6Z"/><path class="cls-3" d="M228.86,56.65c-1.31-2.61-.58-3.79.73-3.8,3.25,0,8.09,6.58,6.16,8.36-1.25,1.15-4.83-.44-6.89-4.55Z"/><path class="cls-3" d="M173.76,5.51a30.13,30.13,0,0,1-3.46-1.23l0,0c1.19,0,8.53,2.1,8.62,2.71-.36.15-3-.69-5.2-1.44Z"/><path class="cls-3" d="M221.41,260.75c1.91-2.17,4-3.58,5.53-3.68s.83,2-1.69,4.44c-2.79,2.69-5.58,3.57-5.62,2.27,0-.63.61-1.71,1.78-3Z"/><path class="cls-3" d="M249.48,222c1.3-2.82,3.28-4.72,5.06-4.83,3,0,1,5.74-1.77,8.34-2.17,2.06-4.22,1.83-4.15-.47a8.12,8.12,0,0,1,.87-3Z"/><path class="cls-3" d="M268.6,179.17c.52-2.34,1.78-4.9,3.75-5,3.19.11,2.44,7.81-.31,10.47-1.53,1.48-3.75,1.13-3.77-2.8a12.8,12.8,0,0,1,.33-2.64Z"/><path class="cls-3" d="M267.89,100.43c-.55-2.18-.55-4.55,1.1-4.68,2.87,0,6.16,8.28,4.15,10.37-1.19,1.24-4-.65-5.25-5.69Z"/><path class="cls-3" d="M227.49,28.56c-1.6-1.25-3.38-2.76-2.79-2.85,1.65.11,9.32,5.79,8.73,6.47-.18.21-1.66-.28-5.94-3.62Z"/><path class="cls-3" d="M206,284.41a48.91,48.91,0,0,1,5.18-2.22c-.26.64-9.24,4.41-10.13,4.55,0-.1,0-.1,4.95-2.33Z"/><path class="cls-3" d="M284.52,199.55c1.12-3.11,2.14-5.11,2.67-5.23,1,.21-2.42,9.86-3.74,10.64-.37.22-.38-.54,0-2,.28-1.13.75-2.49,1.09-3.43Z"/><path class="cls-3" d="M186,6.34c-1.77-.48-3.58-.83-5.33-1.37,2.32.44,9.1,2.27,11,3a4.66,4.66,0,0,1-.74-.2c-2.59-.75-3.37-1-4.91-1.4Z"/><path class="cls-3" d="M291.17,115.36c-.54-2.31-1.14-5.14-1-5.47.49.39,2.83,10.33,2.64,11.19-.32-.1-1.18-3.63-1.67-5.72Z"/><path class="cls-3" d="M268.36,63.73c-1-1.35-1.95-2.67-2.87-4h0l1.63,2.18,4.8,7c-1.24-1.66-2.37-3.4-3.57-5.1Z"/><path class="cls-4" d="M201,288l-.5.22c11.31-4.49,16-6.35,28-13.73l1.13-.73c-9.91,6-13.62,8.3-28.6,14.21l-.06,0Z"/><path class="cls-4" d="M239.13,267l.92-.72c6.56-5.65,6.68-5.76,9.56-9.17-.2.18-.42.35-.62.54-1.32,1.25-2.9,3.1-4.15,4.43a55.92,55.92,0,0,1-5.72,4.93Z"/><path class="cls-4" d="M202,287.51C219.88,279.44,229,274.6,247,259l0-.08c-15.23,12.9-23.57,19.1-45,28.59h0Z"/><path class="cls-4" d="M254,44.54l-.79-.8-.67-.67c-10.13-9.26-29-26.5-63.69-36.91C212.63,15,231.41,22.06,254,44.54Z"/><path class="cls-4" d="M261.9,53.19l-.65-.77c-1.19-1.19-2.78-2.78-4.07-3.86.2.23.38.47.59.68,1.22,1.2,3,2.67,4.12,3.94Z"/><path class="cls-4" d="M286.3,113.57c.1.14.22.34.31.5-.8-12.42-1.9-29.42-16.91-50.77l-.93-1.3c7.13,10.86,16.9,25.72,17.48,51.52l0,.06Z"/><path class="cls-4" d="M189,10.93l.61.31c.57-1.55.72-2-.25-3.35-.75-1.07-2.57-1.93-3.9-2.56l-.88-.25c2.18,1,3.28,1.55,4.2,2.78a2.68,2.68,0,0,1,.14,3l.08,0Z"/><path class="cls-4" d="M251.77,43.64c-15-13.8-31.14-27-62.49-37.31,20,7,38.42,14.7,62.49,37.31Z"/><path class="cls-4" d="M253.17,45.51c-.11-.13-14.2-14.5-61-32.7,1.89,1.53,5.22,2.21,7.48,3.12,31.85,12.85,47.07,24.57,53.56,29.57Z"/><path class="cls-4" d="M199.53,288.31c.12,0,12.53-4.73,20.82-15.31a7.86,7.86,0,0,0-.68.39c-1.34,1-2.59,2.89-3.71,4.13-.2.22-5,5.46-16.43,10.79Z"/><path class="cls-4" d="M255.12,251.07c20.39-22.12,29.52-38.23,37.55-66.31q.41-1.65.78-3.32c-4.09,15.41-10.94,41.19-38.32,69.61v0Z"/><path class="cls-4" d="M296.91,145.35q0-.58,0-1.17c-.83-7.1-1.54-13.23-8.45-23.34a3.13,3.13,0,0,0,0,.86c.65,1.89,2.42,4,3.46,5.7a40,40,0,0,1,5,17.95Z"/><path class="cls-4" d="M275.6,165.3c.09.12.19.28.26.41,4.7-11.93,9.13-23.19,10.52-42.16A5.36,5.36,0,0,1,286,123c-1.28,11.91-2.49,23.15-10.47,42.22l0,.06Z"/><path class="cls-4" d="M276.5,168.85c0,.38,0,.7,0,.85,12.79-5.84,19.46-10,20.44-16.68q0-.52,0-1c-1,4.93-3.12,9-20.43,16.74,0,0,0,.08,0,.12Z"/><path class="cls-4" d="M165.52,296.18c9.45-2.4,27-6.86,51.64-22.25l.07-.25c-10.89,6.51-29.12,17.42-51.69,22.49Z"/><path class="cls-4" d="M249.87,74.44c.14.19.28.38.41.58,7.33-8.76,10.56-15.39,6.68-25.37l-.64-.66c2.94,8.31,2.71,14.22-6.52,25.35l.07.09Z"/><path class="cls-4" d="M285.58,112.83l.25.19c-2.8-15.13-6.64-35.85-26.56-61.29l-.28-.19c9.06,12.29,21.46,29.12,26.55,61.26l0,0Z"/><path class="cls-4" d="M284.12,115.18c0-1.22-8.8-15.76-32.12-35.52,0,.15,0,.35,0,.51,12.05,10.88,22.46,20.28,32.14,35Z"/><path class="cls-4" d="M225,269.36l-.38.39a161.67,161.67,0,0,0,23.78-12.67l.57-.61a159.6,159.6,0,0,1-23.9,12.84l-.06.06Z"/><path class="cls-4" d="M253.94,251.67c.26-.21,26.12-23.84,20.57-76.31l-.31.31c1.73,24.84,1.41,47.71-20.27,76Z"/><path class="cls-4" d="M251.79,253.61c.1-.1,10.25-10.3-8-30-.23.35-.29.43-.54.75,7.57,8.62,13.91,17.34,8.52,29.27Z"/><path class="cls-4" d="M148.78,0a16.93,16.93,0,0,0,2,0,2.35,2.35,0,0,0-.31,0h-.59a9.46,9.46,0,0,1-1.13,0Z"/><path class="cls-4" d="M182.86,4.62c-3.53-1-20.77-3.48-33.75-4.55C179.36,4,179.36,4,182.86,4.62Z"/><path class="cls-4" d="M180.77,3.91l.6.14C173.14,2.11,169.73,1.3,157.45.31L156.24.24c10.55.84,14.05,1.19,24.43,3.65l.09,0Z"/><path class="cls-4" d="M158.1,298l1.51-.11c15.78-1.73,19.86-2.57,33.6-6.94-10.13,3.17-18.88,5.91-35.11,7Z"/><path class="cls-4" d="M163.73,296.66l-.57.12A262.28,262.28,0,0,0,194,290.39l.81-.3a262.07,262.07,0,0,1-31,6.55l-.07,0Z"/><path class="cls-4" d="M187.67,283.28l-.28.29c13.82-4.52,21.19-7.26,30.73-11l.51-.51c-11.12,4.39-16.53,6.39-30.92,11.19l0,0Z"/><path class="cls-4" d="M224,268.07c.13-.06,13.67-11.14,17.37-42l-.49.27c-2.18,13.71-4.06,25.56-16.87,41.73Z"/><path class="cls-4" d="M164.73,296.22a38.82,38.82,0,0,0,18-9.74,3,3,0,0,0-.49.15c-1.56.85-3.2,2.62-4.58,3.75-3.24,2.65-10.58,5.16-12.89,5.84Z"/><path class="cls-4" d="M148.48,298.31h1c9.33-.16,11.45-.75,12.26-1.25l-.7.12a1.92,1.92,0,0,0-.42.21,20.46,20.46,0,0,1-4,.63c-1,.09-3.33.25-8.19.3Z"/><path class="cls-4" d="M147.8,298.31a92.83,92.83,0,0,0,11.34-1l.59-.11a96.91,96.91,0,0,1-11.92,1.07Z"/><path class="cls-4" d="M273.19,164.74l.38-.16c-.82-16.52-2.19-44.17-22.47-82.91l-.4.16c10.6,21.57,21.07,45.75,22.48,82.92Z"/><path class="cls-4" d="M244.77,217.25l.17.2c8.07-10.3,16.41-20.95,26.47-41.68a2.93,2.93,0,0,1-.37-.48c-6.67,13.18-11.49,22.71-26.32,41.92l0,0Z"/><path class="cls-4" d="M240.5,217.9l.42-.32c-1.64-9.89-6-36.15-40.13-84.82-.21.18-.5.41-.72.57C217.48,158.9,235.9,189,240.5,217.9Z"/><path class="cls-4" d="M270.74,168.72c.06-.22.14-.5.2-.72-15.53-12.6-35.43-23.63-68.68-38.07,0,.21-.12.5-.18.71,28.86,13.45,49.72,23.17,68.66,38.08Z"/><path class="cls-4" d="M166.17,67.05,167,67h0c-2.15-11.29-8.71-45.64-15.67-62.21l-.24,0h0c1.77,4.68,7.16,18.9,15.09,62.25Z"/><path class="cls-4" d="M185.65,10.61C184.47,9.72,161,2,149.68.16c6.82,1.42,15.3,3.19,36,10.44Z"/><path class="cls-4" d="M186.65,11.29c-.56-.37-.57-.37-5.39-1.44-9.74-2.15-19.54-4-29.28-6.21l.06.19c11.51,2.63,23.1,4.86,34.61,7.46Z"/><path class="cls-4" d="M148.34,298.31c6.6-.65,14.08-1.38,32.56-11.68l-.07-.16c-9.55,5.2-20.38,11.1-32.48,11.83Z"/><path class="cls-4" d="M245.29,71.94l.29-.07C232.78,49.5,218.92,31.09,192.87,14c17.4,12.23,33.35,25,52.42,58Z"/><path class="cls-4" d="M170.41,68.14c.16.12.35.3.5.43,17-19.14,31.19-39.06,19.73-55.09L190,13.2c7.32,11.43,6.77,25.14-19.69,54.87l.09.06Z"/><path class="cls-4" d="M201.15,124.56a6.54,6.54,0,0,1,.4.63c19.91-15.28,35.23-28.8,45.31-45.17-.24-.28-.35-.4-.59-.72-7.18,10.95-16,22.64-45.19,45.18l.07.1Z"/><path class="cls-4" d="M244.95,77c-.1-.25-.23-.58-.32-.83-14.75-1.11-31.37-2.29-72.18-4.43,0,.25.05.58.06.82,17.79.94,47.57,2.52,72.44,4.44Z"/><path class="cls-4" d="M147.8,298.31h0Z"/><path class="cls-4" d="M147.8,298.31h0c4.54,0,6.42-1.43,5.57-4.23l-.27.16c.08.93,0,2.46-.69,3-.91.7-2.42,1-4.61,1Z"/><path class="cls-4" d="M154.61,292.48l0,.16c9-2.36,26.7-7.19,26.87-7.24l.37-.38c-9.06,2.48-18.15,4.88-27.19,7.43v0Z"/><path class="cls-4" d="M238.5,220.36l.37-.61c-13.54-9.36-30.24-17.57-61.62-30.29-.07.21-.17.48-.26.68,35.55,15.39,45.1,19.52,61.5,30.22Z"/><path class="cls-4" d="M187.87,281.94c14-10.31,31-24.93,50.79-55.27a4,4,0,0,1-.46-.2c-8.82,13.25-23.58,35.42-50.36,55.47Z"/><path class="cls-4" d="M183.84,283.39l.59-.38c-3.39-7-9.07-11.85-25.3-21.53a4.07,4.07,0,0,1-.37.55c16.28,9.73,21.91,14.52,25.08,21.36Z"/><path class="cls-4" d="M159.46,258c0,.13.1.31.14.44,51.33-20.8,69.78-30.18,77.66-34.19,0-.23,0-.53.08-.76-23.61,11.78-34,16.12-77.91,34.43l0,.07Z"/><path class="cls-4" d="M163.29,68.59l.41-.42C136.6,42.35,131,37,124.48,25.36l-.39.28c7.46,13.25,17.18,22.78,39.21,42.94Z"/><path class="cls-4" d="M162.34,71.41c0-.24,0-.56.06-.8-32.68-5.31-47.6-7.73-70.74-12.5-.1.22-.25.52-.36.74,23.74,4.86,37.59,7.11,71,12.56Z"/><path class="cls-4" d="M174.09,182.44c.2.07.46.18.65.27a508.88,508.88,0,0,0,20.7-48.83,6.16,6.16,0,0,1-.87-.37c-6.3,16.62-9.77,25.77-20.59,48.9l.11,0Z"/><path class="cls-4" d="M194,123l.61-.29c-5.8-12.37-8.71-18.57-24.28-46.47l-.56.25C189.63,114,189.63,114,194,123Z"/><path class="cls-4" d="M85.2,126.48l.22.4C111.3,109.3,137.75,92.57,163.65,75c-.17-.2-.38-.48-.53-.7-26,17.36-52.76,33.57-78,52.08l.06.1Z"/><path class="cls-4" d="M86,129.65c0,.17,0,.4,0,.57,12.9.17,12.9.17,105.53-1.45,0-.29,0-.68-.05-1-35.16.6-70.31,1.12-105.46,1.78v.07Z"/><path class="cls-4" d="M143.23.11l-.76,0,6.23-.07-.2,0L143.29.1Z"/><path class="cls-4" d="M112.92,286.41l.45.26c2.92-6.3,10.17-12.39,38.59-24.86a3.47,3.47,0,0,1-.24-.57c-22,9.77-36.16,17.38-38.88,25.13l.07,0Z"/><path class="cls-4" d="M153.18,291.47l.31,0c1-4.29,2.57-10.76,2.53-27.87a4.71,4.71,0,0,1-.66.05c0,8,0,20-2.18,27.85Z"/><path class="cls-4" d="M145.24,298.18c-10.11-1.23-20-5.42-28.64-9.11a93.71,93.71,0,0,0,28.64,9.11Z"/><path class="cls-4" d="M146.12,298.24l.3,0a4,4,0,0,1-1.72-.66c.39-.83.65-1.37,6.45-3.74a1.5,1.5,0,0,1,0-.22c-1.48.63-3.48,1.44-4.89,2.23a6.21,6.21,0,0,0-1.77,1.53c.38.66.39.67,1.62.83Z"/><path class="cls-4" d="M151.25,293l.08-.2c-12.11-2-24.31-3.38-36.46-5.16.48.34.48.34,4.77,1,10.52,1.55,21.08,2.82,31.6,4.38Z"/><path class="cls-4" d="M91.36,53.76a3.43,3.43,0,0,1,.3.28c11-11.11,16-16.19,28.65-27.95a1.57,1.57,0,0,1-.32-.28c-9.46,8.78-17.57,16.41-28.69,27.91l.06,0Z"/><path class="cls-4" d="M152,258.15l.27-.43c-29.52-17.42-60.41-32.43-89.35-50.87l-.07.5c10.18,6.78,12.6,8.39,26.42,16.26,20.74,11.82,42,22.76,62.73,34.54Z"/><path class="cls-4" d="M156.31,256l.35,0c6.54-23.45,13.79-58.63,14.59-62.56a6.69,6.69,0,0,1-.91-.12c-3.39,16.49-5.63,27.38-14.12,62.64Z"/><path class="cls-4" d="M166.79,185.28c.14-.25.34-.59.5-.83-60.76-36.52-60.76-36.52-81.91-51.59-.13.26-.32.61-.47.86,20.18,14.19,20.18,14.19,81.88,51.56Z"/><path class="cls-4" d="M62.37,203.36c.06.17.13.39.19.55,68.38-10.14,68.38-10.14,103.68-14.85,0-.28-.06-.66-.07-.94C118.69,194.4,90,198.18,62.33,203.26l0,.11Z"/><path class="cls-4" d="M150.79,2.45l.18.09-.17-1.44L149.75.28l-.17,0,1.06.85.12,1.34Z"/><path class="cls-4" d="M121.06,5.85l-.41.2C147.88.74,147.88.74,149,.24l0-.11-.2,0,0,.14c-.49.19-.49.19-27.66,5.59l-.06,0Z"/><path class="cls-4" d="M126.22,21.07a2.45,2.45,0,0,1,.11.28C142,11.27,146.31,8,149.93,4.42l-.2-.18C146.27,7.47,144.18,9.42,126.2,21l0,0Z"/><path class="cls-4" d="M121.23,21.83a6.21,6.21,0,0,1,.48-.43c-3.61-4.37-7.34-8.9-3.6-14.18-.7.3-2.9,1.7-1.72,7.25.35,1.63,2,4.11,4.83,7.35Z"/><path class="cls-4" d="M120.51,6.13l-.44.21c7.47-.67,29.09-2.66,29.28-2.68,0-.06,0-.15-.06-.22-9.57.88-19.15,1.7-28.71,2.65l-.07,0Z"/><path class="cls-4" d="M109.48,285.24c-11.68-9.6-33.42-27.46-49-75.49l-.39,0c6.94,21.85,19.61,53.45,49.39,75.46Z"/><path class="cls-4" d="M20.7,154.42c0,.22.08.52.11.75,16.32-8.6,27.11-13.35,55.14-22.89a7.37,7.37,0,0,1-.14-1c-27.26,9.27-39.63,14.43-55.14,23l0,.12Z"/><path class="cls-4" d="M58.89,199.36l.36.17c4.56-23.26,7.43-34.78,19.53-63.73-.23-.11-.54-.27-.76-.4C65.65,165,62.23,178.48,58.8,199.32l.09,0Z"/><path class="cls-4" d="M80.21,124.37l.63-.09c.25-27.13.81-38.7,6.16-62.07l-.69.09c-4.55,19.93-6.4,33-6.1,62.08Z"/><path class="cls-4" d="M76.5,127.38a6,6,0,0,1,.49-.84C61.64,114,49.13,103.19,39.6,87.81c-.23.34-.29.43-.53.74C46.14,99.36,53,108.47,76.5,127.38Z"/><path class="cls-4" d="M123.28,295.5a3,3,0,0,1,.69.15c-4.75-1.63-8.51-2.92-10.4-7l-.64-.31c1.47,2.66,2.53,4.58,10.26,7.09l.09,0Z"/><path class="cls-4" d="M109.2,285.66c-16.37-9.46-26.55-15.58-45.41-31.33l-.05.26a248.06,248.06,0,0,0,45.46,31.07Z"/><path class="cls-4" d="M58.28,247.25l.48.28c-3-13.23-3.84-20-.8-38.35a5.65,5.65,0,0,1-.69-.46c-2.44,16-2.67,24.19.94,38.49l.08,0Z"/><path class="cls-4" d="M54.47,201.12c.05-.16.13-.37.2-.52-13.78-13.82-23.73-23.81-34.11-40.42a6.2,6.2,0,0,1-.24.67C27,171.14,34,181.78,54.47,201.12Z"/><path class="cls-4" d="M120.35,5.32l.58-.18c2.91-1,6.7-2.68,9.69-3.45A67.8,67.8,0,0,1,139.55.34c-11,.89-17.18,4-19.2,5Z"/><path class="cls-4" d="M88.09,53.59l.52-.17c3.07-14.48,6.9-32.5,27.18-45.36-.21.05-21.37,8.08-27.7,45.53Z"/><path class="cls-4" d="M87.51,14.74,87,15c7.45-2.35,13.34-4.21,29.08-8l.57-.28c-15.5,3.67-21.3,5.43-29,7.89l-.09,0Z"/><path class="cls-4" d="M41.48,82.64c0,.18,0,.41-.06.59A474.44,474.44,0,0,1,83.57,60.16a3.9,3.9,0,0,1,0-.7C71.74,65.35,57,72.68,41.48,82.55v.09Z"/><path class="cls-4" d="M85.33,55.6a7.74,7.74,0,0,1,.6-.64c-12-14.55-16.2-25.43-2.55-38a19.83,19.83,0,0,0-9.07,17.57c.42,8.39,7.06,16.34,11,21.09Z"/><path class="cls-4" d="M22.4,68.47c2.41-3.41,5.62-8,8.22-11.22l.26-.38c-2.28,3-5.37,7-7.48,10.09l-1,1.51Z"/><path class="cls-4" d="M33.48,53.46v.09l.62-.73v-.09l-.62.73Z"/><path class="cls-4" d="M120.59,295c-14.47-4.49-36.33-11.28-57.84-39.9l-.47-.09c12.33,15.49,27,31.33,58.29,40Z"/><path class="cls-4" d="M121.26,295.23c-20.53-5.73-25.4-7.09-42.91-15.76.11.08,14,8.8,42.91,15.76Z"/><path class="cls-4" d="M4.32,108.36c2.6-5.8,6.65-11.4,30-21.25.08-.36.11-.47.23-.86-17,7.32-26.76,12.85-29.92,21.13l-.28,1Z"/><path class="cls-4" d="M18.28,150.41l.3.12c2.43-17.37,4.73-33.78,16.86-59.95A3.3,3.3,0,0,1,35,90.4c-6.48,14.77-13.82,31.51-16.78,60l.06,0Z"/><path class="cls-4" d="M35.78,83.44c.23-.37.29-.46.52-.79-5.36-8.63-9-16.15-3.21-27.76-2.14,2.5-8.26,11.93,2.69,28.55Z"/><path class="cls-4" d="M38.27,80.71l.58-.31c3.64-15.33,9.74-41,42.12-62.32-.32.13-33,16.33-42.7,62.63Z"/><path class="cls-4" d="M56.08,246.85c-12.86-18.28-30.47-43.3-37-84.51l-.4.14c3,15.91,9.15,49,37.43,84.37Z"/><path class="cls-4" d="M71.58,275.19l.53.3c-8.15-8.17-10.27-12-11.93-21.66-.25-.19-.38-.29-.68-.54,1.67,9.41,3.45,13.42,12,21.86l.08,0Z"/><path class="cls-4" d="M8.23,201.76C15.25,217.11,25,229.17,56,249c-.07-.16-.09-.41-.21-.53-1.86-1.86-5.16-3.35-7.37-4.78-30.16-19.56-37.23-35.36-40.62-43l.4,1.07Z"/><path class="cls-4" d="M0,128.95c-.08,5.89-.18,13.22,15.27,25.93,0-.41,0-.54.1-1-9-7.82-16.29-15.17-15.23-26l-.15,1Z"/><path class="cls-4" d="M3.31,186.24c-.88-6.36-1.88-13.56,12.32-27.12-.1-.4-.12-.52-.2-1C8.83,164.81.6,173.07,3.06,185.22l.26,1Z"/><path class="cls-4" d="M147.8,298.31h-1.19c.21,0,.42,0,.63,0Z"/><path class="cls-4" d="M146.7,298.29c-2.1-.09-8.25-.48-19.91-2,1.42.29,12.36,1.71,19.91,2Z"/><path class="cls-4" d="M98.39,289.9c4.87,1.58,10.94,3.56,25.51,6-21.68-4.63-21.68-4.63-26.47-6.29l1,.34Z"/><path class="cls-4" d="M140.05,298.11c-3.49-.21-9.34-.57-13.43-1.73l-.86-.16c1.94.53,4.88,1.32,13.26,1.83l1,.06Z"/><path class="cls-4" d="M17.94,222.48C25.11,234,38.45,255.42,69.6,274.6c-2.25-2.42-6.38-4.32-9.13-6.14a145.86,145.86,0,0,1-43.6-47.91q.53,1,1.08,1.94Z"/><path class="cls-4" d="M85.36,284.6c-4.4-2.23-6.83-3.45-9.75-6.06l-.79-.45a38.86,38.86,0,0,0,9.6,6.07l.94.44Z"/><path class="cls-4" d="M53.59,264.71a100.17,100.17,0,0,0,17.74,11.21c-.21-.15-.42-.31-.64-.45-1.7-1.09-4.13-2.25-5.89-3.21A88.69,88.69,0,0,1,52.73,264l.86.71Z"/><path class="cls-4" d="M144,0a15.43,15.43,0,0,0-1.7.09C144.22,0,144.22,0,145,0l-1,0Z"/><path class="cls-4" d="M115.75,3.47c-12.1,3-18.49,4.94-28.85,10.83,4-1.8,7.69-4.21,11.82-5.73A113.79,113.79,0,0,1,117,3.21l-1.22.26Z"/><path class="cls-4" d="M89.61,13.48l-.22.15C102,8.46,116.31,2.6,138.06.45l.39,0C126.3,1.89,112.52,3.57,89.64,13.46l0,0Z"/><path class="cls-4" d="M85.5,13.64a4.43,4.43,0,0,0-1.44,1.08c-.15.23,0,.67.11.92l.83-.42a1.4,1.4,0,0,1,0-1.09,3.8,3.8,0,0,1,1.33-.88l-.88.4Z"/><path class="cls-4" d="M39.68,46.51,36,50.67c.76-.83.76-.83,4.55-5.06l-.87.91Z"/><path class="cls-4" d="M37.54,49.4l-.15.21C47,40.33,57.79,29.82,80.08,18.12l.26-.22c-11.76,6.5-26.4,14.59-42.77,31.46l0,0Z"/><path class="cls-4" d="M255.17,47.76c2.42,2.63,4,4.11,4.36,4.05.21-.77-6.58-8.1-7.74-8.34h0c-.09.27,1.06,1.71,3.41,4.28Z"/><path class="cls-4" d="M250.14,255.26c-3.39,3.45-3.22,3.75-3.08,3.75.92.05,8.52-7.52,8.05-8l-.06,0c-.24,0-1.2.51-4.91,4.28Z"/><path class="cls-4" d="M196,289.64c-4.5,1.68-4.5,1.68-4.66,1.76.86.12,9.76-3.24,10.62-3.86v0c-.35,0-.35,0-6,2.14Z"/><path class="cls-4" d="M183.64,4.84c5.62,1.55,5.62,1.55,5.74,1.56-.41-.45-9.41-2.81-10.94-3a10.14,10.14,0,0,0,1.57.44c.63.16,2.09.55,3.63,1Z"/><path class="cls-4" d="M284.65,119.19c.95,4.16,2.56,5.92,3.37,4.72,1.24-1.84-.58-11-2.9-11.23-1.4.21-1.13,3.64-.48,6.51Z"/><path class="cls-4" d="M219.65,271.12c-2.53,2.17-2.81,3-2.23,3.07,1.83.21,9.34-5.57,8.45-6.51a.48.48,0,0,0-.34-.11c-1.13,0-3.38,1.4-5.88,3.54Z"/><path class="cls-4" d="M270.36,171.28c-.28,4.47,1.88,6.15,3.86,4.39,2.78-2.48,3.3-11-.08-11.17-1.94.06-3.53,2.91-3.77,6.78Z"/><path class="cls-4" d="M244.89,76.82c2.11,5,6.1,6.27,7,4,.92-2.47-2.32-8.77-5.93-8.94-1.83,0-2.25,2.08-1,5Z"/><path class="cls-4" d="M237.74,222c-1.42,3.91.49,5.55,3.07,4.35,3.79-1.76,6.12-8.54,3.28-9.54a2.36,2.36,0,0,0-.77-.12c-2.22.1-4.46,2.23-5.58,5.32Z"/><path class="cls-4" d="M187.63,11.9c3.65,2.2,5.4,2.39,5.35,1.88-.09-1-6-4.17-8-4.26-.23,0-.61.05.25.78a21,21,0,0,0,2.37,1.6Z"/><path class="cls-4" d="M160.79,297c-1.14.23-2.3.32-3.42.64.78,0,7.31-1,8.28-1.55l-.05,0c-.11,0-.11,0-4.81.94Z"/><path class="cls-4" d="M182.38,284.5c-1.57,1.34-2,2.21-1.09,2.26,2.22.13,7.78-3.76,6.76-4.72a.83.83,0,0,0-.57-.16c-1.31,0-3.26,1-5.09,2.62Z"/><path class="cls-4" d="M147.8,298.31h0Z"/><path class="cls-4" d="M191.47,128.28c.32,6.05,6.68,7.34,9.51,4.29,2.56-2.77,1.81-9.92-4.33-10.25-3.28.07-5.36,2.46-5.18,6Z"/><path class="cls-4" d="M148.62.06c.28,0,.53.09.84.16a2.56,2.56,0,0,0,.77.11A6.47,6.47,0,0,0,147.8,0h0a5.67,5.67,0,0,1,.81.06Z"/><path class="cls-4" d="M166.17,187.88c-.15,5.76,6.23,7,9.46,4.12s2.57-9.45-3-9.86l-.47,0c-4.28.23-5.89,3.12-6,5.76Z"/><path class="cls-4" d="M162.39,72.19c.64,5,6.93,5.79,9.2,3,2-2.38.77-8-4.6-8.24h0a4.35,4.35,0,0,0-4.58,5.2Z"/><path class="cls-4" d="M151.2,293.17c-.38,1.36.81,1.7,2,1s2.07-2.3.79-2.68a1.75,1.75,0,0,0-.48-.07,2.43,2.43,0,0,0-2.32,1.73Z"/><path class="cls-4" d="M149.29,3.43a1.81,1.81,0,0,0,1.79,1.37h0c1.24,0,1.24-1.07.36-1.9a2.21,2.21,0,0,0-1.37-.62c-1,0-.82,1-.79,1.15Z"/><path class="cls-4" d="M151.55,260.07c0,3.72,4.54,4.67,6.92,2.27,2.17-2.18,1.6-6.32-2.52-6.36-3.24.16-4.4,2.22-4.4,4.09Z"/><path class="cls-4" d="M119.94,23.68c-1.08,2.5,1.12,3.21,3.12,2.48,2.77-1,4.42-4.8,2.49-5.7a2.32,2.32,0,0,0-.95-.19,5.7,5.7,0,0,0-4.66,3.41Z"/><path class="cls-4" d="M147.11,298.3h.69a21.84,21.84,0,0,1-2.5-.16c-.16,0-.33,0-.49,0h0a15.53,15.53,0,0,0,2.32.19Z"/><path class="cls-4" d="M75.8,130.33c-.26,5.76,5.24,7.19,8.21,4.46s3.17-10.17-2.77-10.52c-2.49,0-5.25,1.93-5.44,6.06Z"/><path class="cls-4" d="M83.95,58c-1.49,3.88,1.49,5.12,4.23,3.87,3.68-1.68,5.43-7.32,2.6-8.38a3.19,3.19,0,0,0-1.06-.18c-2.35,0-4.72,2-5.77,4.69Z"/><path class="cls-4" d="M111.56,287.63c2.63,1.59,5.29,2.36,5.18,1.71-.15-.86-5.11-4.11-7.07-4.12-.63,0-.66.37-.07,1a11.45,11.45,0,0,0,2,1.44Z"/><path class="cls-4" d="M54.81,205.16c1.69,4.8,6.51,6,7.82,2.91,1.15-2.7-.92-9-5.38-9.08-3.1.18-3.44,3.32-2.44,6.16Z"/><path class="cls-4" d="M117.37,6.45c-2.21,1-3,1.61-2.57,1.73.83.24,7.87-2.76,7.85-3.35l-.15,0a21.24,21.24,0,0,0-5.13,1.65Z"/><path class="cls-4" d="M57.59,251.32c2.77,3.38,6,4.69,6.2,3.06.23-1.91-4.21-7.52-7.17-7.65-1.33,0-1.44,1.64,1,4.59Z"/><path class="cls-4" d="M34.8,85.46c-1.57,4.06-.12,5.95,2.18,4.86,3.48-1.64,6-9.17,3.41-10.06a1.87,1.87,0,0,0-.53-.08c-1.8.05-3.88,2.23-5.07,5.28Z"/><path class="cls-4" d="M142.53.13c-2.63.13-4.55.32-4.86.36C141,.38,144.4,0,147.78,0c-1.76,0-3.52,0-5.25.13Z"/><path class="cls-4" d="M125.16,296.11c2.71.53,5.22.89,5.5.89-.05,0-9.63-2-10.15-2a30.64,30.64,0,0,0,4.65,1.16Z"/><path class="cls-4" d="M15.28,156.69c.3,5.28,2.9,6.88,4.43,5.13,2.18-2.49,1.36-11.37-1.86-11.47-2,.14-2.75,3.29-2.57,6.34Z"/><path class="cls-4" d="M83.7,15.89C82,16.78,80,18,79.93,18.34c.44.31,9.52-4.36,9.91-5.09l-.07,0a31.2,31.2,0,0,0-6.07,2.67Z"/><path class="cls-4" d="M73.57,277.35c2.33,1.42,5.06,2.85,5.41,2.71-.15-.58-8.56-5.74-9.57-5.87h-.06c-.11.33,2.11,1.86,4.21,3.15Z"/><path class="cls-4" d="M33.69,53.31c-1.13,1.35-3.28,4-3.29,4.4.46,0,7.34-8.17,7.36-8.73h0a33.86,33.86,0,0,0-4.05,4.34Z"/><path class="cls-4" d="M147.8,298.31h0Z"/><path class="cls-4" d="M6.65,111.41c-.08.12-.18.3-.26.43,3-17,5.12-25.12,16-43.37l1-1.51C12.84,84.47,10,91.94,6.69,111.36l0,.05Z"/><path class="cls-4" d="M33.48,53.46l.62-.73c.77-.27,1.72-.6,14.9-1.17q-.27.35-.53.71c-7.47.34-14.24.69-15,1.19Z"/><path class="cls-4" d="M5.31,114.67c-.08.28-.15.55-.22.83-1.21-3.64-1.39-4.2-.76-7.14l.28-1c-.46,3.57-.53,4.12.74,7.18l0,.11Z"/><path class="cls-4" d="M8.23,201.76l-.4-1.07c-.56-1.92-1.42-4.46-1.82-6.42.87,2.46,1.32,5,2.22,7.49Z"/><path class="cls-4" d="M0,128.95l.15-1c1.39-5.22,1.5-5.64,4.4-9.89a4,4,0,0,1-.13.92A31.69,31.69,0,0,1,2,122.86a20.12,20.12,0,0,0-2,6.09Z"/><path class="cls-4" d="M4.49,189.23l.2.79-1.38-3.78-.26-1,1.41,3.9,0,.11Z"/><path class="cls-4" d="M147.62,298.31h0Z"/><path class="cls-4" d="M98.39,289.9l-1-.34c-1.18-.46-2.76-1.06-3.92-1.57,1.63.64,3.23,1.32,4.88,1.91Z"/><path class="cls-4" d="M146.45,298.31h.86c-3.06,0-3.88,0-7.25-.2l-1-.06c3.21.16,3.88.19,7.3.25Z"/><path class="cls-4" d="M17.94,222.48q-.55-1-1.08-1.94c-6-12.11-6.6-13.38-10-24.07,0,.09.12.2.16.29,1.23,2.89,2.36,6.93,3.37,9.9,1.69,5,5.06,11.17,7.52,15.81Z"/><path class="cls-4" d="M90,286.54l.73.31c-1.62-.66-3.79-1.53-5.38-2.25l-.94-.44c1.64.71,3.83,1.68,5.5,2.33l.1,0Z"/><path class="cls-4" d="M53.59,264.71l-.86-.71c-5.17-4.72-7.76-7.09-10.82-12.58.21.2.44.38.63.6a37.09,37.09,0,0,1,2.67,4.13c.09.14,2.27,3.46,8.37,8.55Z"/><path class="cls-4" d="M144,0l1,0,1.07,0L144,0Z"/><path class="cls-4" d="M115.75,3.47,117,3.21A152.56,152.56,0,0,1,142.49.1a157.6,157.6,0,0,0-26.74,3.37Z"/><path class="cls-4" d="M85.5,13.64l.88-.4c1.73-.66,4.1-1.57,13.08-3a7.12,7.12,0,0,1-.78.35,24,24,0,0,1-2.89.48c-.75.12-7.45,1.25-10.28,2.54Z"/><path class="cls-4" d="M39.68,46.51l.87-.91c7.22-6.86,22.24-21.14,56.35-34.09-2.33,1.34-5.79,2.41-8.28,3.43A195.94,195.94,0,0,0,65.83,26.38C52.07,34.8,45.62,40.32,39.68,46.51Z"/><path class="cls-4" d="M104.09,8.49l-.44.14c11-4.49,18.08-7.09,37.1-8.45l.57,0C128.51,1.21,119.25,2,104.16,8.47l-.07,0Z"/><path class="cls-4" d="M101.43,10.31c.8-.37,1.21-.55,25.41-1.55-.11.09-.14.26-.31.27-8.36.51-16.74.76-25.1,1.28Z"/><path class="cls-4" d="M142.32,298.21h.23c-13.28-1-25.82-2-44.65-8.68l-.19-.09c12.83,4.09,25,8,44.59,8.76Z"/><path class="cls-4" d="M87.67,285.35c-.22-.08-23.4-9.52-43.22-31.82,2.9,1.52,5.39,5.43,7.67,7.77a128.87,128.87,0,0,0,35.55,24.05Z"/><path class="cls-4" d="M92.46,287.32c-1-.43-1.21-.5-1.67-1.12a2.46,2.46,0,0,1-.32-1.6c.12-.85,1.58-1.75,2.75-2.48l.71.42c-1.67,1.07-2.36,1.51-2.67,2.52s.37,1.5,1.2,2.25Z"/><path class="cls-4" d="M4.37,186.19c-2.84-14.71-6.38-33,.16-64.13-3.11,18.17-6,35.33-.16,64.13Z"/><path class="cls-4" d="M8,111.86c0-.15,6.8-24.1,39.07-56.49l0,.29C31.62,71.88,18.93,86.32,8,111.86Z"/><path class="cls-4" d="M50.52,123.44c0,.23-.08.47-.11.7-7.09-.67-31.16-3.14-43.17-6.69q.11-.47.22-.94h0c7.67,2.13,17.18,3.93,43.08,6.85l0,.11Z"/><path class="cls-4" d="M90.36,279.95l.16.17c-9-4.28-27.8-13.19-45.78-27.5l-.34-.51c8.57,6.51,21.53,16.34,45.94,27.8l0,0Z"/><path class="cls-4" d="M90,250.61c.07.15.17.36.24.51-18.59,0-47.28-1.11-47.51-1.12l-.62-.71c4.94.23,13.21.61,47.86,1.27l0,.05Z"/><path class="cls-4" d="M37.35,245.4c-8.67-10.09-20.55-23.91-29.83-48.35l0-.25c5.39,12.81,12.1,28.76,29.82,48.58v0Z"/><path class="cls-4" d="M40.69,247.77c-.15-.16-13.45-17.07,26.78-50.08.11.19.26.44.38.62C53,211.76,34.51,228.51,40.69,247.77Z"/><path class="cls-4" d="M5.64,189.2c-.08-.23-7.34-23.62,44.83-62.44,0,.2.12.47.18.67-18.76,14.94-44.44,35.39-45,61.77Z"/><path class="cls-4" d="M66.57,194.78c0,.18.06.43.1.61-21-.23-53.25-2-60.09-3.16l-.27-.94c5.61.82,14.89,1.76,60.26,3.41v.07Z"/><path class="cls-4" d="M263.41,243.28c2-3.37,3.8-6.28,1.68-11.47q.28-.38.55-.77c1,3.55,1.93,6.61-1.6,11.46l-.63.78Z"/><path class="cls-4" d="M147.8,298.31h0Z"/><path class="cls-4" d="M144,298.26c-29.56-.83-41.88-10.11-47.8-14.56.14.06.35.13.48.21a51.77,51.77,0,0,1,4.84,3.56,43,43,0,0,0,11.65,5.6c12,3.66,15.76,4.29,30.82,5.2Z"/><path class="cls-4" d="M148.25,298.31c2.42,0,8.38-.4,21.14-2.34a183.88,183.88,0,0,1-21.14,2.34Z"/><path class="cls-4" d="M53.17,119.11c-.18.12-.42.3-.59.44C48,104.4,41,81.48,49.27,55.74l.6-.38c-5.1,18.41-6.18,34.74,3.39,63.7l-.09.05Z"/><path class="cls-4" d="M54.29,47.57H54c8.51-10.32,19.11-23.16,41.84-35.15l.23,0C84.21,19.16,70.73,26.81,54.3,47.57Z"/><path class="cls-4" d="M94.66,44.76c-.16.13-.31.26-.46.4-4.15-7.46-11.87-21.35,4-33.42l.71-.29C92.95,16.39,83,24.65,94.73,44.7l-.08.06Z"/><path class="cls-4" d="M53.23,51.87l.39-.55c5.62-.79,10.94-1.53,38.84-3.79-.15.32-.19.42-.29.69C70.91,49.94,64,50.65,53.23,51.87Z"/><path class="cls-4" d="M93.36,280.23c-.1-.05-9.06-6.7-1.26-26.71a7.47,7.47,0,0,0,.65.51c-3.58,9.7-5.32,16.31.61,26.2Z"/><path class="cls-4" d="M146.29,298.29h.28c-10.71-.86-22.43-2.6-47.83-14.22-.05-.07-.12-.18-.18-.25,15.17,6.9,30.24,13.19,47.7,14.46Z"/><path class="cls-4" d="M140,296.23l.19.13c-21.47-5.83-32.95-9.85-42.17-13.07l-.48-.38c9.16,3.23,20.55,7.25,42.44,13.31l0,0Z"/><path class="cls-4" d="M69.43,189.81l-.36.09a243.55,243.55,0,0,1-14.23-59.8c.22-.05.52-.14.74-.21,1.81,13.81,4.29,32.73,14,59.91l-.09,0Z"/><path class="cls-4" d="M57,118.86c-.19-.09-.46-.21-.66-.28,9.72-23.83,17.67-39.94,36.53-67.08l.31.14C77.86,75,69.28,88.55,57,118.86Z"/><path class="cls-4" d="M138.11,136.83l-.44.24C102.73,84.65,98,60.48,96.26,51.38c.21-.11.5-.25.71-.37,4.63,21.39,11.39,38,41.25,85.77l-.11.05Z"/><path class="cls-4" d="M135.12,140.72c-.05.26-.1.62-.13.89-25.89-4.84-51.2-9.69-76.17-15.78.07-.29.15-.68.21-1,13.12,3.13,31.09,7.42,76.12,15.75l0,.12Z"/><path class="cls-4" d="M99,43.63l-.39-.1c5.65-8.39,14.18-21.06,27.4-32.67l.19.06C119.22,17.51,111.37,25,99,43.63Z"/><path class="cls-4" d="M100.06,47c.06-.2.12-.47.16-.68,19.12-4.31,38.32-8.2,57.44-12.5.05.18.13.42.19.59-19.25,4.26-38.57,8.2-57.8,12.58Z"/><path class="cls-4" d="M74.84,192.55c-.12-.18-.28-.42-.4-.6,7.21-6.68,20.64-19.1,61.21-46.73.11.2.27.46.4.65-48.1,34.69-48.1,34.69-61.2,46.67Z"/><path class="cls-4" d="M139.77,295.77c-4.79-2.71-19.36-11-43.22-40.81a4.7,4.7,0,0,0,.47-.2c7.14,8.75,26.1,32,42.77,41Z"/><path class="cls-4" d="M91.65,246.73l-.3,0c-6.87-12.83-11.58-22.32-19-45.94a4.19,4.19,0,0,0,.73-.1c5.36,16.83,8.62,26.52,18.62,46Z"/><path class="cls-4" d="M145.35,201.81c0,.13,0,.31,0,.44-5.57-.3-22.53-1.22-69.38-6a8.38,8.38,0,0,0-.1-.92c17.63,1.77,32.94,3.27,69.53,6.35v.11Z"/><path class="cls-4" d="M142.72,267.32l-.08.27c-3.62-1.1-14.62-4.45-44.72-14.85a4.51,4.51,0,0,0-.1-.65c5.53,1.91,5.53,1.91,44.93,15.17l0,.07Z"/><path class="cls-4" d="M146.71,265.26l-.59,0c.46-9.67.79-16.66,4-57.27a7.18,7.18,0,0,0,.93.05c-2.11,25.79-3.39,41.35-4.35,57.26Z"/><path class="cls-4" d="M96,248.75l-.45-.44c7.18-8.87,17-19.47,50.55-42.81.12.17.28.4.41.56-25.66,18.79-38.54,28.22-50.5,42.69Z"/><path class="cls-4" d="M157.95,31.14c-.06.11-.13.26-.19.37C139.3,21,133.08,16.38,128.82,10.12l.44-.3c4.58,6.64,10.55,10.71,28.72,21.26l0,.06Z"/><path class="cls-4" d="M145.33,0c1,0,2,0,3,0h-3Z"/><path class="cls-4" d="M127.74,8.09l-.33.23c-2-1.53-7.26-5.6,7-7.55,3.31-.45,6.87-.6,9-.69l.94,0c-16,.65-21.94,3.08-17.56,7.21.28.26.7.56,1,.8l-.06,0Z"/><path class="cls-4" d="M130.89,8.24c0-.07.08-.2.15-.22,1.34-.52,3.19-1,4.55-1.46C147.2,2.9,150.4,1.74,150.73.51a5.06,5.06,0,0,0-1.49-.45c1.24.09,1.32.17,1.76.62-.78,1.21-2.71,2.17-20.12,7.57Z"/><path class="cls-4" d="M147.83,298.31h0Z"/><path class="cls-4" d="M147.61,298.31c-.87,0-3.08-.19-3.09-.19a9.3,9.3,0,0,1-2.78-1c.53.18.94.62,1.5.74a31,31,0,0,0,4.36.49Z"/><path class="cls-4" d="M238.13,30.54l.12.1c-.3-.23-.6-.44-.89-.69l.77.59Z"/><path class="cls-4" d="M150.39,0h0Z"/><path class="cls-4" d="M140.79,295.89c-.07,0-7.09-2.89,3.58-24.3a3.93,3.93,0,0,0,.54.24c-3.75,7.88-8.87,18.66-4.12,24.06Z"/><path class="cls-4" d="M148.3,298.31H148a7.39,7.39,0,0,0,1.06-.1l0-.11a40.85,40.85,0,0,0-6.11-1.14l-.21-.13c5.79.93,6.35,1.09,6.6,1.35a4.41,4.41,0,0,1-.91.13Z"/><path class="cls-4" d="M162.29,30.09a4.65,4.65,0,0,0-.6-.19c1.5-9.58,4.3-27.4-11-29.71,7.66.78,15.9,6.6,11.6,29.9Z"/><path class="cls-4" d="M150,298.23c6.72-.66,12.38-2.73,19.34-5.85l0,.1c-8,3.3-12,5-19.37,5.75Z"/><path class="cls-4" d="M149.76,298.23h-.14c9.22-1.83,11.91-6.76-1.61-26.56a3.45,3.45,0,0,0,.49-.29c10.19,15.3,13.66,24.6,1.29,26.84Z"/><path class="cls-4" d="M149.66,267.41c0-.12-.12-.28-.18-.4,7.09-3.47,7.09-3.47,36.08-16.63,0,.14,0,.33,0,.48-11.93,5.64-24,11-36,16.56Z"/><path class="cls-4" d="M172.84,289.79l-.41.22c-1.28-4.32-3.91-8.76-23.2-19.34a3.14,3.14,0,0,0,.29-.5c11.75,6.62,22.38,13.1,23.38,19.59l-.07,0Z"/><path class="cls-4" d="M142.84,136.39c-.3-.07-.69-.14-1-.19C154.8,78.43,159.16,59,160.77,36.83l.49.1c-1.46,22.93-4.72,37.62-18.42,99.46Z"/><path class="cls-4" d="M281.65,214.92c-2.89,4.28-5.18,7.67-14.61,13.84.13-.26.16-.57.38-.78a38.55,38.55,0,0,1,4.67-3.26,36.1,36.1,0,0,0,10-10.71l-.45.92Z"/><path class="cls-4" d="M145.63,138c-.16-.16-.39-.37-.56-.52C186.6,91.34,186.6,91.34,198.22,73.6l.52.43c-10.89,17.43-21.81,30.59-53.1,64Z"/><path class="cls-4" d="M188.21,245.44c-.21.15-.35.26-.49.38-7-10.1-12.54-18.09-33.11-39a5.15,5.15,0,0,0,.69-.62c14.14,14.53,23.42,24.41,33,39.14l-.08.06Z"/><path class="cls-4" d="M231.16,209.92l-.15.43c-24.85-1.76-49.59-4.68-74.41-6.8,0-.27.07-.63.09-.89,30.44,2.61,51.33,4.52,74.51,7.15l0,.1Z"/><path class="cls-4" d="M150.51,197.19l-.72.1c-4.17-23.42-7.88-46.45-8.29-49a6.93,6.93,0,0,0,1-.15c2.67,16.35,5.46,32.68,8.12,49h-.12Z"/><path class="cls-4" d="M235,147.56c0,.16,0,.37,0,.53-29.33-.94-58.57-3.42-87.86-5.05a7.08,7.08,0,0,0,0-1c41.07,2.28,61.6,3.55,87.84,5.42v.1Z"/><path class="cls-4" d="M156.28,200.3c-.12-.24-.29-.56-.43-.8,35.55-19.44,57.61-32.28,79.5-48.56.1.27.24.63.36.9-20,14.49-36.18,24.93-79.44,48.46Z"/><path class="cls-4" d="M197.05,66.3a2.92,2.92,0,0,0-.38.44c-10.8-10.21-21.75-20.25-32.58-30.42a2.78,2.78,0,0,0,.41-.39C175.37,46,186.33,56,197.11,66.24l-.06.06Z"/><path class="cls-4" d="M163.27,30.63a4.52,4.52,0,0,0-.55-.34c5.39-10.33,8.95-18.79,1.88-25.85,1.44.5,4.68,4.31,4.42,9.43-.29,5.75-2.08,10-5.74,16.77Z"/><path class="cls-4" d="M164.92,33c0-.14-.1-.32-.15-.45,31.22-6,31.22-6,38.2-8l.44.4c-3.28,1-11,3.46-38.49,8.07Z"/><path class="cls-4" d="M250.54,56.27l-.33-.05h-.06C234.18,34.09,218.94,18.94,188.3,7c24.29,9.76,42.27,21,62.24,49.32Z"/><path class="cls-4" d="M253.62,58.5c-.2-.22-.48-.36-.62-.63-.68-1.33-.32-3.46-.46-4.94-.39-4.19-2.81-11.1-12.15-20.26A34.75,34.75,0,0,1,253.62,58.5Z"/><path class="cls-4" d="M204.61,22.41a4.35,4.35,0,0,1-.67-.38c-1-.85-1.41-2.69-2-3.85-3-5.71-11.78-9.88-16-11.88,3.33,1,9.36,4.77,10.24,5.53,5.39,4.64,5.56,5,8.46,10.58Z"/><path class="cls-4" d="M200.91,21.7c0,.05,0,.12,0,.18-13.64-7.83-21-11.83-34.51-17.28l-.12-.14c12.74,5.14,20.5,9,34.62,17.21v0Z"/><path class="cls-4" d="M236.43,205.39h0l-.6.05c2.52-15.64,4.34-26.93,3.65-51h0a4,4,0,0,0,.74-.07c.22,16,.4,28.69-3.79,51Z"/><path class="cls-4" d="M180.84,4.73l.58.18C176.08,3.82,161.88,1,149.75.07l-.41,0c12.46.82,26.72,3.71,31.41,4.66l.09,0Z"/><path class="cls-4" d="M160.36,2.36l0,0C157.6,1.63,153.83.7,151,.2l-.14,0c2.89.52,6.72,1.38,9.54,2.18Z"/><path class="cls-4" d="M182,5.08l.72.22c-3.3-.36-7.4-.81-17.84-1.67l-.49-.22c4.32.36,11.56.95,17.51,1.63l.1,0Z"/><path class="cls-4" d="M249.4,57c0,.07,0,.16,0,.22C239.74,49,227.72,38.7,209.08,27a2.37,2.37,0,0,0-.05-.34c9.15,5.91,24.47,15.81,40.38,30.32V57Z"/><path class="cls-4" d="M202.81,66.64a6.28,6.28,0,0,0-.7-.47c3.95-10.42,9.36-24.69,3.7-39.48.11.06,8.62,11.74-3,40Z"/><path class="cls-4" d="M244,148a9.67,9.67,0,0,0-.09-1c14.82-3,18.32-3.76,28.79-6.46,0,.45,0,.58.1,1-10.52,2.7-13.88,3.49-28.8,6.47Z"/><path class="cls-4" d="M237.93,142.52l-.35.18c-8.94-22.22-14.85-36.91-34.18-67.78.19-.08.44-.2.62-.3,11.85,19.06,23.37,38.59,34,67.87l-.09,0Z"/><path class="cls-4" d="M205.12,70c-.06-.19-.15-.44-.22-.62,38.85-6.58,38.85-6.58,46.14-8.51l.52.77c-8.2,2.08-18.53,4.43-46.44,8.36Z"/><path class="cls-4" d="M242.29,143.44c-.18-.17-.44-.39-.64-.54,12.58-29.21,18.65-51.41,12.43-78.45.17.13,12.94,23.11-11.79,79Z"/><path class="cls-4" d="M175,289l-.2,0c5.45-5.93,12.91-14,14.49-36.19a5.82,5.82,0,0,0,.69-.2c-1.16,10.16-2.92,25.51-14.92,36.33Z"/><path class="cls-4" d="M193.91,245.94c-.06-.12-.14-.28-.21-.39,24.47-20,25.43-20.79,37.12-31.42.06.14.14.33.21.47-9.19,8.5-15.26,14.12-37.12,31.34Z"/><path class="cls-4" d="M230.24,266.53l-.54.43c-3.09-3.28-7.76-8.24-36.6-16.85a6.9,6.9,0,0,0,.39-.69c11.07,3.41,31.68,9.74,36.83,17l-.09.07Z"/><path class="cls-4" d="M172.09,295.35l-.69.16c.65-.36,1.77-.74,2-1.44.44-1.2.45-1.23-.55-2.57l.56-.29c.38.51,1.12,1.28.93,1.89-.34,1.12-.46,1.24-2.19,2.23l-.09,0Z"/><path class="cls-4" d="M175.29,290.05c1.56-1.29,4.42-1.65,6.33-2.32,21.53-7.51,33.07-12.54,45.74-18.7-.06.06-13.45,8.15-52.07,21Z"/><path class="cls-4" d="M234.78,264.1l-.13-.07c11.2-10.37,15.83-14.66,26.69-29.41l.13.08c-8.79,11.71-12.8,17-26.69,29.41Z"/><path class="cls-4" d="M232.7,264.79l-.48.3c8.52-14.16,11.66-26.36,3.89-50.2a7.14,7.14,0,0,0,.67-.58c6,19.34,7.08,33.11-4,50.43l-.08,0Z"/><path class="cls-4" d="M231.35,25.66l3.6,2.56-5-3.51,1.41.95Z"/><path class="cls-4" d="M234.74,28.28l.43.34c-15.09-9.64-25-14.84-47.31-22l-.5-.2C208,13,218.19,17.71,234.68,28.24l.05,0Z"/><path class="cls-4" d="M284.65,102.28c0,.14,0,.33,0,.47-7-12.42-11.57-20.62-27.7-38a3.81,3.81,0,0,0,0-.45c11.32,12.44,18.19,20.34,27.71,37.92v.06Z"/><path class="cls-4" d="M275.72,134.21l-.39-.06c-1.72-17.85-3.87-40.07-19.57-68.78l.37,0c7.29,14,17.28,33.26,19.58,68.8Z"/><path class="cls-4" d="M238.74,206.6a5.74,5.74,0,0,0-.41-.5c14.36-18.48,26.1-34.72,35.53-61.23.12.18.3.41.44.58-5.55,14.69-11.84,31.34-35.56,61.15Z"/><path class="cls-4" d="M267.92,225.34l-.11-.12c7.31-12.43,11-18.67,16-32l.13.14c-5,12.28-7.68,19-16,32Z"/><path class="cls-4" d="M263.87,228.33l-.4.58c-5.64-5.68-9.75-8.93-25.39-16.31a9.18,9.18,0,0,0,.42-.84c13.63,6.49,19.52,10,25.44,16.47l-.07.09Z"/><path class="cls-4" d="M239.12,209.72a7.32,7.32,0,0,0,.11-.87c20-7,32.35-12,44.6-20q-.07.35-.14.7c-7.9,5.37-16.2,10.27-44.57,20.13Z"/><path class="cls-4" d="M278,136.95a7.44,7.44,0,0,0-.33-.82c5.43-10.89,7.07-14.55,8.82-26.09,0,.06,1.94,6.55-8.49,26.9Z"/><path class="cls-4" d="M286,183.09l-.27.43c-.83-10.89-1.61-21.18-8.2-38.22a4.41,4.41,0,0,0,.36-.62c4,11.52,7.77,22.4,8.16,38.33l0,.06Z"/><path class="cls-4" d="M175.79,294.62c13.11-4,28-8.48,50.23-23.89C215.26,278,200.52,288,175.79,294.62Z"/><path class="cls-4" d="M244.66,262.49c-2.42,1.52-4,2.52-12.56,4.87.22-.19.38-.46.67-.58a36.44,36.44,0,0,1,3.66-1,29,29,0,0,0,9-3.88l-.73.63Z"/><path class="cls-4" d="M205.18,286.83c10.18-4.7,17.34-8.43,23.76-17.12l.72-.48c-4.1,5.23-8,10.17-23.42,17.15l-1.06.45Z"/><path class="cls-4" d="M244.76,35.91l-2.61-2.14-.47-.4,2,1.64,1.06.9Z"/><path class="cls-4" d="M285.67,101.74c-2.69-2.08-2.55-7.5-3.56-10.74-2.85-9.13-12.41-32.93-39.52-56.69,16.27,14.83,33,32.25,43.08,67.43Z"/><path class="cls-4" d="M284.76,90.14c2.31,7.39,2.45,7.83,2.5,14.45a4.49,4.49,0,0,1-.34-.81,41.11,41.11,0,0,1-.21-5.55c-.1-2.83-1.46-6.44-2.39-9.11l.44,1Z"/><path class="cls-4" d="M172.38,2c3.16.58,7.94,1.47,10.85,3-1.48-.42-2.83-1.17-4.32-1.57a68,68,0,0,0-7.55-1.63l1,.16Z"/><path class="cls-4" d="M190.32,6.17a43.4,43.4,0,0,0-5.62-.67l-.85-.26a44.37,44.37,0,0,1,5.54.65l.94.28Z"/><path class="cls-4" d="M287.35,201.8c.88-4.45,1.33-6.69-.75-11.61q.17-.44.31-.89c1.48,4.59,2.22,6.9.8,11.54l-.36,1Z"/><path class="cls-4" d="M161.48,297.69c4.33-.44,7.17-.86,8.87-1.69l.84-.18c-1.24.62-2.67,1.14-8.7,1.77l-1,.1Z"/><path class="cls-4" d="M194.73,290.75c-5.19,1.55-9.83,2.81-22.38,4.81,7.76-1.8,15.7-2.76,23.33-5.13l-1,.32Z"/><path class="cls-4" d="M287.44,182.21c4.67-25.76,6.14-40.13.65-69.6,4.63,23.11,5.72,39.42-.65,69.6Z"/><path class="cls-4" d="M293,114.85c-1.77-3.58-1.81-3.65-4.43-6.08q-.1-.46-.22-.92c3.39,3.51,3.52,3.65,4.41,6l.24,1Z"/><path class="cls-4" d="M296.88,153.47c-1.47,13.31-2.27,16.81-9,30.94a3.06,3.06,0,0,1,0-.72c.68-2.43,2.51-5.33,3.58-7.62a69.41,69.41,0,0,0,5.4-24q0,.68,0,1.35Z"/><path class="cls-4" d="M6.42,191.68c.46,1.57,1.48,5.25,1,5.49-.87-.29-4-10.79-3.32-11.24.44.15,1.31,2.3,2.31,5.74Z"/><path class="cls-4" d="M93.39,287.7c1.51.62,3.08,1.1,4.54,1.85a77.59,77.59,0,0,1-10.66-4.32h0c.1,0,.1,0,6.11,2.47Z"/><path class="cls-4" d="M7.46,116.48h0c-1.12,5.16-2.46,6.36-2.89,5.58-1-1.83,1.32-11.14,2.85-11.31.36,0,1.07.69.05,5.69Z"/><path class="cls-4" d="M147.8,298.31c-3.18,0-5.61-.11-5.63-.11l5.63.11Z"/><path class="cls-4" d="M42.4,249.63c2.59,3,3,4.07,2.58,4.1-1.42.09-8.43-7.69-7.58-8.41a.18.18,0,0,1,.12,0c.73.07,2.6,1.74,4.87,4.35Z"/><path class="cls-4" d="M145.76,0c-2.33,0-3.73.1-5.85.21,0,0,3.15-.21,7.89-.22h0l-2,0Z"/><path class="cls-4" d="M101.62,10.22C98,11.89,96,12.62,95.77,12.38c0-.77,8.05-4.1,9.55-4.18h.07l0,.05c-.12.16-.52.46-3.8,2Z"/><path class="cls-4" d="M53.26,51.83c-3.25,4.42-6,5.08-6.21,3.75-.3-2,4.64-8,7.18-8,1.44.05.51,2.25-1,4.26Z"/><path class="cls-4" d="M96.29,282c3,2,2.6,2.35,2.3,2.39-1.73.23-9.19-4.31-8.49-5.16.07-.09.23-.1.35-.11,1.15.07,3.28,1.12,5.84,2.88Z"/><path class="cls-4" d="M59.1,124.33c-.65,5.93-5.63,7.29-7.78,4.41s-.63-10.14,4.06-10.31c2.17,0,4.17,1.88,3.72,5.9Z"/><path class="cls-4" d="M75.83,195.32c.84,5.39-3.66,6.72-6.65,4.4-3.54-2.74-3.75-9.46.62-10a4.32,4.32,0,0,1,.47,0c3.51.21,5.19,3.15,5.57,5.6Z"/><path class="cls-4" d="M147.8,298.31c-1.19,0-2,0-2,0h0c.65,0,1.3,0,2,0Z"/><path class="cls-4" d="M97.5,251.13c1.35,3.31-.84,4.72-3.59,3.54-3.29-1.41-5.89-6.48-3.25-7.7a2.91,2.91,0,0,1,1.2-.24,6.81,6.81,0,0,1,5.65,4.4Z"/><path class="cls-4" d="M99.58,48.14c-2.08,4.12-6.7,4.63-7.55,2.36-.76-2,1.84-6.82,5.95-7,2.29,0,3,2,1.61,4.67Z"/><path class="cls-4" d="M130.24,9c-2.16,2.18-4.67,2.33-4.6,1.36s3.13-3.31,5-3.37c1.14,0,.55,1.06-.39,2Z"/><path class="cls-4" d="M142.5,296.74c.92.56.94.65.95.69-.26.36-3.74-1.06-3.77-1.54,0-.1.1-.15.31-.16a6.29,6.29,0,0,1,2.51,1Z"/><path class="cls-4" d="M147.17,142.3c-.09,6.22-7.28,7.49-10.51,4.3s-2-10.28,4.39-10.45a5.85,5.85,0,0,1,6.11,6.15Z"/><path class="cls-4" d="M149.85,268.94c-.26,3.31-4.5,4.09-6.44,1.89-1.55-1.76-1.27-5.54,2.71-5.61,1.94,0,3.93,1.18,3.72,3.71Z"/><path class="cls-4" d="M156.69,202.64c-.25,5.78-7.08,6.68-10.05,3.58a5.48,5.48,0,0,1,4.43-9.06c3.9.1,5.78,2.83,5.62,5.48Z"/><path class="cls-4" d="M165.07,33.7c.45,3.5-3.75,4.1-6,2.27s-2-5.85,1.2-6.19l.4,0a4.49,4.49,0,0,1,4.41,3.93Z"/><path class="cls-4" d="M193.75,248.84c-1.63,4.2-6.75,5.35-8,2.61-.94-2.14,1-6.84,5.45-7,3.06.13,3.26,2.45,2.5,4.4Z"/><path class="cls-4" d="M148.72,0a15.89,15.89,0,0,1,2.33.2,1.51,1.51,0,0,1-.34,0c-.46,0-.92-.1-1.38-.14C148.66,0,148.16,0,147.8,0h0l.92,0Z"/><path class="cls-4" d="M147.8,298.31c.79,0,1.58-.09,2.37-.11a19.74,19.74,0,0,1-2.37.11Z"/><path class="cls-4" d="M205.27,70.62c.94,4.19-3,5.71-6.35,3.53s-4-7.72-.44-8.62a4.67,4.67,0,0,1,1-.12,6.33,6.33,0,0,1,5.81,5.2Z"/><path class="cls-4" d="M164.47,3.46c1.64.7,2.19,1.19,1.88,1.32-.11,0-.63.14-2.56-.65,0,0-3.39-1.48-3.43-1.8,0,0,0,0,.15,0a15.8,15.8,0,0,1,4,1.18Z"/><path class="cls-4" d="M174,290.89c-2.25,1.3-4.92,2.12-4.69,1.43s4.3-3.39,6.2-3.42c.91,0,.28.69.07.89a9.08,9.08,0,0,1-1.57,1.09Z"/><path class="cls-4" d="M244,149c-.2,3.23-2,5.42-4.47,5.45h0c-5.21-.2-5.58-8.65-2.6-11.25a3.9,3.9,0,0,1,2.56-1c2.89.11,4.75,2.9,4.51,6.78Z"/><path class="cls-4" d="M238.84,210.84c-1.68,5.23-6.49,6.31-7.85,3.69s1.2-9.08,5.44-9.14h0c2.45.1,3.42,2.29,2.4,5.45Z"/><path class="cls-4" d="M207.55,24.66c1.94,1.88,1.85,2.86.74,2.86-2.39,0-8.37-5-7.26-6.12a.83.83,0,0,1,.54-.16c1.7.1,4.3,1.79,6,3.41Z"/><path class="cls-4" d="M171.53,295.75c-2.75.6-5.05,1-5.43,1,.2-.12,9.34-2.17,9.78-2.2h.05a24.94,24.94,0,0,1-4.4,1.21Z"/><path class="cls-4" d="M278.55,140.89c0,4.63-2.21,6.48-4.05,4.75-2.63-2.47-2.69-11.35.77-11.49,1.88.07,3.26,2.9,3.28,6.74Z"/><path class="cls-4" d="M255.73,61.32c1.81,3,1.44,4.4,0,4.05-2.76-.68-7.65-8-6-9a.92.92,0,0,1,.41-.11h0c1.43.05,3.83,2.25,5.57,5.1Z"/><path class="cls-4" d="M184.14,5.33a26.24,26.24,0,0,1,4.37,1.58l0,.05c-.74,0-9.93-2.91-10.24-3.1h0a49.58,49.58,0,0,1,5.87,1.47Z"/><path class="cls-4" d="M231.54,267.82c-3,2.42-5.54,3.65-5.53,3,0-1.07,6.56-6.6,8.52-6.76.69,0,.1,1-1.47,2.49-.55.52-1.14,1-1.53,1.31Z"/><path class="cls-4" d="M266.25,230.13c-2.38,3.82-4.82,5.5-5.08,4.15-.37-1.91,4.1-9,6.31-9.17,1.08.06.57,2.12-1.23,5Z"/><path class="cls-4" d="M287.28,188c-1.23,4.58-2.89,6.12-3.49,5.17-1.07-1.68,1.21-10.84,3.38-11.09,1,.1,1,2.53.11,5.92Z"/><path class="cls-4" d="M288.11,107.13c1.13,4,.9,6,0,5.48-1.91-1.14-4.52-10.72-3-11.14h.09c.82.07,2,2.4,3,5.67Z"/><path class="cls-4" d="M239.11,31.3a39.09,39.09,0,0,1,3.81,3.2c-.39-.15-8.93-6.74-9-7a59,59,0,0,1,5.24,3.78Z"/></g><circle class="cls-5" cx="171.37" cy="187.02" r="15.26"/><circle class="cls-6" cx="54.95" cy="124.14" r="15.7"/><circle class="cls-7" cx="199.95" cy="69.31" r="11.87"/><circle class="cls-8" cx="122.66" cy="24.71" r="9.23"/><circle class="cls-9" cx="70.07" cy="195.32" r="15.44"/><circle class="cls-10" cx="239.5" cy="148.76" r="16"/><circle class="cls-11" cx="140.18" cy="142.1" r="19.79"/><circle class="cls-12" cx="154.86" cy="260.45" r="9.23"/><circle class="cls-13" cx="58.94" cy="250.38" r="9.23"/><circle class="cls-14" cx="240.39" cy="221.73" r="9.23"/><circle class="cls-15" cx="273.41" cy="170.42" r="9.23"/><circle class="cls-16" cx="17.94" cy="157.7" r="9.23"/><circle class="cls-17" cx="87" cy="57.32" r="14.58"/></g></g></g></svg>